<?xml version="1.0" standalone="no"?>
<!DOCTYPE svg PUBLIC "-//W3C//DTD SVG 20010904//EN"
 "http://www.w3.org/TR/2001/REC-SVG-20010904/DTD/svg10.dtd">
<svg version="1.0" xmlns="http://www.w3.org/2000/svg"
 width="961.000000pt" height="606.000000pt" viewBox="0 0 961.000000 606.000000"
 preserveAspectRatio="xMidYMid meet">

<g transform="translate(0.000000,606.000000) scale(0.100000,-0.100000)"
fill="#000000" stroke="none">
<path d="M0 5760 l0 -280 4795 0 4795 0 0 280 0 280 -4795 0 -4795 0 0 -280z
m2928 68 c18 -18 15 -66 -5 -76 -15 -9 -14 -13 6 -46 22 -35 22 -36 3 -36 -12
0 -29 14 -41 33 l-21 32 0 -32 c0 -26 -4 -33 -20 -33 -18 0 -20 7 -20 85 l0
85 43 0 c24 0 48 -5 55 -12z m159 -53 c46 -112 44 -105 23 -105 -10 0 -22 9
-25 20 -5 15 -15 20 -42 20 -26 0 -36 -5 -40 -20 -3 -11 -14 -20 -24 -20 -23
0 -23 -2 0 51 11 24 26 61 35 82 22 53 43 45 73 -28z m143 50 c0 -8 -7 -15
-15 -15 -12 0 -15 -14 -15 -70 0 -56 -3 -70 -15 -70 -12 0 -15 14 -15 70 0 56
-3 70 -15 70 -8 0 -15 7 -15 15 0 11 12 15 45 15 33 0 45 -4 45 -15z m60 -70
c0 -78 -2 -85 -20 -85 -18 0 -20 7 -20 85 0 78 2 85 20 85 18 0 20 -7 20 -85z
m95 37 l30 -47 3 48 c3 39 6 47 23 47 17 0 19 -7 19 -85 0 -77 -2 -85 -19 -85
-12 0 -31 19 -52 52 l-34 53 -3 -53 c-2 -37 -7 -52 -18 -52 -11 0 -14 17 -14
85 0 74 2 85 18 85 9 0 30 -20 47 -48z m260 32 c28 -21 3 -36 -37 -22 -55 19
-96 -18 -77 -70 10 -27 50 -38 81 -20 l23 13 -27 3 c-49 6 -34 32 17 32 39 0
45 -3 45 -20 0 -35 -44 -70 -88 -70 -94 0 -127 114 -47 158 29 16 87 14 110
-4z m220 10 c26 -10 48 -62 40 -100 -8 -43 -38 -64 -92 -64 l-43 0 0 85 0 85
39 0 c22 0 47 -3 56 -6z m165 -9 c0 -10 -10 -15 -30 -15 -20 0 -30 -5 -30 -15
0 -10 10 -15 30 -15 20 0 30 -5 30 -15 0 -10 -10 -15 -30 -15 -25 0 -30 -4
-30 -25 0 -21 5 -25 30 -25 20 0 30 -5 30 -15 0 -11 -12 -15 -50 -15 l-50 0 0
85 0 85 50 0 c38 0 50 -4 50 -15z m120 0 c0 -10 -10 -15 -30 -15 -20 0 -30 -5
-30 -15 0 -10 10 -15 30 -15 20 0 30 -5 30 -15 0 -10 -10 -15 -30 -15 -28 0
-30 -2 -30 -40 0 -29 -4 -40 -15 -40 -12 0 -15 16 -15 85 l0 85 45 0 c33 0 45
-4 45 -15z m60 -70 c0 -78 -2 -85 -20 -85 -18 0 -20 7 -20 85 0 78 2 85 20 85
18 0 20 -7 20 -85z m101 33 l34 -53 3 53 c2 37 7 52 18 52 11 0 14 -17 14 -85
0 -74 -2 -85 -17 -85 -10 0 -31 20 -48 48 l-30 47 -3 -47 c-3 -40 -6 -48 -23
-48 -17 0 -19 7 -19 85 0 77 2 85 19 85 12 0 31 -19 52 -52z m139 -33 c0 -78
-2 -85 -20 -85 -18 0 -20 7 -20 85 0 78 2 85 20 85 18 0 20 -7 20 -85z m120
70 c0 -8 -9 -15 -20 -15 -18 0 -20 -7 -20 -70 0 -56 -3 -70 -15 -70 -12 0 -15
14 -15 70 0 56 -3 70 -15 70 -8 0 -15 7 -15 15 0 11 12 15 50 15 38 0 50 -4
50 -15z m50 -70 c0 -78 -2 -85 -20 -85 -18 0 -20 7 -20 85 0 78 2 85 20 85 18
0 20 -7 20 -85z m181 56 c17 -18 29 -40 29 -56 0 -40 -50 -85 -94 -85 -82 0
-122 95 -62 146 39 34 89 32 127 -5z m120 -23 l34 -53 3 53 c2 37 7 52 18 52
11 0 14 -17 14 -85 0 -104 -13 -110 -65 -33 l-35 53 0 -53 c0 -45 -3 -52 -20
-52 -18 0 -20 7 -20 85 0 77 2 85 19 85 12 0 31 -19 52 -52z m2100 36 c10 -13
10 -17 -1 -24 -9 -5 -20 -4 -27 2 -8 6 -17 8 -20 4 -4 -4 9 -22 30 -41 41 -38
45 -50 20 -77 -20 -22 -66 -24 -83 -3 -19 23 3 44 25 25 12 -10 18 -11 28 -1
9 10 6 17 -16 33 -38 28 -50 53 -37 78 13 24 62 27 81 4z m190 -13 c17 -18 29
-40 29 -56 0 -40 -50 -85 -94 -85 -51 0 -90 37 -90 85 0 79 96 114 155 56z
m89 -36 c0 -51 4 -67 16 -72 24 -9 34 15 34 80 0 44 3 57 15 57 12 0 15 -15
15 -75 0 -71 -1 -76 -25 -87 -18 -8 -35 -9 -53 -2 -26 9 -27 13 -30 87 -2 64
0 77 13 77 12 0 15 -13 15 -65z m212 48 c23 -20 23 -41 1 -65 -16 -18 -16 -21
0 -47 21 -36 21 -41 -1 -41 -10 0 -27 15 -37 33 l-20 32 -3 -32 c-2 -21 -9
-33 -18 -33 -11 0 -14 18 -14 85 l0 85 37 0 c20 0 45 -7 55 -17z m189 -2 c21
-17 22 -20 7 -26 -9 -4 -26 -1 -38 5 -48 26 -99 -15 -80 -64 11 -30 49 -42 80
-26 12 6 29 9 38 5 29 -11 -23 -45 -70 -45 -81 0 -120 92 -62 145 33 31 91 34
125 6z m79 -66 c0 -78 -2 -85 -20 -85 -18 0 -20 7 -20 85 0 78 2 85 20 85 18
0 20 -7 20 -85z m101 33 l34 -53 3 53 c2 37 7 52 18 52 11 0 14 -17 14 -85 0
-104 -13 -110 -65 -33 l-35 53 0 -53 c0 -45 -3 -52 -20 -52 -18 0 -20 7 -20
85 0 77 2 85 19 85 12 0 31 -19 52 -52z m255 38 c29 -22 7 -39 -33 -24 -63 24
-114 -49 -61 -86 28 -20 52 -20 68 -1 10 13 9 15 -9 15 -12 0 -21 6 -21 15 0
11 12 15 46 15 42 0 45 -2 39 -22 -11 -37 -52 -68 -91 -68 -44 0 -94 45 -94
85 0 42 50 85 97 85 22 0 48 -6 59 -14z m205 -2 c10 -13 10 -17 -1 -24 -9 -5
-20 -4 -27 2 -8 6 -17 8 -20 4 -4 -4 9 -22 30 -41 41 -38 45 -50 20 -77 -20
-22 -66 -24 -83 -3 -19 23 3 44 25 25 12 -10 19 -10 27 -2 9 9 2 20 -27 45
-37 32 -39 36 -27 61 14 30 61 36 83 10z m119 1 c0 -8 -7 -15 -15 -15 -12 0
-15 -14 -15 -70 0 -56 -3 -70 -15 -70 -12 0 -15 14 -15 70 0 56 -3 70 -15 70
-8 0 -15 7 -15 15 0 11 12 15 45 15 33 0 45 -4 45 -15z m118 3 c18 -18 15 -66
-5 -76 -15 -9 -14 -13 6 -46 22 -35 22 -36 3 -36 -12 0 -29 14 -41 33 l-21 32
0 -32 c0 -26 -4 -33 -20 -33 -18 0 -20 7 -20 85 l0 85 43 0 c24 0 48 -5 55
-12z m167 -75 c30 -76 32 -83 15 -83 -10 0 -22 9 -25 20 -5 15 -15 20 -42 20
-26 0 -36 -5 -40 -20 -3 -11 -14 -20 -24 -20 -23 0 -23 -2 0 51 11 24 26 61
35 82 23 57 43 45 81 -50z m135 72 c0 -8 -7 -15 -15 -15 -12 0 -15 -14 -15
-70 0 -56 -3 -70 -15 -70 -12 0 -15 14 -15 70 0 56 -3 70 -15 70 -8 0 -15 7
-15 15 0 11 12 15 45 15 33 0 45 -4 45 -15z m120 0 c0 -10 -10 -15 -30 -15
-20 0 -30 -5 -30 -15 0 -10 10 -15 30 -15 20 0 30 -5 30 -15 0 -10 -10 -15
-30 -15 -25 0 -30 -4 -30 -25 0 -21 5 -25 30 -25 20 0 30 -5 30 -15 0 -11 -12
-15 -50 -15 l-50 0 0 85 0 85 50 0 c38 0 50 -4 50 -15z m175 -1 c16 -12 17
-16 6 -24 -8 -5 -25 -4 -40 1 -71 28 -124 -58 -55 -90 33 -15 49 -14 64 4 11
13 8 15 -14 15 -16 0 -26 5 -26 15 0 11 12 15 45 15 39 0 45 -3 45 -20 0 -35
-44 -70 -88 -70 -82 0 -123 92 -66 145 31 29 97 34 129 9z m91 -16 l17 -33 15
33 c9 19 23 32 34 32 17 0 16 -4 -7 -50 -14 -27 -25 -65 -25 -85 0 -24 -4 -35
-15 -35 -10 0 -15 10 -15 30 0 17 -11 53 -25 80 -29 58 -30 60 -10 60 8 0 22
-15 31 -32z m-8828 0 c3 -15 -2 -17 -27 -12 -44 9 -41 -18 4 -39 39 -19 47
-53 19 -82 -22 -21 -88 -17 -92 7 -2 12 4 16 29 15 44 -3 47 17 4 41 -60 36
-41 95 30 89 19 -1 31 -8 33 -19z m150 0 c3 -15 -2 -17 -25 -12 -34 7 -55 -13
-55 -51 0 -38 21 -58 55 -51 23 5 28 3 25 -12 -4 -23 -62 -28 -92 -8 -42 27
-41 112 2 144 24 19 86 11 90 -10z m144 -58 c15 -41 27 -78 27 -82 2 -18 -38
-6 -44 12 -5 14 -15 20 -37 20 -21 0 -31 -6 -35 -20 -5 -18 -43 -30 -43 -14 0
9 49 144 56 156 3 5 16 8 27 6 17 -2 28 -19 49 -78z m88 10 c0 -68 1 -70 25
-70 16 0 25 -6 25 -15 0 -11 -12 -15 -45 -15 l-45 0 0 85 c0 78 2 85 20 85 18
0 20 -7 20 -70z m170 55 c0 -10 -10 -15 -30 -15 -20 0 -30 -5 -30 -15 0 -9 9
-15 25 -15 16 0 25 -6 25 -15 0 -9 -9 -15 -25 -15 -20 0 -25 -5 -25 -25 0 -21
5 -25 30 -25 20 0 30 -5 30 -15 0 -11 -12 -15 -50 -15 l-50 0 0 85 0 85 50 0
c38 0 50 -4 50 -15z m658 3 c15 -15 16 -65 1 -70 -6 -2 -5 -14 5 -33 21 -39
20 -55 -1 -55 -10 0 -25 15 -33 32 -22 46 -40 48 -40 4 0 -29 -4 -36 -20 -36
-18 0 -20 7 -20 78 0 43 3 82 7 85 11 12 88 8 101 -5z m163 -68 c16 -41 28
-78 28 -82 2 -18 -38 -6 -44 12 -5 14 -15 20 -37 20 -21 0 -31 -6 -35 -20 -3
-12 -14 -20 -25 -20 -12 0 -18 5 -15 13 2 6 15 45 28 85 21 67 25 73 48 70 21
-3 29 -15 52 -78z m139 65 c0 -9 -9 -15 -25 -15 -24 0 -25 -2 -25 -70 0 -56
-3 -70 -15 -70 -12 0 -15 14 -15 70 0 68 -1 70 -25 70 -16 0 -25 6 -25 15 0
12 14 15 65 15 51 0 65 -3 65 -15z m50 -70 c0 -78 -2 -85 -20 -85 -18 0 -20 7
-20 85 0 78 2 85 20 85 18 0 20 -7 20 -85z m117 23 l32 -63 0 63 c1 48 4 62
16 62 12 0 15 -16 15 -85 0 -82 -1 -85 -23 -85 -18 0 -29 13 -54 63 l-32 62 0
-62 c-1 -49 -4 -63 -16 -63 -12 0 -15 16 -15 85 0 82 1 85 23 85 18 0 29 -13
54 -62z m217 56 c9 -3 16 -14 16 -25 0 -16 -4 -17 -29 -8 -57 20 -104 -39 -66
-81 24 -26 55 -26 55 0 0 11 -7 20 -15 20 -8 0 -15 7 -15 15 0 11 11 15 36 15
l35 0 -3 -47 c-3 -46 -4 -48 -37 -51 -53 -5 -79 6 -97 39 -39 76 38 155 120
123z"/>
<path d="M2870 5790 c0 -11 7 -20 15 -20 8 0 15 9 15 20 0 11 -7 20 -15 20 -8
0 -15 -9 -15 -20z"/>
<path d="M3032 5765 c-10 -22 -9 -25 8 -25 21 0 26 16 12 38 -6 9 -12 6 -20
-13z"/>
<path d="M3800 5755 c0 -59 9 -67 51 -45 39 22 15 100 -32 100 -16 0 -19 -7
-19 -55z"/>
<path d="M4702 5794 c-30 -21 -29 -59 4 -81 24 -15 29 -15 53 -2 35 20 40 62
9 83 -28 20 -38 20 -66 0z"/>
<path d="M7106 5791 c-24 -26 -17 -62 15 -80 24 -13 29 -13 53 2 33 22 34 60
4 81 -30 21 -51 20 -72 -3z"/>
<path d="M7450 5790 c0 -15 5 -20 18 -18 9 2 17 10 17 18 0 8 -8 16 -17 18
-13 2 -18 -3 -18 -18z"/>
<path d="M8520 5790 c0 -11 7 -20 15 -20 8 0 15 9 15 20 0 11 -7 20 -15 20 -8
0 -15 -9 -15 -20z"/>
<path d="M8682 5765 c-10 -22 -9 -25 8 -25 21 0 26 16 12 38 -6 9 -12 6 -20
-13z"/>
<path d="M668 5765 c-7 -34 -5 -38 15 -33 13 2 13 8 3 33 l-13 30 -5 -30z"/>
<path d="M1580 5780 c0 -21 16 -26 39 -11 18 11 5 31 -20 31 -12 0 -19 -7 -19
-20z"/>
<path d="M1748 5765 c-7 -34 -5 -38 15 -33 13 2 13 8 3 33 l-13 30 -5 -30z"/>
<path d="M7480 5310 c0 -14 91 -343 98 -355 7 -11 12 -31 15 -60 1 -14 11 -21
30 -23 31 -4 35 -25 12 -56 -8 -11 -15 -27 -14 -35 0 -9 5 -5 11 9 l11 25 7
-25 c8 -25 8 -25 11 5 1 17 2 37 1 45 0 8 5 18 11 22 7 4 388 8 848 8 787 0
837 1 845 18 4 9 6 21 5 25 -1 5 2 6 7 3 10 -6 -9 -76 -20 -76 -5 0 -8 4 -8 8
0 4 -16 8 -35 9 -31 1 -35 -2 -36 -25 -1 -17 -3 -21 -6 -10 -4 17 -54 18 -801
20 l-797 3 0 -22 0 -23 802 0 802 0 21 22 21 23 5 -22 c7 -25 40 -37 48 -17 3
9 0 11 -12 7 -16 -6 -16 -5 -1 13 17 20 50 99 47 112 -1 4 4 20 10 35 15 37
15 50 0 42 -7 -4 -6 0 3 7 14 11 89 256 89 288 0 6 -376 10 -1015 10 -660 0
-1015 -3 -1015 -10z"/>
<path d="M1520 5125 l0 -165 410 -2 410 -3 0 168 0 167 -410 0 -410 0 0 -165z
m280 49 c0 -19 -16 -18 -24 2 -12 31 -26 1 -26 -57 0 -46 3 -59 15 -59 9 0 15
9 15 25 0 14 -4 25 -10 25 -5 0 -10 5 -10 10 0 6 9 10 19 10 14 0 20 -9 23
-35 5 -40 -6 -55 -38 -55 -35 0 -45 23 -42 91 3 58 5 64 28 69 27 7 50 -5 50
-26z m335 -50 c0 -61 -2 -70 -22 -80 -13 -6 -20 -14 -17 -17 4 -4 -4 -1 -17 5
-22 10 -24 17 -24 87 0 67 2 77 20 82 11 3 29 3 40 -1 17 -6 20 -16 20 -76z
m-217 9 c4 -80 -8 -104 -45 -94 -26 7 -28 11 -31 71 -4 83 0 92 40 88 33 -3
33 -3 36 -65z m75 60 c-20 -7 -18 -133 2 -133 8 0 15 7 15 15 0 8 5 15 10 15
6 0 10 -11 10 -25 0 -22 -4 -25 -37 -25 l-38 0 0 80 c0 79 0 80 25 79 14 0 19
-3 13 -6z"/>
<path d="M2080 5126 c0 -53 3 -66 15 -66 13 0 15 11 13 62 -2 38 -8 63 -15 66
-10 3 -13 -14 -13 -62z"/>
<path d="M1867 5183 c-4 -3 -7 -33 -7 -65 0 -45 3 -58 15 -58 12 0 15 14 15
65 0 60 -6 75 -23 58z"/>
<path d="M2856 5219 c-36 -28 -36 -80 0 -108 35 -28 69 -26 99 4 36 35 33 55
-10 55 -24 0 -35 -5 -35 -15 0 -8 9 -15 21 -15 11 0 17 -4 14 -10 -10 -16 -62
-12 -79 6 -37 36 -3 79 56 71 45 -6 57 6 22 22 -36 16 -58 14 -88 -10z"/>
<path d="M3011 5165 l1 -75 34 0 c24 0 34 5 34 15 0 8 -9 15 -20 15 -18 0 -20
7 -20 60 0 47 -3 60 -15 60 -12 0 -15 -14 -14 -75z"/>
<path d="M3140 5227 c-57 -29 -46 -113 18 -131 73 -21 126 76 66 123 -31 24
-49 26 -84 8z m80 -33 c21 -25 1 -68 -33 -72 -16 -2 -35 2 -43 9 -17 14 -18
51 -2 67 17 17 63 15 78 -4z"/>
<path d="M3290 5165 c0 -74 0 -75 26 -75 14 0 34 5 45 10 20 11 26 45 9 55 -5
3 -7 19 -4 34 7 32 -15 51 -55 51 -19 0 -21 -6 -21 -75z m50 30 c0 -8 -7 -15
-15 -15 -8 0 -15 7 -15 15 0 8 7 15 15 15 8 0 15 -7 15 -15z m10 -60 c0 -8 -9
-15 -20 -15 -11 0 -20 7 -20 15 0 8 9 15 20 15 11 0 20 -7 20 -15z"/>
<path d="M3455 5231 c-3 -6 -17 -39 -30 -75 -20 -54 -22 -66 -10 -66 8 0 15 7
15 15 0 11 11 15 40 15 29 0 40 -4 40 -15 0 -8 7 -15 16 -15 9 0 14 4 12 8 -1
4 -14 38 -27 75 -23 62 -41 81 -56 58z m34 -73 c1 -5 -8 -8 -19 -8 -23 0 -24
4 -8 33 11 21 11 21 19 2 4 -11 8 -23 8 -27z"/>
<path d="M3570 5165 l0 -75 35 0 c24 0 35 5 35 15 0 9 -9 15 -25 15 -24 0 -25
3 -25 60 0 33 -4 60 -10 60 -6 0 -10 -32 -10 -75z"/>
<path d="M3737 5233 c-2 -4 -8 -30 -11 -58 -4 -27 -9 -58 -12 -67 -3 -11 0
-18 9 -18 8 0 17 18 23 48 l9 47 16 -44 c20 -57 34 -61 49 -14 18 56 27 59 33
13 3 -23 8 -44 11 -47 15 -15 17 11 6 76 -12 73 -32 94 -44 46 -3 -13 -11 -37
-17 -52 l-11 -28 -17 49 c-16 47 -34 67 -44 49z"/>
<path d="M3949 5213 c-46 -120 -47 -123 -34 -123 7 0 15 7 19 15 8 21 66 19
82 -2 25 -35 24 -5 -2 65 -29 77 -48 90 -65 45z m38 -59 c-3 -3 -12 -4 -20 -2
-11 2 -12 9 -5 28 l10 25 11 -23 c5 -12 8 -25 4 -28z"/>
<path d="M4070 5165 c0 -60 3 -75 15 -75 11 0 15 12 15 52 l0 53 33 -49 c48
-74 57 -71 57 18 0 44 -4 76 -10 76 -5 0 -10 -20 -10 -45 0 -25 -3 -45 -7 -45
-5 0 -21 20 -36 45 -43 68 -57 60 -57 -30z"/>
<path d="M4230 5181 c0 -63 15 -91 50 -91 35 0 50 28 50 91 0 46 -3 59 -15 59
-12 0 -15 -13 -15 -60 0 -53 -2 -60 -20 -60 -18 0 -20 7 -20 60 0 47 -3 60
-15 60 -12 0 -15 -13 -15 -59z"/>
<path d="M4370 5165 c0 -62 3 -75 16 -75 12 0 15 8 12 33 -2 27 1 33 20 35 27
4 30 32 2 32 -11 0 -20 5 -20 10 0 6 9 10 20 10 11 0 20 7 20 15 0 10 -11 15
-35 15 l-35 0 0 -75z"/>
<path d="M4488 5168 c-27 -71 -28 -99 -4 -65 17 22 72 23 84 1 5 -9 14 -15 20
-13 14 5 -42 143 -59 147 -9 2 -24 -23 -41 -70z m55 2 c4 -15 0 -20 -15 -20
-14 0 -18 5 -14 16 3 9 6 20 6 25 0 17 17 1 23 -21z"/>
<path d="M4660 5227 c-57 -29 -47 -112 15 -130 39 -11 87 6 78 28 -4 12 -9 13
-16 6 -15 -15 -60 -14 -75 1 -15 15 -15 51 0 66 15 15 64 16 73 2 7 -11 25 -4
25 9 0 9 -45 31 -63 31 -7 0 -23 -6 -37 -13z"/>
<path d="M4780 5225 c0 -8 7 -15 15 -15 12 0 15 -13 15 -60 0 -33 4 -60 10
-60 6 0 10 27 10 60 0 47 3 60 15 60 8 0 15 7 15 15 0 11 -11 15 -40 15 -29 0
-40 -4 -40 -15z"/>
<path d="M4880 5186 c0 -72 25 -105 66 -91 28 10 29 14 32 78 2 40 -1 67 -7
67 -6 0 -11 -26 -13 -57 -3 -51 -6 -58 -25 -61 -22 -3 -23 0 -23 57 0 48 -3
61 -15 61 -11 0 -15 -13 -15 -54z"/>
<path d="M5020 5165 c0 -60 3 -75 15 -75 10 0 15 10 15 33 l0 32 20 -32 c11
-18 24 -33 30 -33 13 0 13 3 -2 35 -9 19 -9 28 0 37 33 33 2 78 -52 78 -26 0
-26 -1 -26 -75z m60 30 c0 -8 -7 -15 -15 -15 -8 0 -15 7 -15 15 0 8 7 15 15
15 8 0 15 -7 15 -15z"/>
<path d="M5140 5165 c0 -60 3 -75 15 -75 12 0 15 15 15 75 0 60 -3 75 -15 75
-12 0 -15 -15 -15 -75z"/>
<path d="M5200 5165 c0 -60 3 -75 15 -75 11 0 15 12 15 52 l0 53 35 -53 c20
-28 40 -52 45 -52 6 0 10 33 10 75 0 43 -4 75 -10 75 -5 0 -10 -20 -10 -45 0
-25 -3 -45 -7 -45 -5 0 -21 20 -36 45 -43 68 -57 60 -57 -30z"/>
<path d="M5386 5219 c-53 -41 -18 -129 51 -129 27 0 73 41 73 65 0 11 -10 15
-35 15 -24 0 -35 -5 -35 -15 0 -8 9 -15 21 -15 11 0 17 -4 14 -10 -10 -16 -62
-12 -79 6 -37 36 -3 79 56 71 45 -6 57 6 22 22 -36 16 -58 14 -88 -10z"/>
<path d="M5600 5165 l0 -75 35 0 c24 0 35 5 35 15 0 8 -9 15 -20 15 -18 0 -20
7 -20 60 0 47 -3 60 -15 60 -12 0 -15 -15 -15 -75z"/>
<path d="M5700 5165 l0 -75 40 0 c29 0 40 4 40 15 0 10 -10 15 -30 15 -23 0
-30 4 -30 20 0 16 7 20 30 20 20 0 30 5 30 15 0 10 -10 15 -30 15 -16 0 -30 5
-30 10 0 6 14 10 30 10 20 0 30 5 30 15 0 11 -11 15 -40 15 l-40 0 0 -75z"/>
<path d="M5833 5183 c-12 -32 -25 -66 -29 -75 -4 -13 -1 -18 10 -18 9 0 16 7
16 15 0 21 66 20 78 -1 5 -9 14 -15 20 -13 14 5 -42 143 -59 147 -9 1 -22 -19
-36 -55z m50 -13 c4 -15 0 -20 -15 -20 -14 0 -18 5 -14 16 3 9 6 20 6 25 0 17
17 1 23 -21z"/>
<path d="M5970 5166 l0 -76 35 0 c45 0 75 29 75 73 0 47 -19 67 -68 74 l-42 6
0 -77z m82 18 c15 -33 1 -58 -36 -62 -25 -3 -26 -1 -26 42 0 42 2 46 25 46 18
0 29 -8 37 -26z"/>
<path d="M6120 5165 l0 -75 40 0 c29 0 40 4 40 15 0 10 -10 15 -30 15 -23 0
-30 4 -30 20 0 16 7 20 30 20 20 0 30 5 30 15 0 10 -10 15 -30 15 -16 0 -30 5
-30 10 0 6 14 10 30 10 20 0 30 5 30 15 0 11 -11 15 -40 15 l-40 0 0 -75z"/>
<path d="M6230 5165 c0 -60 3 -75 15 -75 10 0 15 11 16 33 l0 32 16 -32 c9
-18 23 -33 30 -33 17 0 16 11 -3 38 -14 20 -14 24 0 38 32 31 6 74 -45 74
l-29 0 0 -75z m60 30 c0 -8 -7 -15 -15 -15 -8 0 -15 7 -15 15 0 8 7 15 15 15
8 0 15 -7 15 -15z"/>
<path d="M336 4994 c-30 -29 -12 -64 32 -64 21 0 22 -2 12 -15 -7 -8 -21 -15
-31 -15 -11 0 -19 -4 -19 -10 0 -16 47 -12 64 6 19 18 21 85 4 102 -17 17 -44
15 -62 -4z m49 -24 c0 -8 -8 -16 -17 -18 -13 -2 -18 3 -18 18 0 15 5 20 18 18
9 -2 17 -10 17 -18z"/>
<path d="M440 4976 c0 -28 4 -35 23 -38 33 -5 28 -33 -5 -33 -16 1 -28 -2 -28
-6 0 -12 38 -21 59 -14 42 13 33 75 -10 75 -11 0 -19 7 -19 15 0 9 9 15 25 15
14 0 25 5 25 10 0 6 -16 10 -35 10 -33 0 -35 -2 -35 -34z"/>
<path d="M723 5003 c-7 -2 -13 -9 -13 -15 0 -6 7 -8 15 -4 12 4 15 -4 15 -39
0 -33 -4 -45 -15 -45 -8 0 -15 -4 -15 -10 0 -5 18 -10 40 -10 22 0 40 5 40 10
0 6 -7 10 -15 10 -12 0 -15 13 -15 55 0 55 -5 61 -37 48z"/>
<path d="M822 4998 c-16 -16 -16 -90 0 -106 46 -46 101 36 68 99 -12 21 -50
25 -68 7z m48 -53 c0 -48 -23 -64 -35 -24 -9 29 2 69 20 69 11 0 15 -12 15
-45z"/>
<path d="M932 4998 c-16 -16 -16 -90 0 -106 46 -46 101 36 68 99 -12 21 -50
25 -68 7z m48 -53 c0 -48 -23 -64 -35 -24 -9 29 2 69 20 69 11 0 15 -12 15
-45z"/>
<path d="M3324 4978 c-6 -13 -7 -39 -3 -58 l6 -35 2 33 c0 18 6 32 14 32 8 0
7 4 -3 10 -13 9 -12 12 4 25 15 12 16 15 5 15 -9 0 -20 -10 -25 -22z"/>
<path d="M4103 4950 c0 -30 2 -43 4 -27 2 15 2 39 0 55 -2 15 -4 2 -4 -28z"/>
<path d="M4503 4945 c0 -33 2 -45 4 -27 2 18 2 45 0 60 -2 15 -4 0 -4 -33z"/>
<path d="M4738 4953 c-3 -47 -23 -69 -35 -37 -4 11 1 22 13 31 19 14 19 15 -1
11 -15 -2 -20 -11 -20 -33 0 -26 4 -30 28 -31 26 -1 27 1 27 52 0 66 -8 71
-12 7z"/>
<path d="M5203 4945 c0 -33 2 -45 4 -27 2 18 2 45 0 60 -2 15 -4 0 -4 -33z"/>
<path d="M5620 4977 c0 -18 -5 -23 -22 -23 -19 1 -23 -4 -23 -29 0 -26 4 -30
28 -31 26 -1 27 1 27 52 0 30 -2 54 -5 54 -3 0 -5 -10 -5 -23z m-5 -52 c0 -11
-8 -21 -17 -23 -14 -3 -18 3 -18 23 0 20 4 26 18 23 9 -2 17 -12 17 -23z"/>
<path d="M5730 4945 c0 -32 2 -56 4 -54 8 8 10 98 3 105 -4 4 -7 -19 -7 -51z"/>
<path d="M5812 4979 c-4 -11 -6 -37 -3 -57 5 -36 6 -36 9 -7 2 16 9 33 15 37
9 6 9 8 0 8 -7 0 -13 6 -13 14 0 8 6 17 13 19 9 4 9 6 -1 6 -7 1 -16 -8 -20
-20z"/>
<path d="M6173 4945 c0 -33 2 -45 4 -27 2 18 2 45 0 60 -2 15 -4 0 -4 -33z"/>
<path d="M2942 4938 l1 -53 6 45 6 45 18 -45 19 -45 14 25 c7 14 13 30 13 35
0 6 -6 -1 -13 -14 -13 -23 -13 -23 -29 18 -23 56 -37 52 -35 -11z"/>
<path d="M3027 4983 c-11 -10 -8 -25 2 -18 6 3 12 -14 14 -37 3 -41 4 -41 5
10 2 48 -5 62 -21 45z"/>
<path d="M3943 4940 c0 -30 2 -43 4 -27 2 15 2 39 0 55 -2 15 -4 2 -4 -28z"/>
<path d="M3508 4967 c-7 -21 6 -70 20 -73 7 -1 8 0 2 3 -12 6 -13 50 -1 55 5
2 3 8 -4 15 -10 9 -14 9 -17 0z"/>
<path d="M4288 4969 c-2 -6 -2 -26 0 -45 3 -24 9 -34 21 -33 10 0 11 2 4 6
-15 5 -18 50 -4 55 5 2 3 8 -4 15 -9 9 -15 9 -17 2z"/>
<path d="M6118 4969 c-2 -6 -2 -26 0 -45 3 -24 9 -34 21 -33 10 0 11 2 4 6
-15 5 -18 50 -4 55 5 2 3 8 -4 15 -9 9 -15 9 -17 2z"/>
<path d="M3105 4948 c19 -12 19 -12 -5 -18 -35 -8 -32 -35 3 -36 26 -1 28 2
25 30 -2 22 -9 32 -23 34 l-20 3 20 -13z m10 -38 c-3 -5 -13 -10 -21 -10 -8 0
-14 5 -14 10 0 6 9 10 21 10 11 0 17 -4 14 -10z"/>
<path d="M3151 4921 c1 -36 1 -36 8 -6 8 40 38 46 44 8 4 -28 4 -28 3 2 -1 26
-5 30 -28 31 -26 1 -28 -2 -27 -35z"/>
<path d="M3241 4928 c-1 -30 3 -38 17 -38 11 0 13 3 5 8 -6 4 -13 21 -16 37
-4 27 -4 27 -6 -7z"/>
<path d="M3282 4930 c0 -19 2 -27 5 -17 2 9 2 25 0 35 -3 9 -5 1 -5 -18z"/>
<path d="M3365 4950 c-3 -5 0 -7 9 -4 8 3 21 2 28 -2 9 -6 5 -10 -12 -14 -34
-8 -32 -35 3 -36 28 -1 35 15 21 50 -7 18 -39 22 -49 6z m40 -40 c-3 -5 -13
-10 -21 -10 -8 0 -14 5 -14 10 0 6 9 10 21 10 11 0 17 -4 14 -10z"/>
<path d="M3447 4953 c-4 -3 -7 -17 -7 -30 0 -26 26 -41 42 -25 8 8 5 9 -11 5
-18 -4 -21 -1 -21 22 0 22 4 26 20 22 11 -3 18 -1 14 4 -6 11 -28 12 -37 2z"/>
<path d="M3561 4940 c-1 -34 11 -49 37 -47 18 1 22 7 21 37 l-1 35 -7 -30 c-3
-17 -13 -30 -21 -30 -8 0 -18 13 -21 30 -6 27 -7 27 -8 5z"/>
<path d="M3654 4946 c-3 -8 -4 -25 -1 -38 3 -18 5 -16 6 9 0 17 7 34 14 36 9
4 9 6 -1 6 -7 1 -15 -5 -18 -13z"/>
<path d="M3703 4925 c0 -22 2 -30 4 -17 2 12 2 30 0 40 -3 9 -5 -1 -4 -23z"/>
<path d="M3741 4920 l1 -35 7 30 c3 17 13 30 21 30 8 0 18 -13 21 -30 6 -27 7
-27 8 -5 1 34 -11 49 -37 47 -18 -1 -22 -7 -21 -37z"/>
<path d="M3827 4953 c-4 -3 -7 -15 -7 -25 0 -27 40 -20 51 10 7 19 5 22 -15
22 -12 0 -26 -3 -29 -7z m33 -18 c0 -8 -7 -15 -15 -15 -8 0 -15 7 -15 15 0 8
7 15 15 15 8 0 15 -7 15 -15z"/>
<path d="M3971 4921 c1 -36 1 -36 8 -6 8 40 38 46 44 8 4 -28 4 -28 3 2 -1 26
-5 30 -28 31 -26 1 -28 -2 -27 -35z"/>
<path d="M4055 4941 c-8 -25 4 -51 24 -51 14 1 14 2 -1 11 -10 5 -18 16 -18
24 0 8 8 19 18 24 15 9 16 10 0 11 -9 0 -19 -8 -23 -19z"/>
<path d="M4143 4928 c2 -28 6 -33 30 -34 25 -1 27 2 26 35 -1 36 -1 36 -8 6
-9 -42 -38 -45 -45 -6 l-6 31 3 -32z"/>
<path d="M4224 4948 c-4 -6 0 -16 9 -23 22 -16 21 -22 0 -28 -14 -4 -12 -5 5
-6 16 -1 22 5 22 19 0 11 -7 20 -15 20 -21 0 -19 18 3 23 15 4 15 5 0 6 -9 0
-20 -4 -24 -11z"/>
<path d="M4341 4920 c1 -27 3 -29 6 -10 2 14 11 30 20 37 13 10 13 12 -6 10
-17 -1 -21 -7 -20 -37z"/>
<path d="M4396 4940 c4 -14 7 -37 8 -52 0 -15 4 -24 7 -20 10 11 39 92 34 92
-3 0 -10 -12 -16 -27 l-11 -28 -15 30 c-11 24 -13 25 -7 5z"/>
<path d="M4545 4950 c-3 -5 0 -7 9 -4 8 3 21 2 28 -3 9 -5 2 -10 -22 -14 l-35
-6 38 -2 c38 -1 46 6 25 27 -15 15 -35 16 -43 2z"/>
<path d="M4643 4954 c23 -7 22 -24 -2 -24 -24 0 -36 -29 -15 -37 8 -3 18 -3
21 1 4 3 1 6 -5 6 -7 0 -12 5 -12 10 0 17 28 11 34 -7 2 -10 4 -2 3 17 -2 27
-7 35 -22 37 -16 1 -16 1 -2 -3z"/>
<path d="M4785 4950 c-3 -5 0 -7 9 -4 8 3 21 2 28 -3 9 -5 2 -10 -22 -14 l-35
-6 38 -2 c38 -1 46 6 25 27 -15 15 -35 16 -43 2z"/>
<path d="M4861 4920 c1 -27 3 -29 6 -10 2 14 11 30 20 37 13 10 13 12 -6 10
-17 -1 -21 -7 -20 -37z"/>
<path d="M5073 4925 c0 -22 2 -30 4 -17 2 12 2 30 0 40 -3 9 -5 -1 -4 -23z"/>
<path d="M5125 4950 c-4 -6 -4 -14 -1 -17 3 -4 6 -1 6 5 0 7 9 12 20 12 15 0
20 -7 20 -25 0 -18 -5 -25 -19 -25 -11 0 -22 5 -24 10 -3 6 -4 5 -3 -2 2 -7
14 -13 27 -13 20 0 24 5 24 30 0 23 -5 31 -22 33 -11 2 -24 -2 -28 -8z"/>
<path d="M5244 4946 c-11 -28 1 -51 26 -53 22 -1 22 -1 3 4 -31 6 -29 23 3 23
20 0 25 4 20 16 -3 9 -6 18 -6 20 0 11 -41 2 -46 -10z m41 -6 c3 -5 -3 -10
-14 -10 -12 0 -21 5 -21 10 0 6 6 10 14 10 8 0 18 -4 21 -10z"/>
<path d="M5363 4925 c0 -22 2 -30 4 -17 2 12 2 30 0 40 -3 9 -5 -1 -4 -23z"/>
<path d="M5388 4953 c6 -3 13 -19 13 -36 l1 -32 7 30 c9 43 38 45 44 3 l5 -33
-2 35 c-1 34 -2 35 -41 36 -22 1 -34 -1 -27 -3z"/>
<path d="M5491 4946 c-17 -20 -4 -56 18 -56 28 0 47 28 34 48 -14 23 -37 26
-52 8z m47 -19 c4 -20 -25 -34 -40 -19 -15 15 -1 44 19 40 10 -2 19 -11 21
-21z"/>
<path d="M5661 4946 c-21 -25 -9 -51 24 -53 18 -1 22 1 10 4 -34 9 -41 23 -11
23 21 0 27 4 24 17 -4 23 -31 28 -47 9z m39 -6 c0 -5 -9 -10 -21 -10 -11 0
-17 5 -14 10 3 6 13 10 21 10 8 0 14 -4 14 -10z"/>
<path d="M5854 4946 c-11 -29 0 -51 26 -51 21 0 25 5 25 30 0 24 -5 31 -23 33
-13 2 -24 -3 -28 -12z m46 -21 c0 -18 -5 -25 -20 -25 -15 0 -20 7 -20 25 0 18
5 25 20 25 15 0 20 -7 20 -25z"/>
<path d="M5943 4925 c0 -22 2 -30 4 -17 2 12 2 30 0 40 -3 9 -5 -1 -4 -23z"/>
<path d="M6035 4950 c-4 -6 -4 -14 -1 -17 3 -4 6 -1 6 5 0 7 9 12 20 12 15 0
20 -7 20 -26 0 -23 -3 -26 -26 -21 -16 3 -22 1 -16 -5 20 -20 47 -4 47 27 0
23 -5 31 -22 33 -11 2 -24 -2 -28 -8z"/>
<path d="M6196 4953 c5 -5 12 -12 16 -18 4 -6 8 -2 8 8 0 9 -7 17 -17 17 -9 0
-12 -3 -7 -7z"/>
<path d="M6254 4946 c-11 -28 1 -51 26 -53 22 -1 22 -1 3 4 -31 6 -29 23 3 23
20 0 25 4 20 16 -3 9 -6 18 -6 20 0 11 -41 2 -46 -10z m41 -6 c3 -5 -3 -10
-14 -10 -12 0 -21 5 -21 10 0 6 6 10 14 10 8 0 18 -4 21 -10z"/>
<path d="M6331 4920 c1 -27 3 -29 6 -10 2 14 11 30 20 37 13 10 13 12 -6 10
-17 -1 -21 -7 -20 -37z"/>
<path d="M6384 4948 c-4 -6 0 -16 9 -23 22 -16 21 -22 0 -28 -14 -4 -12 -5 5
-6 16 -1 22 5 22 19 0 11 -7 20 -15 20 -21 0 -19 18 3 23 15 4 15 5 0 6 -9 0
-20 -4 -24 -11z"/>
<path d="M590 4930 c0 -5 11 -10 25 -10 14 0 25 5 25 10 0 6 -11 10 -25 10
-14 0 -25 -4 -25 -10z"/>
<path d="M4958 4933 c12 -2 32 -2 45 0 12 2 2 4 -23 4 -25 0 -35 -2 -22 -4z"/>
<path d="M4548 4898 c6 -6 18 -8 28 -6 14 3 12 5 -9 10 -19 3 -25 2 -19 -4z"/>
<path d="M4788 4898 c6 -6 18 -8 28 -6 14 3 12 5 -9 10 -19 3 -25 2 -19 -4z"/>
<path d="M3845 4890 c25 -6 27 -8 13 -14 -10 -5 -25 -5 -34 -2 -8 3 -12 2 -9
-4 9 -15 52 -12 58 4 8 19 -2 26 -32 25 -25 -1 -25 -2 4 -9z"/>
<path d="M7608 4835 c2 -14 6 -25 8 -25 2 0 4 11 4 25 0 14 -4 25 -9 25 -4 0
-6 -11 -3 -25z"/>
<path d="M3162 4789 c-4 -11 -6 -37 -3 -57 5 -36 6 -36 9 -7 2 16 9 33 15 37
9 6 9 8 0 8 -7 0 -13 6 -13 14 0 8 6 17 13 19 9 4 9 6 -1 6 -7 1 -16 -8 -20
-20z"/>
<path d="M3823 4793 c-4 -10 -11 -21 -17 -25 -7 -5 -7 -8 2 -8 7 0 12 -13 12
-32 0 -47 10 -28 12 23 0 24 6 47 12 51 8 5 7 8 -2 8 -7 0 -16 -8 -19 -17z"/>
<path d="M4450 4786 c0 -19 -4 -23 -19 -19 -13 3 -23 -2 -31 -19 -10 -21 -10
-21 3 -5 8 9 19 17 25 17 6 0 16 -8 21 -17 8 -14 10 -9 11 25 0 23 -2 42 -5
42 -3 0 -5 -11 -5 -24z"/>
<path d="M2941 4748 c1 -29 4 -43 6 -31 3 13 13 23 26 25 16 2 22 10 22 28 0
20 -6 26 -27 28 -28 3 -28 3 -27 -50z m44 22 c0 -8 -8 -16 -17 -18 -13 -2 -18
3 -18 18 0 15 5 20 18 18 9 -2 17 -10 17 -18z"/>
<path d="M5338 4777 c-7 -21 6 -70 20 -73 7 -1 8 0 2 3 -12 6 -13 50 -1 55 5
2 3 8 -4 15 -10 9 -14 9 -17 0z"/>
<path d="M3024 4756 c-11 -28 1 -51 26 -53 22 -1 22 -1 3 4 -31 6 -29 23 2 23
27 0 32 9 13 28 -16 16 -37 15 -44 -2z m41 -6 c3 -5 -3 -10 -14 -10 -12 0 -21
5 -21 10 0 6 6 10 14 10 8 0 18 -4 21 -10z"/>
<path d="M3101 4730 c1 -27 3 -29 6 -10 2 14 11 30 20 37 13 10 13 12 -6 10
-17 -1 -21 -7 -20 -37z"/>
<path d="M3205 4760 c-4 -6 -4 -14 -1 -17 3 -4 6 -1 6 5 0 7 9 12 20 12 15 0
20 -7 20 -25 0 -18 -5 -25 -19 -25 -11 0 -22 5 -24 10 -3 6 -4 5 -3 -2 2 -7
14 -13 27 -13 20 0 24 5 24 30 0 23 -5 31 -22 33 -11 2 -24 -2 -28 -8z"/>
<path d="M3281 4730 c1 -27 3 -29 6 -10 2 14 11 30 20 37 13 10 13 12 -6 10
-17 -1 -21 -7 -20 -37z"/>
<path d="M3341 4731 c1 -35 1 -35 8 -6 5 25 11 29 43 31 34 3 37 1 41 -29 4
-31 5 -31 3 3 -1 35 -1 35 -48 36 l-48 1 1 -36z"/>
<path d="M3493 4764 c23 -7 22 -24 -2 -24 -24 0 -36 -29 -15 -37 8 -3 18 -3
21 1 4 3 1 6 -5 6 -7 0 -12 5 -12 10 0 17 28 11 34 -7 2 -10 4 -2 3 17 -2 27
-7 35 -22 37 -16 1 -16 1 -2 -3z"/>
<path d="M3541 4731 c1 -36 1 -36 8 -6 8 40 38 46 44 8 4 -28 4 -28 3 2 -1 26
-5 30 -28 31 -26 1 -28 -2 -27 -35z"/>
<path d="M3630 4755 c-22 -27 17 -72 41 -48 6 6 2 9 -13 9 -17 -1 -23 5 -23
19 0 14 6 20 22 19 12 0 20 3 17 8 -8 13 -30 9 -44 -7z"/>
<path d="M3700 4755 c-18 -22 -1 -49 31 -52 19 -1 20 -1 4 4 -34 9 -41 23 -11
23 21 0 27 4 24 17 -4 24 -32 28 -48 8z m40 -5 c0 -5 -9 -10 -21 -10 -11 0
-17 5 -14 10 3 6 13 10 21 10 8 0 14 -4 14 -10z"/>
<path d="M3883 4764 c23 -7 22 -24 -2 -24 -24 0 -36 -29 -15 -37 8 -3 18 -3
21 1 4 3 1 6 -5 6 -7 0 -12 5 -12 10 0 17 28 11 34 -7 2 -10 4 -2 3 17 -2 27
-7 35 -22 37 -16 1 -16 1 -2 -3z"/>
<path d="M3930 4758 c0 -11 12 -10 30 2 12 7 10 9 -8 7 -12 0 -22 -5 -22 -9z"/>
<path d="M4030 4755 c-18 -22 -1 -49 31 -52 19 -1 20 -1 4 4 -34 9 -41 23 -11
23 21 0 27 4 24 17 -4 24 -32 28 -48 8z m40 -5 c0 -5 -9 -10 -21 -10 -11 0
-17 5 -14 10 3 6 13 10 21 10 8 0 14 -4 14 -10z"/>
<path d="M4100 4762 c0 -6 5 -14 11 -18 8 -4 8 -9 0 -17 -6 -6 -11 -16 -11
-21 0 -6 5 -3 11 7 10 18 11 18 25 0 7 -10 14 -13 14 -6 0 6 -5 15 -10 18 -7
4 -6 14 1 28 9 18 9 20 -2 10 -9 -9 -16 -10 -26 -2 -9 8 -13 8 -13 1z"/>
<path d="M4177 4763 c-4 -3 -7 -17 -7 -30 0 -26 26 -41 42 -25 8 8 5 9 -11 5
-18 -4 -21 -1 -21 22 0 22 4 26 20 22 11 -3 18 -1 14 4 -6 11 -28 12 -37 2z"/>
<path d="M4245 4760 c-3 -5 0 -7 9 -4 8 3 21 2 28 -3 9 -5 2 -10 -22 -14 l-35
-6 38 -2 c38 -1 46 6 25 27 -15 15 -35 16 -43 2z"/>
<path d="M4325 4760 c-3 -5 0 -7 9 -4 8 3 21 2 28 -3 9 -5 2 -10 -22 -14 l-35
-6 38 -2 c38 -1 46 6 25 27 -15 15 -35 16 -43 2z"/>
<path d="M4484 4758 c-4 -6 0 -16 9 -23 22 -16 21 -22 0 -28 -16 -4 -16 -5 -1
-6 24 -2 34 20 15 34 -22 16 -21 22 1 28 15 4 15 5 0 6 -9 0 -20 -4 -24 -11z"/>
<path d="M4581 4730 c1 -27 3 -29 6 -10 2 14 11 30 20 37 13 10 13 12 -6 10
-17 -1 -21 -7 -20 -37z"/>
<path d="M4641 4756 c-21 -25 -9 -51 24 -53 18 -1 22 1 10 4 -34 9 -41 23 -11
23 21 0 27 4 24 17 -4 23 -31 28 -47 9z m39 -6 c0 -5 -9 -10 -21 -10 -11 0
-17 5 -14 10 3 6 13 10 21 10 8 0 14 -4 14 -10z"/>
<path d="M4714 4756 c-10 -26 1 -51 21 -51 11 0 23 -9 27 -20 3 -11 6 4 6 35
0 40 -2 47 -7 26 -7 -34 -28 -45 -38 -20 -4 11 0 22 12 30 17 13 17 14 2 14
-10 0 -20 -6 -23 -14z"/>
<path d="M4803 4738 c2 -28 6 -33 30 -34 25 -1 27 2 26 35 -1 36 -1 36 -8 6
-9 -42 -38 -45 -45 -6 l-6 31 3 -32z"/>
<path d="M4883 4735 c0 -22 2 -30 4 -17 2 12 2 30 0 40 -3 9 -5 -1 -4 -23z"/>
<path d="M4921 4730 c1 -27 3 -29 6 -10 2 14 11 30 20 37 13 10 13 12 -6 10
-17 -1 -21 -7 -20 -37z"/>
<path d="M4974 4756 c-11 -28 1 -51 26 -53 22 -1 22 -1 3 4 -31 6 -29 23 3 23
20 0 25 4 20 16 -3 9 -6 18 -6 20 0 11 -41 2 -46 -10z m41 -6 c3 -5 -3 -10
-14 -10 -12 0 -21 5 -21 10 0 6 6 10 14 10 8 0 18 -4 21 -10z"/>
<path d="M5051 4731 c1 -36 1 -36 8 -6 3 17 13 30 21 30 8 0 18 -13 22 -30 6
-29 6 -29 5 5 -2 31 -5 35 -29 36 -26 1 -28 -2 -27 -35z"/>
<path d="M5127 4763 c6 -4 13 -22 16 -38 4 -27 5 -27 3 4 0 21 -7 36 -16 38
-10 3 -11 2 -3 -4z"/>
<path d="M5184 4756 c-11 -28 1 -51 26 -53 22 -1 22 -1 3 4 -31 6 -29 23 2 23
27 0 32 9 13 28 -16 16 -37 15 -44 -2z m41 -6 c3 -5 -3 -10 -14 -10 -12 0 -21
5 -21 10 0 6 6 10 14 10 8 0 18 -4 21 -10z"/>
<path d="M5261 4730 l1 -35 7 30 c3 17 13 30 21 30 8 0 18 -13 21 -30 6 -27 7
-27 8 -5 1 34 -11 49 -37 47 -18 -1 -22 -7 -21 -37z"/>
<path d="M5394 4758 c-4 -6 1 -17 11 -25 22 -15 39 -17 30 -3 -3 6 -13 10 -21
10 -20 0 -18 18 4 23 15 4 15 5 0 6 -9 0 -20 -4 -24 -11z"/>
<path d="M9325 4750 c3 -5 8 -10 11 -10 2 0 4 5 4 10 0 6 -5 10 -11 10 -5 0
-7 -4 -4 -10z"/>
<path d="M7641 4734 c0 -11 3 -14 6 -6 3 7 2 16 -1 19 -3 4 -6 -2 -5 -13z"/>
<path d="M3932 4720 c0 -14 2 -19 5 -12 2 6 2 18 0 25 -3 6 -5 1 -5 -13z"/>
<path d="M4248 4708 c6 -6 18 -8 28 -6 14 3 12 5 -9 10 -19 3 -25 2 -19 -4z"/>
<path d="M4328 4708 c6 -6 18 -8 28 -6 14 3 12 5 -9 10 -19 3 -25 2 -19 -4z"/>
<path d="M4406 4708 c6 -9 54 -6 54 3 0 3 -13 6 -29 5 -16 -1 -27 -4 -25 -8z"/>
<path d="M5398 4703 c6 -2 18 -2 25 0 6 3 1 5 -13 5 -14 0 -19 -2 -12 -5z"/>
<path d="M3020 4601 c0 -11 -6 -22 -12 -24 -10 -4 -10 -6 0 -6 7 -1 12 -14 12
-33 0 -47 10 -28 12 23 0 24 6 47 12 51 7 5 4 8 -6 8 -11 0 -18 -8 -18 -19z"/>
<path d="M3070 4610 c0 -5 7 -7 15 -4 8 4 15 8 15 10 0 2 -7 4 -15 4 -8 0 -15
-4 -15 -10z"/>
<path d="M3493 4565 c0 -33 2 -45 4 -27 2 18 2 45 0 60 -2 15 -4 0 -4 -33z"/>
<path d="M3783 4565 c0 -33 2 -45 4 -27 2 18 2 45 0 60 -2 15 -4 0 -4 -33z"/>
<path d="M3822 4599 c-4 -11 -6 -37 -3 -57 5 -36 6 -36 9 -7 2 16 9 33 15 37
9 6 9 8 0 8 -7 0 -13 6 -13 14 0 8 6 17 13 19 9 4 9 6 -1 6 -7 1 -16 -8 -20
-20z"/>
<path d="M2940 4560 c0 -48 1 -50 28 -49 23 2 24 2 5 6 -14 3 -23 12 -23 23 0
11 9 20 23 23 l22 4 -22 2 c-13 0 -23 7 -23 15 0 8 10 17 23 19 19 4 18 4 -5
6 -27 1 -28 -1 -28 -49z"/>
<path d="M3305 4600 c-3 -5 -1 -10 4 -10 6 0 11 5 11 10 0 6 -2 10 -4 10 -3 0
-8 -4 -11 -10z"/>
<path d="M3057 4582 c-2 -4 0 -23 4 -42 l6 -35 2 32 c0 17 6 33 13 35 8 3 6 7
-5 11 -9 3 -18 3 -20 -1z"/>
<path d="M1718 4512 c-182 -62 -198 -69 -198 -91 0 -18 4 -22 18 -16 9 3 102
35 206 71 l190 64 195 -65 c108 -36 199 -65 204 -65 4 0 7 9 7 19 0 16 -34 30
-198 85 -109 36 -205 66 -213 65 -8 0 -103 -31 -211 -67z"/>
<path d="M3104 4566 c-11 -30 0 -51 29 -52 25 -1 25 -1 2 3 -33 6 -32 23 1 23
19 0 25 5 22 18 -4 22 -46 29 -54 8z m46 -6 c0 -5 -9 -10 -21 -10 -11 0 -17 5
-14 10 3 6 13 10 21 10 8 0 14 -4 14 -10z"/>
<path d="M3184 4566 c-9 -23 0 -51 16 -52 9 0 10 1 3 3 -7 3 -13 16 -13 30 0
20 4 24 20 20 11 -3 18 -1 14 4 -8 14 -34 11 -40 -5z"/>
<path d="M3253 4573 c9 -2 23 -2 30 0 6 3 -1 5 -18 5 -16 0 -22 -2 -12 -5z"/>
<path d="M3313 4545 c0 -22 2 -30 4 -17 2 12 2 30 0 40 -3 9 -5 -1 -4 -23z"/>
<path d="M3343 4552 c14 -35 29 -43 35 -20 2 9 0 8 -7 -2 -9 -13 -11 -13 -11
1 0 8 -7 24 -15 35 -13 17 -14 16 -2 -14z"/>
<path d="M3385 4569 c-4 -6 -5 -12 -2 -15 2 -3 7 2 10 11 7 17 1 20 -8 4z"/>
<path d="M3414 4566 c-11 -30 0 -51 29 -52 25 -1 25 -1 2 3 -33 6 -32 23 1 23
19 0 25 5 22 18 -4 22 -46 29 -54 8z m46 -6 c0 -5 -9 -10 -20 -10 -11 0 -20 5
-20 10 0 6 9 10 20 10 11 0 20 -4 20 -10z"/>
<path d="M3520 4579 c0 -4 6 -22 14 -40 7 -19 11 -41 9 -49 -4 -13 -3 -13 5 0
14 21 26 69 14 51 -8 -11 -13 -8 -26 15 -8 16 -15 26 -16 23z"/>
<path d="M3635 4570 c-8 -14 3 -30 21 -30 23 0 16 -20 -8 -21 -19 -1 -20 -2
-4 -6 10 -3 23 0 30 7 8 8 5 16 -13 29 -23 18 -23 19 -5 24 15 4 16 5 2 6 -9
0 -20 -3 -23 -9z"/>
<path d="M3704 4566 c-11 -28 1 -51 26 -53 22 -1 22 -1 3 4 -31 6 -29 23 3 23
20 0 25 4 20 16 -3 9 -6 18 -6 20 0 11 -41 2 -46 -10z m41 -6 c3 -5 -3 -10
-14 -10 -12 0 -21 5 -21 10 0 6 6 10 14 10 8 0 18 -4 21 -10z"/>
<path d="M3917 4573 c-4 -3 -7 -26 -7 -50 0 -42 1 -44 28 -41 34 4 36 30 2 38
-24 6 -24 6 -4 12 12 3 23 15 27 27 4 17 1 21 -17 21 -13 0 -26 -3 -29 -7z
m33 -18 c0 -8 -7 -15 -15 -15 -8 0 -15 7 -15 15 0 8 7 15 15 15 8 0 15 -7 15
-15z m10 -55 c0 -5 -9 -10 -20 -10 -11 0 -20 5 -20 10 0 6 9 10 20 10 11 0 20
-4 20 -10z"/>
<path d="M3990 4565 c-18 -22 -1 -50 31 -50 20 0 24 5 24 30 0 23 -5 31 -21
33 -11 2 -27 -4 -34 -13z m48 -18 c4 -20 -25 -34 -40 -19 -15 15 -1 44 19 40
10 -2 19 -11 21 -21z"/>
<path d="M4073 4552 c14 -35 29 -43 35 -20 2 9 0 8 -7 -2 -9 -13 -11 -13 -11
1 0 8 -7 24 -15 35 -13 17 -14 16 -2 -14z"/>
<path d="M4115 4569 c-4 -6 -5 -12 -2 -15 2 -3 7 2 10 11 7 17 1 20 -8 4z"/>
<path d="M4144 4566 c-11 -30 0 -51 29 -52 25 -1 25 -1 2 3 -33 6 -32 23 1 23
19 0 25 5 22 18 -4 22 -46 29 -54 8z m46 -6 c0 -5 -9 -10 -20 -10 -11 0 -20 5
-20 10 0 6 9 10 20 10 11 0 20 -4 20 -10z"/>
<path d="M4221 4540 c1 -27 3 -29 6 -10 2 14 11 30 20 37 13 10 13 12 -6 10
-17 -1 -21 -7 -20 -37z"/>
<path d="M4283 4545 c0 -22 2 -30 4 -17 2 12 2 30 0 40 -3 9 -5 -1 -4 -23z"/>
<path d="M4306 4573 c5 -5 12 -12 16 -18 4 -6 8 -2 8 8 0 9 -7 17 -17 17 -9 0
-12 -3 -7 -7z"/>
<path d="M4360 4565 c0 -9 7 -18 15 -21 20 -8 19 -21 -2 -27 -16 -4 -16 -5 -1
-6 24 -2 34 20 15 34 -22 16 -21 22 1 28 13 4 11 5 -5 6 -15 1 -23 -5 -23 -14z"/>
<path d="M3868 4543 c7 -3 16 -2 19 1 4 3 -2 6 -13 5 -11 0 -14 -3 -6 -6z"/>
<path d="M3260 4520 c0 -6 7 -10 15 -10 8 0 15 2 15 4 0 2 -7 6 -15 10 -8 3
-15 1 -15 -4z"/>
<path d="M2856 4239 c-68 -54 7 -160 85 -119 32 18 22 31 -19 24 -29 -4 -43
-2 -55 11 -38 37 -5 80 55 71 41 -7 51 6 19 24 -30 15 -56 12 -85 -11z"/>
<path d="M3034 4249 c-81 -41 -23 -160 63 -132 49 16 66 91 29 123 -20 16 -69
21 -92 9z m74 -31 c7 -7 12 -21 12 -33 0 -28 -19 -45 -50 -45 -31 0 -50 17
-50 45 0 28 19 45 50 45 14 0 31 -5 38 -12z"/>
<path d="M3180 4185 c0 -59 3 -75 14 -75 11 0 16 14 18 48 l3 47 30 -47 c43
-69 55 -63 55 27 0 59 -3 75 -14 75 -11 0 -16 -14 -18 -47 l-3 -48 -30 47
c-43 69 -55 63 -55 -27z"/>
<path d="M3346 4244 c-19 -18 -8 -47 24 -64 22 -12 27 -40 7 -40 -7 0 -18 5
-24 11 -8 8 -13 7 -18 -2 -8 -13 19 -39 41 -39 15 0 44 27 44 42 0 5 -13 22
-30 36 -37 32 -38 46 -5 38 27 -7 32 3 13 22 -16 16 -33 15 -52 -4z"/>
<path d="M3450 4185 c0 -43 4 -75 10 -75 6 0 10 32 10 75 0 43 -4 75 -10 75
-6 0 -10 -32 -10 -75z"/>
<path d="M3523 4253 c-22 -8 -15 -51 12 -69 36 -24 33 -47 -5 -39 -35 8 -41
-9 -9 -26 28 -15 69 3 69 30 0 11 -13 29 -30 41 -37 26 -39 45 -5 36 27 -7 32
3 13 22 -13 13 -24 14 -45 5z"/>
<path d="M3610 4245 c0 -8 7 -15 15 -15 12 0 15 -13 15 -60 0 -33 4 -60 10
-60 6 0 10 27 10 60 0 47 3 60 15 60 8 0 15 7 15 15 0 11 -11 15 -40 15 -29 0
-40 -4 -40 -15z"/>
<path d="M3710 4185 l0 -75 40 0 c29 0 40 4 40 15 0 9 -9 15 -25 15 -18 0 -25
5 -25 20 0 15 7 20 25 20 16 0 25 6 25 15 0 9 -9 15 -25 15 -14 0 -25 5 -25
10 0 6 11 10 25 10 16 0 25 6 25 15 0 11 -11 15 -40 15 l-40 0 0 -75z"/>
<path d="M3820 4185 c0 -60 3 -75 15 -75 11 0 15 12 15 52 l0 53 33 -49 c48
-74 57 -71 57 18 0 44 -4 76 -10 76 -5 0 -10 -20 -10 -45 0 -25 -3 -45 -7 -45
-5 0 -21 20 -36 45 -43 68 -57 60 -57 -30z"/>
<path d="M3970 4245 c0 -8 7 -15 15 -15 12 0 15 -13 15 -60 0 -33 4 -60 10
-60 6 0 10 27 10 60 0 47 3 60 15 60 8 0 15 7 15 15 0 11 -11 15 -40 15 -29 0
-40 -4 -40 -15z"/>
<path d="M4070 4185 l0 -75 35 0 c24 0 35 5 35 15 0 8 -9 15 -20 15 -18 0 -20
7 -20 60 0 47 -3 60 -15 60 -12 0 -15 -15 -15 -75z"/>
<path d="M4160 4255 c0 -3 9 -23 20 -45 11 -22 20 -53 20 -70 0 -20 5 -30 15
-30 11 0 15 11 15 39 0 23 9 56 21 75 18 30 19 36 5 36 -8 0 -22 -12 -30 -27
l-14 -28 -13 28 c-10 23 -39 39 -39 22z"/>
<path d="M4360 4185 l0 -75 40 0 c29 0 40 4 40 15 0 10 -10 15 -30 15 -23 0
-30 4 -30 20 0 16 7 20 30 20 20 0 30 5 30 15 0 10 -10 15 -30 15 -16 0 -30 5
-30 10 0 6 14 10 30 10 20 0 30 5 30 15 0 11 -11 15 -40 15 l-40 0 0 -75z"/>
<path d="M4484 4224 l25 -37 -25 -36 c-29 -43 -11 -58 19 -17 l20 28 23 -29
c30 -38 42 -23 14 21 l-22 36 21 29 c25 34 26 41 8 41 -8 0 -20 -12 -27 -26
l-14 -25 -19 25 c-10 14 -25 26 -33 26 -11 0 -8 -9 10 -36z"/>
<path d="M4636 4239 c-68 -54 7 -160 85 -119 32 18 22 31 -19 24 -29 -4 -43
-2 -55 11 -38 37 -5 80 55 71 41 -7 51 6 19 24 -30 15 -56 12 -85 -11z"/>
<path d="M4780 4185 l0 -75 40 0 c29 0 40 4 40 15 0 9 -9 15 -25 15 -18 0 -25
5 -25 20 0 15 7 20 25 20 16 0 25 6 25 15 0 9 -9 15 -25 15 -14 0 -25 5 -25
10 0 6 11 10 25 10 16 0 25 6 25 15 0 11 -11 15 -40 15 l-40 0 0 -75z"/>
<path d="M4890 4185 l0 -75 40 0 c29 0 40 4 40 15 0 9 -9 15 -25 15 -18 0 -25
5 -25 20 0 15 7 20 25 20 16 0 25 6 25 15 0 9 -9 15 -25 15 -14 0 -25 5 -25
10 0 6 11 10 25 10 16 0 25 6 25 15 0 11 -11 15 -40 15 l-40 0 0 -75z"/>
<path d="M5002 4188 l3 -73 44 1 c30 1 48 7 58 19 37 51 -6 125 -72 125 l-36
0 3 -72z m76 33 c8 -5 12 -22 10 -42 -2 -29 -7 -34 -30 -37 -27 -3 -28 -2 -28
42 0 47 15 59 48 37z"/>
<path d="M5162 4248 c-18 -18 -15 -32 18 -63 33 -32 30 -50 -7 -40 -17 4 -24
2 -21 -6 8 -23 37 -35 56 -23 29 18 26 49 -8 77 -29 25 -28 43 3 31 23 -8 30
14 8 25 -25 14 -34 14 -49 -1z"/>
<path d="M5330 4203 c-6 -32 -12 -66 -14 -75 -2 -10 2 -18 9 -18 7 0 17 20 22
48 l9 47 15 -45 c9 -25 22 -45 29 -45 7 0 20 20 29 45 l15 45 9 -47 c5 -28 15
-48 22 -48 7 0 11 8 9 18 -2 9 -8 43 -14 75 -14 72 -34 75 -50 7 -7 -27 -16
-50 -20 -50 -4 0 -13 23 -20 50 -16 68 -36 65 -50 -7z"/>
<path d="M5520 4185 c0 -43 4 -75 10 -75 6 0 10 32 10 75 0 43 -4 75 -10 75
-6 0 -10 -32 -10 -75z"/>
<path d="M5580 4185 c0 -43 4 -75 10 -75 6 0 10 20 10 45 0 25 3 45 8 45 4 0
20 -20 35 -45 43 -68 57 -60 57 30 0 59 -3 75 -14 75 -11 0 -16 -14 -18 -47
l-3 -48 -30 47 c-43 69 -55 63 -55 -27z"/>
<path d="M5731 4185 c1 -55 5 -75 15 -75 11 0 14 19 14 75 0 61 -3 75 -16 75
-12 0 -15 -13 -13 -75z"/>
<path d="M5807 4238 c-3 -13 -9 -47 -13 -75 -8 -67 12 -73 22 -8 7 52 11 52
29 -2 17 -50 35 -48 54 7 l15 45 9 -47 c5 -28 15 -48 22 -48 7 0 11 8 9 18 -2
9 -8 43 -14 75 -14 72 -34 75 -50 7 -14 -58 -26 -57 -41 6 -12 47 -33 58 -42
22z"/>
<path d="M5992 4193 c3 -64 4 -68 32 -78 24 -8 31 -6 47 14 24 30 28 131 4
131 -10 0 -15 -15 -17 -57 -3 -50 -6 -58 -23 -58 -17 0 -20 8 -23 58 -2 31 -7
57 -13 57 -6 0 -9 -27 -7 -67z"/>
<path d="M6137 4253 c-2 -4 -8 -30 -11 -58 -4 -27 -9 -58 -12 -67 -3 -11 0
-18 9 -18 8 0 17 18 23 48 l9 47 16 -44 c20 -58 35 -62 50 -12 7 23 15 41 19
41 4 0 10 -18 14 -40 3 -22 11 -40 16 -40 13 0 12 9 -1 87 -12 66 -32 84 -43
38 -3 -13 -11 -37 -17 -52 l-11 -28 -17 49 c-16 47 -34 67 -44 49z"/>
<path d="M2962 3988 c-18 -18 -15 -32 18 -63 33 -32 30 -50 -7 -40 -17 4 -24
2 -21 -6 8 -23 37 -35 56 -23 29 19 26 50 -7 75 -37 27 -40 43 -7 35 31 -8 43
9 17 23 -25 14 -34 14 -49 -1z"/>
<path d="M3050 3985 c0 -8 7 -15 15 -15 12 0 15 -13 15 -60 0 -33 4 -60 10
-60 6 0 10 27 10 60 0 47 3 60 15 60 8 0 15 7 15 15 0 11 -11 15 -40 15 -29 0
-40 -4 -40 -15z"/>
<path d="M3175 3929 c-26 -68 -27 -102 -1 -66 16 21 74 23 82 2 4 -8 12 -15
19 -15 10 0 5 21 -17 75 -17 41 -36 75 -43 75 -6 0 -24 -32 -40 -71z m49 -17
c-22 -5 -27 3 -19 29 l7 22 14 -24 c11 -20 10 -25 -2 -27z"/>
<path d="M3310 3925 c0 -60 3 -75 15 -75 11 0 15 12 15 52 l0 53 35 -53 c20
-28 40 -52 45 -52 6 0 10 33 10 75 0 43 -4 75 -10 75 -5 0 -10 -20 -10 -45 0
-25 -3 -45 -7 -45 -5 0 -21 20 -36 45 -43 68 -57 60 -57 -30z"/>
<path d="M3470 3925 l0 -75 38 0 c50 0 71 17 78 62 8 49 -28 88 -81 88 l-35 0
0 -75z m78 36 c8 -5 12 -22 10 -42 -2 -29 -7 -34 -30 -37 -27 -3 -28 -2 -28
42 0 47 15 59 48 37z"/>
<path d="M3659 3973 c-46 -120 -47 -123 -34 -123 7 0 15 7 19 15 8 21 66 19
82 -2 26 -36 25 -3 -2 66 -30 76 -48 88 -65 44z m38 -59 c-3 -3 -12 -4 -20 -2
-11 2 -12 9 -5 28 l10 25 11 -23 c5 -12 8 -25 4 -28z"/>
<path d="M3787 3993 c-4 -3 -7 -37 -7 -75 0 -54 3 -68 15 -68 10 0 15 10 15
33 l0 32 20 -32 c11 -18 24 -33 30 -33 13 0 13 3 -2 35 -9 19 -9 28 0 37 18
18 14 56 -7 68 -22 11 -54 13 -64 3z m53 -38 c0 -8 -7 -15 -15 -15 -8 0 -15 7
-15 15 0 8 7 15 15 15 8 0 15 -7 15 -15z"/>
<path d="M3900 3924 l0 -77 47 6 c29 3 52 12 60 23 37 50 -6 124 -72 124 l-35
0 0 -76z m78 37 c8 -5 12 -22 10 -42 -2 -29 -7 -34 -30 -37 -27 -3 -28 -2 -28
42 0 47 15 59 48 37z"/>
<path d="M4062 3988 c-18 -18 -15 -32 18 -63 35 -33 30 -49 -13 -39 l-32 6 19
-21 c21 -23 46 -27 64 -9 20 20 14 45 -18 71 -36 31 -38 41 -6 33 31 -8 43 9
17 23 -25 14 -34 14 -49 -1z"/>
<path d="M393 3924 c-16 -7 -17 -36 -1 -52 9 -9 9 -12 -1 -12 -8 0 -11 -10 -9
-27 2 -23 9 -29 34 -31 36 -4 60 19 48 45 -4 10 -8 32 -8 48 -1 25 -6 30 -26
32 -14 1 -31 -1 -37 -3z m42 -23 c7 -12 -12 -24 -25 -16 -11 7 -4 25 10 25 5
0 11 -4 15 -9z m5 -66 c0 -8 -9 -15 -20 -15 -11 0 -20 7 -20 15 0 8 9 15 20
15 11 0 20 -7 20 -15z"/>
<path d="M490 3895 c0 -30 3 -35 24 -35 29 0 38 -10 26 -29 -5 -8 -17 -12 -30
-8 -14 3 -20 1 -17 -6 5 -17 45 -21 63 -7 7 7 14 23 14 36 0 19 -7 26 -30 31
-37 7 -40 33 -5 33 14 0 25 5 25 10 0 6 -16 10 -35 10 -33 0 -35 -2 -35 -35z"/>
<path d="M772 3921 c-8 -5 -12 -21 -10 -37 2 -24 7 -29 31 -29 37 1 32 -29 -6
-33 -31 -4 -37 -22 -6 -22 44 0 59 18 59 69 0 35 -4 51 -16 55 -21 8 -36 7
-52 -3z m46 -34 c2 -12 -3 -17 -17 -17 -12 0 -21 6 -21 13 0 31 32 34 38 4z"/>
<path d="M883 3890 c-30 -51 -29 -60 7 -60 20 0 30 -5 30 -15 0 -8 5 -15 10
-15 6 0 10 6 10 14 0 8 6 17 13 20 10 5 10 7 0 12 -7 3 -13 23 -13 45 0 53
-27 53 -57 -1z m37 -15 c0 -18 -5 -25 -20 -25 -20 0 -20 1 -4 25 9 14 18 25
20 25 2 0 4 -11 4 -25z"/>
<path d="M640 3850 c0 -5 11 -10 25 -10 14 0 25 5 25 10 0 6 -11 10 -25 10
-14 0 -25 -4 -25 -10z"/>
<path d="M3220 3747 c0 -18 -5 -23 -22 -23 -19 1 -23 -4 -23 -29 0 -26 4 -30
28 -31 26 -1 27 1 27 52 0 30 -2 54 -5 54 -3 0 -5 -10 -5 -23z m-5 -52 c0 -11
-8 -21 -17 -23 -14 -3 -18 3 -18 23 0 20 4 26 18 23 9 -2 17 -12 17 -23z"/>
<path d="M3643 3715 c0 -33 2 -45 4 -27 2 18 2 45 0 60 -2 15 -4 0 -4 -33z"/>
<path d="M4700 3747 c0 -18 -5 -23 -22 -23 -19 1 -23 -4 -23 -29 0 -26 4 -30
28 -31 26 -1 27 1 27 52 0 30 -2 54 -5 54 -3 0 -5 -10 -5 -23z m-5 -53 c0 -10
-8 -20 -17 -22 -18 -3 -26 27 -11 42 12 11 28 0 28 -20z"/>
<path d="M4842 3749 c-4 -11 -6 -37 -3 -57 5 -36 6 -36 9 -7 2 16 9 33 15 37
9 6 9 8 0 8 -7 0 -13 6 -13 14 0 8 6 17 13 19 9 4 9 6 -1 6 -7 1 -16 -8 -20
-20z"/>
<path d="M5943 3715 c0 -33 2 -45 4 -27 2 18 2 45 0 60 -2 15 -4 0 -4 -33z"/>
<path d="M5997 3723 c-9 -25 -16 -48 -14 -50 2 -2 12 17 22 42 9 26 15 48 13
50 -2 2 -12 -17 -21 -42z"/>
<path d="M2952 3713 c-2 -52 -1 -53 26 -52 22 1 23 2 5 6 -18 4 -23 12 -26 51
l-3 47 -2 -52z"/>
<path d="M5441 3704 c-12 -31 -20 -59 -18 -61 2 -2 14 22 26 53 12 31 20 59
18 61 -2 2 -14 -22 -26 -53z"/>
<path d="M3588 3739 c-2 -6 -2 -26 0 -45 3 -24 9 -34 21 -33 10 0 11 2 4 6
-15 5 -18 50 -4 55 5 2 3 8 -4 15 -9 9 -15 9 -17 2z"/>
<path d="M4128 3739 c-2 -6 -2 -26 0 -45 3 -24 9 -34 21 -33 10 0 11 2 4 6
-15 5 -18 50 -4 55 5 2 3 8 -4 15 -9 9 -15 9 -17 2z"/>
<path d="M6698 3739 c-2 -6 -2 -26 0 -45 3 -24 9 -34 21 -33 10 0 11 2 4 6
-15 5 -18 50 -4 55 5 2 3 8 -4 15 -9 9 -15 9 -17 2z"/>
<path d="M3020 3715 c-18 -22 -1 -49 31 -52 19 -1 20 -1 4 4 -34 9 -41 23 -11
23 21 0 27 4 24 17 -4 24 -32 28 -48 8z m40 -5 c0 -5 -9 -10 -21 -10 -11 0
-17 5 -14 10 3 6 13 10 21 10 8 0 14 -4 14 -10z"/>
<path d="M3125 3718 c19 -12 19 -12 -5 -18 -35 -8 -32 -35 3 -36 26 -1 28 2
25 30 -2 22 -9 32 -23 34 l-20 3 20 -13z m10 -38 c-3 -5 -13 -10 -21 -10 -8 0
-14 5 -14 10 0 6 9 10 21 10 11 0 17 -4 14 -10z"/>
<path d="M3260 3715 c-18 -22 -1 -49 31 -52 19 -1 20 -1 4 4 -34 9 -41 23 -11
23 21 0 27 4 24 17 -4 24 -32 28 -48 8z m40 -5 c0 -5 -9 -10 -21 -10 -11 0
-17 5 -14 10 3 6 13 10 21 10 8 0 14 -4 14 -10z"/>
<path d="M3344 3716 c-3 -8 -4 -25 -1 -38 3 -18 5 -16 6 9 0 17 7 34 14 36 9
4 9 6 -1 6 -7 1 -15 -5 -18 -13z"/>
<path d="M3433 3695 c0 -22 2 -30 4 -17 2 12 2 30 0 40 -3 9 -5 -1 -4 -23z"/>
<path d="M3461 3691 c1 -36 1 -36 8 -6 8 40 38 46 44 8 4 -28 4 -28 3 2 -1 26
-5 30 -28 31 -26 1 -28 -2 -27 -35z"/>
<path d="M3666 3723 c5 -5 12 -12 16 -18 4 -6 8 -2 8 8 0 9 -7 17 -17 17 -9 0
-12 -3 -7 -7z"/>
<path d="M3724 3716 c-11 -28 1 -51 26 -53 22 -1 22 -1 3 4 -31 6 -29 23 3 23
20 0 25 4 20 16 -3 9 -6 18 -6 20 0 11 -41 2 -46 -10z m41 -6 c3 -5 -3 -10
-14 -10 -12 0 -21 5 -21 10 0 6 6 10 14 10 8 0 18 -4 21 -10z"/>
<path d="M3835 3720 c-8 -14 3 -30 21 -30 23 0 16 -20 -8 -21 -19 -1 -20 -2
-4 -6 10 -3 23 0 30 7 8 8 5 16 -13 29 -23 18 -23 19 -5 24 15 4 16 5 2 6 -9
0 -20 -3 -23 -9z"/>
<path d="M3901 3676 c1 -31 4 -43 7 -31 4 11 16 20 27 20 16 0 20 7 20 30 0
26 -4 30 -27 31 -27 1 -28 -1 -27 -50z m49 19 c0 -25 -23 -35 -35 -15 -10 16
2 40 20 40 9 0 15 -9 15 -25z"/>
<path d="M3990 3715 c-18 -22 -8 -50 19 -50 32 0 49 28 32 49 -17 20 -35 20
-51 1z m48 -18 c4 -20 -25 -34 -40 -19 -15 15 -1 44 19 40 10 -2 19 -11 21
-21z"/>
<path d="M4071 3690 c1 -27 3 -29 6 -10 2 14 11 30 20 37 13 10 13 12 -6 10
-17 -1 -21 -7 -20 -37z"/>
<path d="M4183 3695 c0 -22 2 -30 4 -17 2 12 2 30 0 40 -3 9 -5 -1 -4 -23z"/>
<path d="M4211 3691 c1 -36 1 -36 8 -6 8 40 38 46 44 8 4 -28 4 -28 3 2 -1 26
-5 30 -28 31 -26 1 -28 -2 -27 -35z"/>
<path d="M4299 3723 c-1 -5 -2 -26 -2 -48 -2 -36 0 -40 23 -40 37 0 40 35 3
36 -23 1 -24 2 -5 6 12 2 22 7 23 11 0 4 2 15 4 25 2 12 -3 17 -21 17 -13 0
-24 -3 -25 -7z m36 -12 c7 -12 -12 -24 -25 -16 -11 7 -4 25 10 25 5 0 11 -4
15 -9z m5 -61 c0 -5 -9 -10 -20 -10 -11 0 -20 5 -20 10 0 6 9 10 20 10 11 0
20 -4 20 -10z"/>
<path d="M4417 3723 c-4 -3 -7 -15 -7 -25 0 -27 40 -20 51 10 7 19 5 22 -15
22 -12 0 -26 -3 -29 -7z m33 -18 c0 -8 -7 -15 -15 -15 -8 0 -15 7 -15 15 0 8
7 15 15 15 8 0 15 -7 15 -15z"/>
<path d="M4484 3716 c-10 -25 0 -51 20 -54 27 -6 48 25 35 49 -12 22 -47 25
-55 5z m49 -8 c6 -19 -3 -38 -18 -38 -18 0 -28 17 -21 35 7 18 33 20 39 3z"/>
<path d="M4570 3715 c-18 -22 -1 -50 31 -50 20 0 24 5 24 30 0 23 -5 31 -21
33 -11 2 -27 -4 -34 -13z m48 -18 c4 -20 -25 -34 -40 -19 -15 15 -1 44 19 40
10 -2 19 -11 21 -21z"/>
<path d="M4735 3720 c-8 -14 3 -30 21 -30 23 0 16 -20 -8 -21 -19 -1 -20 -2
-4 -6 10 -3 23 0 30 7 8 8 5 16 -13 29 -23 18 -23 19 -5 24 15 4 16 5 2 6 -9
0 -20 -3 -23 -9z"/>
<path d="M4884 3716 c-11 -29 0 -51 26 -51 21 0 25 5 25 30 0 24 -5 31 -23 33
-13 2 -24 -3 -28 -12z m46 -21 c0 -18 -5 -25 -20 -25 -15 0 -20 7 -20 25 0 18
5 25 20 25 15 0 20 -7 20 -25z"/>
<path d="M4970 3715 c-14 -17 -7 -43 15 -51 19 -8 45 13 45 36 0 16 -18 30
-40 30 -4 0 -13 -7 -20 -15z m48 -18 c4 -20 -25 -34 -40 -19 -15 15 -1 44 19
40 10 -2 19 -11 21 -21z"/>
<path d="M5053 3723 c9 -2 23 -2 30 0 6 3 -1 5 -18 5 -16 0 -22 -2 -12 -5z"/>
<path d="M5101 3723 c-2 -23 19 -64 29 -58 5 3 10 11 10 16 0 6 -4 8 -9 5 -5
-4 -14 6 -19 21 -6 16 -11 23 -11 16z"/>
<path d="M5140 3721 c0 -5 5 -13 10 -16 6 -3 10 -2 10 4 0 5 -4 13 -10 16 -5
3 -10 2 -10 -4z"/>
<path d="M5186 3715 c-3 -9 -6 -22 -5 -28 0 -7 5 -1 10 12 5 13 8 26 5 28 -2
2 -6 -3 -10 -12z"/>
<path d="M5225 3720 c-3 -5 0 -7 9 -4 8 3 21 2 28 -3 9 -5 2 -10 -22 -14 l-35
-6 38 -2 c38 -1 46 6 25 27 -15 15 -35 16 -43 2z"/>
<path d="M5323 3724 c23 -7 22 -24 -2 -24 -24 0 -36 -29 -15 -37 8 -3 18 -3
21 1 4 3 1 6 -5 6 -7 0 -12 5 -12 10 0 17 28 11 34 -7 2 -10 4 -2 3 17 -2 27
-7 35 -22 37 -16 1 -16 1 -2 -3z"/>
<path d="M5371 3690 c1 -27 3 -29 6 -10 2 14 11 30 20 37 13 10 13 12 -6 10
-17 -1 -21 -7 -20 -37z"/>
<path d="M5496 3721 c-3 -5 3 -7 14 -4 27 7 26 -10 -1 -22 -27 -13 -29 -29 -3
-32 10 -2 13 0 7 3 -18 8 -16 24 1 24 8 0 17 -8 20 -17 2 -10 4 -2 3 17 -2 34
-27 54 -41 31z"/>
<path d="M5603 3719 c9 -5 17 -16 17 -24 0 -8 -8 -19 -17 -24 -10 -6 -13 -11
-7 -11 19 0 36 28 29 50 -3 11 -14 20 -23 20 -16 -1 -15 -2 1 -11z"/>
<path d="M5651 3676 c1 -31 4 -43 7 -31 4 11 16 20 27 20 16 0 20 7 20 30 0
26 -4 30 -27 31 -27 1 -28 -1 -27 -50z m49 19 c0 -25 -23 -35 -35 -15 -10 16
2 40 20 40 9 0 15 -9 15 -25z"/>
<path d="M5736 3721 c-3 -5 3 -7 14 -4 11 3 20 1 20 -5 0 -5 -9 -12 -21 -15
-27 -7 -20 -31 10 -35 20 -3 22 0 19 30 -3 32 -29 51 -42 29z m34 -41 c0 -5
-7 -10 -15 -10 -8 0 -15 5 -15 10 0 6 7 10 15 10 8 0 15 -4 15 -10z"/>
<path d="M5811 3690 c1 -27 3 -29 6 -10 2 14 11 30 20 37 13 10 13 12 -6 10
-17 -1 -21 -7 -20 -37z"/>
<path d="M5864 3716 c-11 -30 0 -51 29 -52 25 -1 25 -1 2 3 -33 6 -32 23 1 23
19 0 25 5 22 18 -4 22 -46 29 -54 8z m46 -6 c0 -5 -9 -10 -20 -10 -11 0 -20 5
-20 10 0 6 9 10 20 10 11 0 20 -4 20 -10z"/>
<path d="M6040 3715 c-18 -22 -1 -49 31 -52 19 -1 20 -1 4 4 -34 9 -41 23 -11
23 21 0 27 4 24 17 -4 24 -32 28 -48 8z m40 -5 c0 -5 -9 -10 -21 -10 -11 0
-17 5 -14 10 3 6 13 10 21 10 8 0 14 -4 14 -10z"/>
<path d="M6120 3715 c-15 -18 -4 -55 18 -55 13 0 13 2 -3 14 -24 17 -13 50 15
43 11 -3 18 -1 14 4 -8 14 -30 11 -44 -6z"/>
<path d="M6203 3698 c2 -28 6 -33 30 -34 25 -1 27 2 26 35 -1 36 -1 36 -8 6
-9 -42 -38 -45 -45 -6 l-6 31 3 -32z"/>
<path d="M6283 3695 c0 -22 2 -30 4 -17 2 12 2 30 0 40 -3 9 -5 -1 -4 -23z"/>
<path d="M6321 3676 c1 -31 4 -43 7 -31 4 11 16 20 27 20 16 0 20 7 20 30 0
26 -4 30 -27 31 -27 1 -28 -1 -27 -50z m49 19 c0 -25 -23 -35 -35 -15 -10 16
2 40 20 40 9 0 15 -9 15 -25z"/>
<path d="M6401 3691 c1 -36 1 -36 8 -6 3 17 14 31 24 33 13 3 17 -4 18 -30 l1
-33 7 30 c3 17 13 30 21 30 8 0 18 -13 21 -30 6 -27 7 -27 8 -5 1 38 -10 47
-61 47 l-48 -1 1 -35z"/>
<path d="M6534 3716 c-11 -30 0 -51 29 -52 25 -1 25 -1 2 3 -33 6 -32 23 1 23
19 0 25 5 22 18 -4 22 -46 29 -54 8z m46 -6 c0 -5 -9 -10 -20 -10 -11 0 -20 5
-20 10 0 6 9 10 20 10 11 0 20 -4 20 -10z"/>
<path d="M6611 3691 c1 -36 1 -36 8 -6 8 40 38 46 44 8 4 -28 4 -28 3 2 -1 26
-5 30 -28 31 -26 1 -28 -2 -27 -35z"/>
<path d="M5573 3675 c0 -27 2 -38 4 -22 2 15 2 37 0 50 -2 12 -4 0 -4 -28z"/>
<path d="M5160 3675 c0 -8 4 -15 10 -15 5 0 7 7 4 15 -4 8 -8 15 -10 15 -2 0
-4 -7 -4 -15z"/>
<path d="M5060 3670 c0 -6 7 -10 15 -10 8 0 15 2 15 4 0 2 -7 6 -15 10 -8 3
-15 1 -15 -4z"/>
<path d="M5228 3668 c6 -6 18 -8 28 -6 14 3 12 5 -9 10 -19 3 -25 2 -19 -4z"/>
<path d="M4404 3659 c-3 -6 -2 -15 4 -21 15 -15 46 -5 50 15 3 12 -3 17 -22
17 -14 0 -28 -5 -32 -11z m46 -9 c0 -5 -9 -10 -20 -10 -11 0 -20 5 -20 10 0 6
9 10 20 10 11 0 20 -4 20 -10z"/>
<path d="M3330 3570 c0 -5 7 -7 15 -4 8 4 15 8 15 10 0 2 -7 4 -15 4 -8 0 -15
-4 -15 -10z"/>
<path d="M4098 3533 c-3 -47 -23 -69 -35 -37 -4 11 1 22 13 31 19 14 19 15 -1
11 -15 -2 -20 -11 -20 -33 0 -26 4 -30 28 -31 26 -1 27 1 27 52 0 66 -8 71
-12 7z"/>
<path d="M3508 3547 c-7 -21 6 -70 20 -73 7 -1 8 0 2 3 -12 6 -13 50 -1 55 5
2 3 8 -4 15 -10 9 -14 9 -17 0z"/>
<path d="M4282 3543 c-8 -8 -9 -13 -2 -13 5 0 10 -13 10 -30 0 -22 5 -30 18
-29 10 0 12 3 5 6 -15 5 -18 50 -4 55 5 2 4 8 -3 14 -8 8 -15 7 -24 -3z"/>
<path d="M3317 3542 c-2 -4 0 -23 4 -42 l6 -35 2 32 c0 17 6 33 13 35 8 3 6 7
-5 11 -9 3 -18 3 -20 -1z"/>
<path d="M2951 3501 c1 -35 1 -35 8 -6 5 25 11 29 43 31 34 3 37 1 41 -29 4
-31 5 -31 3 3 -1 35 -1 35 -48 36 l-48 1 1 -36z"/>
<path d="M3103 3534 c24 -8 21 -22 -5 -26 -34 -5 -29 -33 5 -34 26 -1 28 2 25
30 -2 22 -9 31 -23 33 -16 1 -16 1 -2 -3z m12 -44 c-3 -5 -13 -10 -21 -10 -8
0 -14 5 -14 10 0 6 9 10 21 10 11 0 17 -4 14 -10z"/>
<path d="M3150 3502 c0 -38 12 -38 14 0 2 35 34 36 39 1 4 -28 4 -28 3 2 -1
26 -5 30 -28 31 -25 1 -28 -2 -28 -34z"/>
<path d="M3242 3512 c-2 -35 20 -54 40 -34 8 8 5 9 -10 5 -17 -4 -21 0 -25 29
l-4 33 -1 -33z"/>
<path d="M3395 3528 c19 -12 19 -12 -5 -18 -35 -8 -32 -35 3 -36 26 -1 28 2
25 30 -2 22 -9 32 -23 34 l-20 3 20 -13z m10 -38 c-3 -5 -13 -10 -21 -10 -8 0
-14 5 -14 10 0 6 9 10 21 10 11 0 17 -4 14 -10z"/>
<path d="M3444 3526 c-9 -23 0 -51 16 -52 9 0 10 1 3 3 -7 3 -13 16 -13 30 0
20 4 24 20 20 11 -3 18 -1 14 4 -8 14 -34 11 -40 -5z"/>
<path d="M3562 3520 c0 -14 2 -19 5 -12 2 6 2 18 0 25 -3 6 -5 1 -5 -13z"/>
<path d="M3613 3505 c0 -22 2 -30 4 -17 2 12 2 30 0 40 -3 9 -5 -1 -4 -23z"/>
<path d="M3651 3500 c1 -27 3 -29 6 -10 2 14 11 30 20 37 13 10 13 12 -6 10
-17 -1 -21 -7 -20 -37z"/>
<path d="M3703 3505 c0 -22 2 -30 4 -17 2 12 2 30 0 40 -3 9 -5 -1 -4 -23z"/>
<path d="M3741 3501 c1 -36 1 -36 8 -6 3 17 13 30 21 30 8 0 18 -13 22 -30 6
-29 6 -29 5 5 -2 31 -5 35 -29 36 -26 1 -28 -2 -27 -35z"/>
<path d="M3825 3528 c-3 -7 -4 -29 -2 -48 2 -30 6 -35 27 -35 33 0 33 27 0 35
-24 6 -24 6 -4 12 12 3 23 15 27 27 4 17 1 21 -19 21 -14 0 -27 -6 -29 -12z
m35 -13 c0 -8 -7 -15 -15 -15 -8 0 -15 7 -15 15 0 8 7 15 15 15 8 0 15 -7 15
-15z m10 -55 c0 -5 -9 -10 -20 -10 -11 0 -20 5 -20 10 0 6 9 10 20 10 11 0 20
-4 20 -10z"/>
<path d="M3933 3505 c0 -22 2 -30 4 -17 2 12 2 30 0 40 -3 9 -5 -1 -4 -23z"/>
<path d="M3971 3501 c1 -36 1 -36 8 -6 8 40 38 46 44 8 4 -28 4 -28 3 2 -1 26
-5 30 -28 31 -26 1 -28 -2 -27 -35z"/>
<path d="M4143 3508 c2 -28 6 -33 30 -34 25 -1 27 2 26 35 -1 36 -1 36 -8 6
-9 -42 -38 -45 -45 -6 l-6 31 3 -32z"/>
<path d="M4220 3525 c0 -9 7 -18 15 -21 20 -8 19 -21 -2 -27 -16 -4 -16 -5 -1
-6 24 -2 34 20 15 34 -22 16 -21 22 1 28 13 4 11 5 -5 6 -15 1 -23 -5 -23 -14z"/>
<path d="M4344 3526 c-3 -8 -4 -25 -1 -38 3 -18 5 -16 6 9 0 17 7 34 14 36 9
4 9 6 -1 6 -7 1 -15 -5 -18 -13z"/>
<path d="M4396 3506 c8 -21 12 -46 9 -55 -4 -10 -3 -12 3 -6 15 16 26 59 13
51 -6 -4 -11 -3 -11 1 0 5 -7 18 -15 29 -13 16 -13 13 1 -20z"/>
<path d="M4435 3529 c-4 -6 -5 -12 -2 -15 2 -3 7 2 10 11 7 17 1 20 -8 4z"/>
<path d="M3570 3480 c0 -6 7 -10 15 -10 8 0 15 2 15 4 0 2 -7 6 -15 10 -8 3
-15 1 -15 -4z"/>
<path d="M3643 3330 c0 -30 2 -43 4 -27 2 15 2 39 0 55 -2 15 -4 2 -4 -28z"/>
<path d="M2962 3358 c-7 -7 -12 -24 -12 -38 0 -14 5 -31 12 -38 14 -14 44 -16
52 -4 2 4 -8 8 -22 7 -24 0 -27 4 -27 35 0 31 3 35 27 35 14 -1 24 3 22 7 -8
12 -38 10 -52 -4z"/>
<path d="M3370 3360 c0 -5 5 -10 10 -10 6 0 10 5 10 10 0 6 -4 10 -10 10 -5 0
-10 -4 -10 -10z"/>
<path d="M4170 3360 c0 -5 5 -10 10 -10 6 0 10 5 10 10 0 6 -4 10 -10 10 -5 0
-10 -4 -10 -10z"/>
<path d="M3470 3351 c0 -5 -17 -12 -37 -14 l-38 -4 38 -1 c34 -2 37 -4 37 -32
0 -22 5 -30 18 -29 10 0 12 3 5 6 -15 5 -18 50 -4 55 5 2 3 9 -5 16 -8 7 -14
8 -14 3z"/>
<path d="M3718 3349 c-2 -6 -2 -26 0 -45 3 -24 9 -34 21 -33 10 0 11 2 4 6
-15 5 -18 50 -4 55 5 2 3 8 -4 15 -9 9 -15 9 -17 2z"/>
<path d="M5469 3339 c-10 -6 -10 -9 -1 -9 7 0 12 -13 12 -30 0 -22 5 -30 18
-29 10 0 12 3 5 6 -16 6 -17 50 -1 55 8 3 7 6 -3 10 -9 3 -22 2 -30 -3z"/>
<path d="M3040 3325 c-18 -22 -8 -50 19 -50 32 0 49 28 32 49 -17 20 -35 20
-51 1z m48 -18 c4 -20 -25 -34 -40 -19 -15 15 -1 44 19 40 10 -2 19 -11 21
-21z"/>
<path d="M3121 3301 c1 -35 1 -35 8 -6 5 25 11 29 43 31 34 3 37 1 41 -29 4
-31 5 -31 3 3 -1 35 -1 35 -48 36 l-48 1 1 -36z"/>
<path d="M3253 3305 c0 -22 2 -30 4 -17 2 12 2 30 0 40 -3 9 -5 -1 -4 -23z"/>
<path d="M3278 3333 c6 -3 13 -19 13 -36 l1 -32 7 30 c9 43 38 45 44 3 l5 -33
-2 35 c-1 34 -2 35 -41 36 -22 1 -34 -1 -27 -3z"/>
<path d="M3383 3305 c0 -22 2 -30 4 -17 2 12 2 30 0 40 -3 9 -5 -1 -4 -23z"/>
<path d="M3520 3325 c-18 -22 -1 -49 31 -52 19 -1 20 -1 4 4 -34 9 -41 23 -11
23 21 0 27 4 24 17 -4 24 -32 28 -48 8z m40 -5 c0 -5 -9 -10 -21 -10 -11 0
-17 5 -14 10 3 6 13 10 21 10 8 0 14 -4 14 -10z"/>
<path d="M3595 3321 c-8 -25 4 -51 24 -51 14 1 14 2 -1 11 -10 5 -18 16 -18
24 0 8 8 19 18 24 15 9 16 10 0 11 -9 0 -19 -8 -23 -19z"/>
<path d="M3771 3326 c-26 -31 14 -71 45 -45 21 17 14 53 -12 57 -11 2 -26 -4
-33 -12z m47 -19 c4 -20 -25 -34 -40 -19 -15 15 -1 44 19 40 10 -2 19 -11 21
-21z"/>
<path d="M3890 3325 c-22 -27 17 -72 41 -48 6 6 2 9 -13 9 -17 -1 -23 5 -23
19 0 14 6 20 22 19 12 0 20 3 17 8 -8 13 -30 9 -44 -7z"/>
<path d="M3961 3326 c-17 -20 -4 -56 18 -56 28 0 47 28 34 48 -14 23 -37 26
-52 8z m47 -19 c4 -20 -25 -34 -40 -19 -15 15 -1 44 19 40 10 -2 19 -11 21
-21z"/>
<path d="M4041 3301 c1 -36 1 -36 8 -6 8 40 38 46 44 8 4 -28 4 -28 3 2 -1 26
-5 30 -28 31 -26 1 -28 -2 -27 -35z"/>
<path d="M4123 3333 c9 -2 23 -2 30 0 6 3 -1 5 -18 5 -16 0 -22 -2 -12 -5z"/>
<path d="M4183 3305 c0 -22 2 -30 4 -17 2 12 2 30 0 40 -3 9 -5 -1 -4 -23z"/>
<path d="M4211 3301 c1 -36 1 -36 8 -6 8 40 38 46 44 8 4 -28 4 -28 3 2 -1 26
-5 30 -28 31 -26 1 -28 -2 -27 -35z"/>
<path d="M4301 3308 c-1 -30 3 -38 17 -38 11 0 13 3 5 8 -6 4 -13 21 -16 37
-4 27 -4 27 -6 -7z"/>
<path d="M4342 3310 c0 -19 2 -27 5 -17 2 9 2 25 0 35 -3 9 -5 1 -5 -18z"/>
<path d="M4385 3330 c-4 -6 -4 -14 -1 -17 3 -4 6 -1 6 5 0 7 9 12 20 12 15 0
20 -7 20 -25 0 -18 -5 -25 -19 -25 -11 0 -22 5 -24 10 -3 6 -4 5 -3 -2 2 -7
14 -13 27 -13 20 0 24 5 24 30 0 23 -5 31 -22 33 -11 2 -24 -2 -28 -8z"/>
<path d="M4462 3320 c0 -14 2 -19 5 -12 2 6 2 18 0 25 -3 6 -5 1 -5 -13z"/>
<path d="M4513 3305 c0 -22 2 -30 4 -17 2 12 2 30 0 40 -3 9 -5 -1 -4 -23z"/>
<path d="M4545 3330 c-8 -14 3 -30 21 -30 23 0 16 -20 -8 -21 -19 -1 -20 -2
-4 -6 10 -3 23 0 30 7 8 8 5 16 -13 29 -23 18 -23 19 -5 24 15 4 16 5 2 6 -9
0 -20 -3 -23 -9z"/>
<path d="M4653 3305 c0 -22 2 -30 4 -17 2 12 2 30 0 40 -3 9 -5 -1 -4 -23z"/>
<path d="M4681 3301 c1 -36 1 -36 8 -6 3 17 14 31 24 33 13 3 17 -4 18 -30 l1
-33 7 30 c3 17 13 30 21 30 8 0 18 -13 21 -30 6 -27 7 -27 8 -5 1 38 -10 47
-61 47 l-48 -1 1 -35z"/>
<path d="M4811 3286 c1 -31 4 -43 7 -31 4 11 16 20 27 20 16 0 20 7 20 30 0
26 -4 30 -27 31 -27 1 -28 -1 -27 -50z m49 19 c0 -25 -23 -35 -35 -15 -10 16
2 40 20 40 9 0 15 -9 15 -25z"/>
<path d="M4904 3326 c-3 -8 -4 -25 -1 -38 3 -18 5 -16 6 9 0 17 7 34 14 36 9
4 9 6 -1 6 -7 1 -15 -5 -18 -13z"/>
<path d="M4952 3328 c-6 -6 -12 -16 -12 -22 0 -5 6 -1 14 9 8 11 19 16 30 12
25 -10 15 -42 -12 -41 -14 0 -19 -3 -13 -9 5 -5 17 -7 27 -5 28 5 26 62 -1 66
-11 1 -26 -3 -33 -10z"/>
<path d="M5033 3312 c14 -35 29 -43 35 -20 2 9 0 8 -7 -2 -9 -13 -11 -13 -11
1 0 8 -7 24 -15 35 -13 17 -14 16 -2 -14z"/>
<path d="M5075 3329 c-4 -6 -5 -12 -2 -15 2 -3 7 2 10 11 7 17 1 20 -8 4z"/>
<path d="M5104 3326 c-11 -30 0 -51 29 -52 25 -1 25 -1 2 3 -33 6 -32 23 1 23
19 0 25 5 22 18 -4 22 -46 29 -54 8z m46 -6 c0 -5 -9 -10 -21 -10 -11 0 -17 5
-14 10 3 6 13 10 21 10 8 0 14 -4 14 -10z"/>
<path d="M5181 3300 c1 -35 1 -35 8 -5 3 17 14 31 24 33 13 3 17 -4 18 -30 l1
-33 7 30 c4 20 12 30 24 29 9 -1 17 2 17 6 0 4 -22 7 -50 7 l-50 -1 1 -36z"/>
<path d="M5314 3326 c-11 -28 1 -51 26 -53 22 -1 22 -1 3 4 -31 6 -29 23 3 23
20 0 25 4 20 16 -3 9 -6 18 -6 20 0 11 -41 2 -46 -10z m41 -6 c3 -5 -3 -10
-14 -10 -12 0 -21 5 -21 10 0 6 6 10 14 10 8 0 18 -4 21 -10z"/>
<path d="M5391 3301 c1 -36 1 -36 8 -6 8 40 38 46 44 8 4 -28 4 -28 3 2 -1 26
-5 30 -28 31 -26 1 -28 -2 -27 -35z"/>
<path d="M3420 3280 c0 -6 7 -10 15 -10 8 0 15 2 15 4 0 2 -7 6 -15 10 -8 3
-15 1 -15 -4z"/>
<path d="M4130 3280 c0 -6 7 -10 15 -10 8 0 15 2 15 4 0 2 -7 6 -15 10 -8 3
-15 1 -15 -4z"/>
<path d="M4470 3280 c0 -6 7 -10 15 -10 8 0 15 2 15 4 0 2 -7 6 -15 10 -8 3
-15 1 -15 -4z"/>
<path d="M7920 3095 c0 -43 4 -75 10 -75 6 0 10 32 10 75 0 43 -4 75 -10 75
-6 0 -10 -32 -10 -75z"/>
<path d="M7980 3095 c0 -59 3 -75 14 -75 11 0 16 14 18 48 l3 47 30 -47 c43
-69 55 -63 55 27 0 59 -3 75 -14 75 -11 0 -16 -14 -18 -47 l-3 -48 -30 47
c-43 69 -55 63 -55 -27z"/>
<path d="M8168 3154 c-80 -43 -12 -159 72 -124 19 8 27 17 23 27 -4 10 -9 11
-16 4 -15 -15 -60 -14 -75 1 -7 7 -12 21 -12 33 0 12 5 26 12 33 15 15 64 16
73 2 7 -11 25 -4 25 9 0 9 -45 31 -63 31 -7 -1 -24 -7 -39 -16z"/>
<path d="M8310 3095 l0 -75 40 0 c29 0 40 4 40 15 0 10 -10 15 -30 15 -23 0
-30 4 -30 20 0 16 7 20 31 20 38 0 35 24 -4 28 -15 2 -27 7 -27 12 0 5 12 10
27 12 45 5 40 28 -6 28 l-41 0 0 -75z"/>
<path d="M8420 3095 c0 -43 4 -75 10 -75 6 0 10 20 10 45 0 25 3 45 8 45 4 0
20 -20 35 -45 43 -68 57 -60 57 30 0 59 -3 75 -14 75 -11 0 -16 -14 -18 -47
l-3 -48 -30 47 c-43 69 -55 63 -55 -27z"/>
<path d="M8560 3155 c0 -8 7 -15 15 -15 12 0 15 -13 15 -60 0 -33 4 -60 10
-60 6 0 10 27 10 60 0 47 3 60 15 60 8 0 15 7 15 15 0 11 -11 15 -40 15 -29 0
-40 -4 -40 -15z"/>
<path d="M8661 3095 c-1 -62 1 -75 14 -75 12 0 15 14 15 75 0 57 -3 75 -14 75
-10 0 -14 -19 -15 -75z"/>
<path d="M8720 3163 c1 -26 50 -138 61 -138 7 0 25 32 40 73 20 52 23 72 14
72 -8 0 -21 -23 -30 -51 -19 -55 -27 -54 -48 6 -12 34 -37 61 -37 38z"/>
<path d="M8880 3095 l0 -75 40 0 c29 0 40 4 40 15 0 10 -10 15 -30 15 -41 0
-44 37 -3 42 39 4 42 28 4 28 -17 0 -31 5 -31 10 0 6 14 10 30 10 20 0 30 5
30 15 0 11 -11 15 -40 15 l-40 0 0 -75z"/>
<path d="M8996 3154 c-19 -18 -8 -47 24 -64 22 -12 27 -40 7 -40 -7 0 -18 5
-24 11 -8 8 -13 7 -18 -2 -8 -13 19 -39 41 -39 15 0 44 27 44 42 0 5 -13 22
-30 36 -37 32 -38 46 -5 38 27 -7 32 3 13 22 -16 16 -33 15 -52 -4z"/>
<path d="M1520 2900 c0 -219 1 -230 20 -240 16 -9 20 -21 20 -65 0 -61 17 -76
22 -19 l3 36 92 -92 c83 -81 92 -94 82 -112 -8 -16 -8 -19 1 -13 9 6 9 3 1
-13 -10 -18 -47 -34 -111 -47 -8 -2 -16 -4 -17 -5 -2 -2 -6 -3 -10 -4 -5 -1
-25 -10 -47 -19 -21 -9 -42 -17 -47 -17 -5 0 -9 -12 -9 -26 0 -28 6 -27 79 2
18 8 37 11 42 8 5 -3 9 0 9 6 0 6 4 9 9 5 5 -3 12 -1 16 5 4 7 13 7 26 -1 30
-15 61 -20 53 -7 -4 5 0 15 7 20 11 8 10 9 -3 4 -28 -9 -21 3 8 14 32 12 50 4
33 -16 -10 -12 -9 -13 5 -8 9 3 15 12 14 19 -2 8 2 14 7 15 6 1 19 9 29 18 13
11 17 12 11 3 -6 -11 -4 -13 8 -8 9 3 19 1 23 -5 4 -6 3 -8 -4 -4 -6 3 -14 1
-17 -5 -4 -5 -13 -8 -21 -5 -7 3 -16 1 -18 -3 -5 -7 35 -8 42 -1 1 1 5 3 10 5
4 1 14 5 22 8 17 7 33 5 70 -10 14 -6 31 -8 38 -6 6 3 12 0 12 -7 0 -10 3 -10
14 -1 11 9 16 9 22 0 5 -8 3 -10 -7 -4 -10 6 -11 5 -3 -4 6 -7 22 -13 35 -15
13 -1 34 -8 47 -15 13 -7 30 -10 38 -7 9 3 12 1 9 -4 -3 -6 3 -10 15 -10 13 0
19 4 14 12 -4 7 -3 8 5 4 6 -4 9 -11 6 -16 -6 -10 23 -22 36 -14 5 3 9 1 9 -3
0 -11 57 -33 64 -25 3 3 6 212 6 464 l0 458 -410 0 -410 0 0 -230z m185 60 l0
-75 -40 -3 -40 -3 0 81 0 81 40 -3 40 -3 0 -75z m111 25 c0 -28 4 -63 8 -78 5
-20 3 -27 -8 -27 -9 0 -16 12 -18 32 -2 17 -9 34 -17 36 -11 4 -13 -3 -8 -32
5 -32 3 -36 -16 -36 -21 0 -22 4 -22 80 l0 81 40 -3 40 -3 1 -50z m109 -25 l0
-75 -35 0 -35 0 -3 64 c-4 84 0 93 40 89 l33 -3 0 -75z m76 30 l19 -45 -2 48
c-3 36 0 47 12 47 12 0 14 -14 12 -80 -2 -44 -7 -80 -12 -80 -5 0 -18 24 -30
53 l-21 52 4 -52 c3 -44 1 -53 -12 -53 -13 0 -16 13 -16 80 0 94 15 104 46 30z
m136 33 c-2 -10 -14 -42 -26 -70 -17 -44 -18 -53 -6 -53 8 0 15 7 15 15 0 8 5
15 10 15 6 0 10 -11 10 -25 0 -22 -4 -25 -40 -25 -22 0 -40 1 -40 3 0 2 11 31
25 65 14 34 25 66 25 72 0 17 -28 11 -33 -7 -4 -14 -5 -12 -6 5 -1 19 4 22 35
22 30 0 35 -3 31 -17z m93 -3 c0 -11 -4 -20 -10 -20 -5 0 -10 7 -10 15 0 8 -4
15 -10 15 -5 0 -10 -13 -10 -30 0 -23 4 -30 20 -30 11 0 20 -4 20 -10 0 -5 -9
-10 -20 -10 -15 0 -20 -7 -20 -25 0 -16 6 -25 15 -25 8 0 15 5 15 10 0 6 5 10
10 10 6 0 10 -9 10 -20 0 -17 -7 -20 -42 -20 l-43 0 0 80 0 80 38 0 c30 0 37
-4 37 -20z m-453 -415 c0 -8 -4 -12 -9 -9 -5 3 -6 10 -3 15 9 13 12 11 12 -6z
m79 -19 c-1 -16 6 -22 28 -24 28 -3 29 -2 15 15 -13 16 -12 17 3 5 13 -11 26
-10 74 2 65 17 80 15 34 -4 -16 -7 -27 -17 -23 -23 3 -6 1 -7 -6 -3 -13 8
-111 -23 -111 -35 0 -4 -10 -5 -22 -1 -16 4 -19 2 -13 -8 5 -8 4 -11 -3 -7 -5
4 -8 16 -5 27 5 18 -4 24 -28 22 -3 -1 -6 6 -6 14 0 10 4 11 11 4 16 -16 30
-12 16 6 -11 12 -11 15 1 12 8 -2 13 2 12 8 -1 6 4 11 11 11 7 0 12 -10 12
-21z m-34 -110 c-9 -5 -19 -2 -28 8 -8 9 -9 11 -2 6 21 -17 32 -11 15 8 -26
28 -20 38 6 11 18 -19 20 -26 9 -33z m-36 -13 c-10 -11 -19 -7 -22 10 -2 15 0
16 12 6 8 -6 12 -14 10 -16z m74 1 c0 -8 -19 -13 -24 -6 -3 5 1 9 9 9 8 0 15
-2 15 -3z m-43 -20 c-3 -3 -12 -4 -19 -1 -8 3 -5 6 6 6 11 1 17 -2 13 -5z m3
-51 c-8 -3 -22 -11 -30 -17 -13 -10 -13 -9 -1 7 7 9 21 17 30 16 13 0 14 -1 1
-6z m105 -41 c-3 -3 -11 0 -18 7 -9 10 -8 11 6 5 10 -3 15 -9 12 -12z m-192
-56 c4 -10 1 -13 -9 -9 -7 3 -14 9 -14 14 0 14 17 10 23 -5z"/>
<path d="M1660 3000 c0 -21 4 -30 13 -27 6 2 12 14 12 27 0 13 -6 25 -12 28
-9 2 -13 -7 -13 -28z"/>
<path d="M1660 2925 c0 -16 6 -25 15 -25 9 0 15 9 15 25 0 16 -6 25 -15 25 -9
0 -15 -9 -15 -25z"/>
<path d="M1770 3000 c0 -21 4 -30 13 -27 6 2 12 14 12 27 0 13 -6 25 -12 28
-9 2 -13 -7 -13 -28z"/>
<path d="M1877 3024 c-4 -4 -7 -34 -7 -66 0 -51 2 -59 18 -56 14 3 17 14 17
62 0 55 -11 77 -28 60z"/>
<path d="M2847 3033 c-2 -4 -8 -30 -11 -58 -4 -27 -9 -58 -12 -67 -3 -11 0
-18 9 -18 8 0 17 18 24 48 l10 47 13 -47 c17 -59 35 -61 51 -8 14 46 29 53 29
13 0 -16 4 -35 10 -43 18 -28 22 0 10 69 -12 73 -32 94 -44 46 -3 -13 -11 -37
-17 -52 l-11 -28 -17 49 c-16 47 -34 67 -44 49z"/>
<path d="M3030 2965 l0 -75 40 0 c29 0 40 4 40 15 0 10 -10 15 -30 15 -23 0
-30 4 -30 20 0 16 7 20 30 20 20 0 30 5 30 15 0 10 -10 15 -30 15 -16 0 -30 5
-30 10 0 6 14 10 30 10 20 0 30 5 30 15 0 11 -11 15 -40 15 l-40 0 0 -75z"/>
<path d="M3140 2965 l0 -75 40 0 c29 0 40 4 40 15 0 10 -10 15 -30 15 -23 0
-30 4 -30 20 0 16 7 20 30 20 20 0 30 5 30 15 0 10 -10 15 -30 15 -16 0 -30 5
-30 10 0 6 14 10 30 10 20 0 30 5 30 15 0 11 -11 15 -40 15 l-40 0 0 -75z"/>
<path d="M3230 3025 c0 -8 7 -15 15 -15 12 0 15 -13 15 -60 0 -47 3 -60 15
-60 12 0 15 13 15 60 0 33 4 60 10 60 6 0 10 7 10 15 0 11 -11 15 -40 15 -29
0 -40 -4 -40 -15z"/>
<path d="M3346 3024 c-19 -18 -8 -47 24 -64 22 -12 27 -40 7 -40 -7 0 -18 5
-24 11 -8 8 -13 7 -18 -2 -9 -14 20 -39 47 -39 21 0 40 32 32 54 -3 8 -17 22
-30 31 -32 21 -31 39 1 31 27 -7 32 3 13 22 -16 16 -33 15 -52 -4z"/>
<path d="M3860 3015 c0 -21 -4 -24 -22 -20 -44 11 -81 -44 -54 -80 9 -12 28
-19 60 -21 l46 -3 0 75 c0 59 -3 74 -15 74 -9 0 -15 -9 -15 -25z m-5 -70 c0
-22 -31 -33 -47 -17 -17 17 -1 44 24 40 15 -2 23 -10 23 -23z"/>
<path d="M3975 3031 c-7 -12 12 -24 25 -16 11 7 4 25 -10 25 -5 0 -11 -4 -15
-9z"/>
<path d="M6760 3014 c0 -21 -4 -24 -20 -19 -33 11 -60 -12 -60 -50 0 -40 10
-48 67 -51 l43 -3 0 75 c0 59 -3 74 -15 74 -9 0 -15 -10 -15 -26z m-5 -69 c0
-22 -31 -33 -47 -17 -17 17 -1 44 24 40 15 -2 23 -10 23 -23z"/>
<path d="M3515 2977 c-31 -45 -7 -79 59 -83 l46 -3 0 53 0 53 -45 1 c-35 0
-48 -5 -60 -21z m70 -32 c0 -22 -31 -33 -47 -17 -17 17 -1 44 24 40 15 -2 23
-10 23 -23z"/>
<path d="M3650 2944 c0 -41 4 -54 15 -54 11 0 15 11 15 40 0 33 3 40 20 40 17
0 20 -7 20 -40 0 -29 4 -40 15 -40 11 0 15 11 15 36 0 56 -14 73 -60 72 l-40
0 0 -54z"/>
<path d="M3980 2945 c0 -30 5 -55 10 -55 6 0 10 25 10 55 0 30 -4 55 -10 55
-5 0 -10 -25 -10 -55z"/>
<path d="M4030 2944 c0 -41 4 -54 15 -54 11 0 15 11 15 40 0 33 3 40 20 40 17
0 20 -7 20 -40 0 -29 4 -40 15 -40 11 0 15 11 15 36 0 56 -14 73 -60 72 l-40
0 0 -54z"/>
<path d="M4233 2993 c-20 -7 -15 -41 7 -55 26 -17 26 -32 -1 -25 -13 3 -19 1
-16 -6 7 -21 45 -20 57 2 9 18 7 25 -16 46 -26 24 -26 25 -5 25 12 0 19 4 16
10 -7 11 -22 12 -42 3z"/>
<path d="M4327 2982 c-10 -10 -17 -28 -17 -39 0 -23 29 -53 51 -53 26 0 59 31
59 55 0 25 -33 55 -61 55 -9 0 -23 -8 -32 -18z m61 -34 c-3 -26 -36 -37 -49
-17 -10 17 8 39 33 39 14 0 19 -6 16 -22z"/>
<path d="M4450 2944 c0 -41 4 -54 15 -54 11 0 15 11 15 41 0 33 3 40 18 37 12
-2 18 -14 20 -41 2 -23 8 -37 17 -37 9 0 15 14 17 37 2 27 8 39 21 41 14 3 17
-4 17 -37 0 -30 4 -41 15 -41 11 0 15 12 15 44 0 54 -19 74 -55 58 -13 -6 -27
-8 -29 -3 -3 5 -24 8 -46 8 l-40 0 0 -53z"/>
<path d="M4666 2984 c-9 -8 -16 -29 -16 -45 0 -40 37 -58 78 -38 l27 13 -35 4
c-55 5 -61 22 -7 22 51 0 58 9 27 40 -24 24 -53 26 -74 4z m57 -21 c-7 -2 -21
-2 -30 0 -10 3 -4 5 12 5 17 0 24 -2 18 -5z"/>
<path d="M4856 2981 c-20 -22 -20 -40 -1 -68 12 -17 25 -22 55 -20 l40 1 0 51
0 51 -39 1 c-26 1 -44 -4 -55 -16z m69 -36 c0 -22 -31 -33 -47 -17 -17 17 -1
44 24 40 15 -2 23 -10 23 -23z"/>
<path d="M4980 2944 c0 -41 4 -54 15 -54 10 0 15 10 15 34 0 18 7 39 15 46 23
19 18 27 -15 28 -30 1 -30 0 -30 -54z"/>
<path d="M5070 2980 c-11 -11 -20 -29 -20 -40 0 -27 43 -54 75 -46 34 9 32 26
-4 26 -17 0 -33 5 -36 10 -4 6 10 10 34 10 45 0 54 16 25 44 -21 22 -50 20
-74 -4z m53 -17 c-7 -2 -21 -2 -30 0 -10 3 -4 5 12 5 17 0 24 -2 18 -5z"/>
<path d="M5206 2981 c-37 -41 -7 -87 57 -88 l37 -1 0 53 0 53 -39 0 c-25 1
-45 -6 -55 -17z m67 -23 c7 -20 -4 -38 -22 -38 -23 0 -41 19 -34 36 6 17 50
18 56 2z"/>
<path d="M5342 2988 c-18 -18 -15 -36 8 -48 27 -14 25 -30 -2 -30 -16 0 -19
-3 -11 -11 15 -15 44 -8 57 14 9 15 7 22 -11 37 -26 21 -30 35 -8 27 8 -4 17
-2 20 2 3 5 -2 12 -11 15 -22 8 -28 8 -42 -6z"/>
<path d="M5490 2944 c0 -30 5 -54 10 -54 6 0 10 12 10 28 0 36 14 56 34 49 10
-4 16 -19 16 -42 0 -24 4 -35 15 -35 11 0 15 11 15 40 0 33 3 40 20 40 17 0
20 -7 20 -40 0 -29 4 -40 15 -40 11 0 15 11 15 38 0 52 -19 77 -51 66 -13 -4
-28 -7 -34 -5 -5 2 -27 5 -47 6 l-38 2 0 -53z"/>
<path d="M5698 2978 c-13 -13 -17 -26 -12 -41 10 -34 20 -40 69 -43 l45 -3 0
53 0 53 -41 0 c-28 0 -48 -6 -61 -19z m67 -33 c0 -22 -31 -33 -47 -17 -17 17
-1 44 24 40 15 -2 23 -10 23 -23z"/>
<path d="M5820 2996 c0 -2 9 -24 20 -50 16 -35 18 -50 10 -65 -13 -26 -13 -31
3 -31 10 0 39 54 75 142 2 4 -1 8 -7 8 -6 0 -19 -17 -29 -37 l-19 -37 -14 37
c-7 20 -19 37 -26 37 -7 0 -13 -2 -13 -4z"/>
<path d="M6032 2984 c-12 -8 -22 -26 -22 -39 0 -43 64 -71 90 -40 11 13 7 15
-24 15 -20 0 -36 5 -36 10 0 6 18 10 40 10 44 0 52 16 22 43 -23 21 -41 21
-70 1z m51 -21 c-7 -2 -21 -2 -30 0 -10 3 -4 5 12 5 17 0 24 -2 18 -5z"/>
<path d="M6159 2974 l21 -26 -21 -26 c-14 -19 -17 -28 -8 -31 7 -2 18 4 25 14
13 17 15 17 32 2 31 -28 46 -20 22 13 -20 28 -20 31 -4 55 14 22 14 25 1 25
-8 0 -18 -7 -21 -16 -6 -16 -8 -16 -24 0 -30 26 -46 19 -23 -10z"/>
<path d="M6292 2984 c-56 -39 9 -121 68 -84 20 13 6 24 -33 24 -25 1 -32 5
-32 21 0 16 7 20 32 21 39 0 53 11 33 24 -22 14 -43 12 -68 -6z"/>
<path d="M6420 2980 c-11 -11 -20 -29 -20 -40 0 -27 43 -54 75 -46 34 9 32 26
-4 26 -17 0 -33 5 -36 10 -4 6 10 10 34 10 45 0 54 16 25 44 -21 22 -50 20
-74 -4z m53 -17 c-7 -2 -21 -2 -30 0 -10 3 -4 5 12 5 17 0 24 -2 18 -5z"/>
<path d="M6557 2982 c-22 -24 -21 -55 1 -75 23 -21 42 -21 68 -2 18 13 17 14
-18 15 -21 0 -38 5 -38 10 0 6 18 10 40 10 46 0 54 19 18 44 -29 21 -51 20
-71 -2z m56 -19 c-7 -2 -21 -2 -30 0 -10 3 -4 5 12 5 17 0 24 -2 18 -5z"/>
<path d="M380 2820 c0 -5 14 -10 30 -10 l30 0 -25 -50 c-29 -57 -30 -60 -11
-60 13 0 56 89 56 116 0 10 -13 14 -40 14 -22 0 -40 -4 -40 -10z"/>
<path d="M503 2818 c-32 -41 -23 -105 15 -115 49 -12 84 73 46 111 -19 19 -48
21 -61 4z m42 -54 c0 -28 -4 -39 -15 -39 -16 0 -26 45 -16 72 11 28 31 7 31
-33z"/>
<path d="M773 2824 c-16 -7 -17 -36 -1 -52 9 -9 9 -12 -1 -12 -8 0 -11 -10 -9
-27 2 -23 9 -29 34 -31 36 -4 60 19 48 45 -4 10 -8 32 -8 48 -1 25 -6 30 -26
32 -14 1 -31 -1 -37 -3z m42 -23 c7 -12 -12 -24 -25 -16 -11 7 -4 25 10 25 5
0 11 -4 15 -9z m5 -66 c0 -8 -9 -15 -20 -15 -11 0 -20 7 -20 15 0 8 9 15 20
15 11 0 20 -7 20 -15z"/>
<path d="M883 2790 c-30 -51 -29 -60 7 -60 20 0 30 -5 30 -15 0 -8 5 -15 10
-15 6 0 10 6 10 14 0 8 6 17 13 20 10 5 10 7 0 12 -7 3 -13 23 -13 45 0 53
-27 53 -57 -1z m37 -15 c0 -18 -5 -25 -20 -25 -20 0 -20 1 -4 25 9 14 18 25
20 25 2 0 4 -11 4 -25z"/>
<path d="M2847 2773 c-2 -4 -8 -30 -11 -58 -4 -27 -9 -58 -12 -67 -3 -11 0
-18 9 -18 8 0 17 18 24 48 l10 47 13 -47 c17 -59 35 -61 51 -8 14 46 29 53 29
13 0 -16 4 -35 10 -43 18 -28 22 0 10 69 -12 73 -32 94 -44 46 -3 -13 -11 -37
-17 -52 l-11 -28 -17 49 c-16 47 -34 67 -44 49z"/>
<path d="M3020 2705 c0 -60 3 -75 15 -75 12 0 15 15 15 75 0 60 -3 75 -15 75
-12 0 -15 -15 -15 -75z"/>
<path d="M3090 2705 c0 -82 17 -104 22 -27 l3 47 33 -47 c48 -70 62 -64 62 27
0 59 -3 75 -14 75 -11 0 -16 -14 -18 -47 l-3 -48 -33 48 c-18 26 -37 47 -42
47 -6 0 -10 -34 -10 -75z"/>
<path d="M3240 2705 c0 -60 3 -75 15 -75 12 0 15 15 15 75 0 60 -3 75 -15 75
-12 0 -15 -15 -15 -75z"/>
<path d="M3317 2773 c-2 -4 -8 -30 -11 -58 -4 -27 -9 -58 -12 -67 -3 -11 0
-18 9 -18 8 0 17 18 24 48 l10 47 13 -47 c17 -59 35 -61 51 -8 14 46 29 53 29
13 0 -16 4 -35 10 -43 18 -28 22 0 10 69 -12 73 -32 94 -44 46 -3 -13 -11 -37
-17 -52 l-11 -28 -17 49 c-16 47 -34 67 -44 49z"/>
<path d="M3493 2720 c6 -67 19 -90 51 -90 36 0 46 20 46 87 0 79 -18 83 -22 6
-3 -50 -6 -58 -23 -58 -17 0 -20 8 -23 58 -2 44 -7 57 -19 57 -13 0 -15 -10
-10 -60z"/>
<path d="M3647 2773 c-2 -4 -8 -30 -11 -58 -4 -27 -9 -58 -12 -67 -3 -11 0
-18 9 -18 8 0 17 18 24 48 l10 47 13 -47 c17 -59 35 -61 51 -8 14 46 29 53 29
13 0 -16 4 -35 10 -43 18 -29 23 1 11 70 -13 72 -33 93 -45 45 -3 -13 -11 -37
-17 -52 l-11 -28 -17 49 c-16 47 -34 67 -44 49z"/>
<path d="M3892 2768 c-18 -18 -15 -32 18 -63 35 -33 30 -49 -13 -39 l-32 6 19
-21 c21 -23 46 -27 64 -9 19 19 14 42 -13 68 -30 28 -32 44 -6 35 27 -8 36 12
12 24 -25 14 -34 14 -49 -1z"/>
<path d="M3980 2765 c0 -8 7 -15 15 -15 12 0 15 -13 15 -60 0 -33 4 -60 10
-60 6 0 10 27 10 60 0 47 3 60 15 60 8 0 15 7 15 15 0 11 -11 15 -40 15 -29 0
-40 -4 -40 -15z"/>
<path d="M4105 2709 c-26 -68 -27 -102 -1 -66 17 23 72 23 85 0 5 -10 13 -15
17 -10 10 10 -45 147 -60 147 -7 0 -25 -32 -41 -71z m49 -17 c-22 -5 -27 3
-19 29 l7 22 14 -24 c11 -20 10 -25 -2 -27z"/>
<path d="M4240 2705 c0 -60 3 -75 15 -75 11 0 15 12 15 51 l0 51 33 -48 c48
-72 57 -69 57 20 0 44 -4 76 -10 76 -5 0 -10 -20 -10 -45 0 -25 -3 -45 -7 -45
-5 0 -21 20 -36 45 -43 68 -57 60 -57 -30z"/>
<path d="M4400 2705 l0 -75 40 0 c27 0 47 7 60 20 47 47 6 130 -65 130 l-35 0
0 -75z m78 36 c8 -5 12 -22 10 -42 -2 -29 -7 -34 -30 -37 -27 -3 -28 -2 -28
42 0 47 15 59 48 37z"/>
<path d="M4589 2753 c-46 -120 -47 -123 -34 -123 7 0 15 7 19 15 8 21 66 19
82 -2 26 -36 25 -2 -1 66 -30 76 -49 88 -66 44z m41 -50 c0 -7 -9 -13 -20 -13
-17 0 -18 3 -8 25 8 19 14 22 20 13 4 -7 8 -19 8 -25z"/>
<path d="M4710 2705 c0 -60 3 -75 15 -75 10 0 15 10 15 33 l0 32 20 -32 c11
-18 24 -33 30 -33 13 0 13 3 -2 35 -9 19 -9 28 0 37 15 15 15 51 0 66 -7 7
-27 12 -45 12 l-33 0 0 -75z m60 30 c0 -8 -7 -15 -15 -15 -8 0 -15 7 -15 15 0
8 7 15 15 15 8 0 15 -7 15 -15z"/>
<path d="M4830 2705 l0 -75 40 0 c27 0 47 7 60 20 47 47 6 130 -65 130 l-35 0
0 -75z m79 31 c7 -8 11 -27 9 -43 -2 -22 -9 -29 -30 -31 -27 -3 -28 -2 -28 42
0 38 3 46 19 46 10 0 24 -6 30 -14z"/>
<path d="M4992 2768 c-18 -18 -15 -32 18 -63 35 -33 30 -49 -13 -39 l-32 6 19
-21 c21 -23 46 -27 64 -9 20 20 14 45 -18 71 -29 25 -27 43 3 31 23 -8 30 14
8 25 -25 14 -34 14 -49 -1z"/>
<path d="M640 2750 c0 -5 11 -10 25 -10 14 0 25 5 25 10 0 6 -11 10 -25 10
-14 0 -25 -4 -25 -10z"/>
<path d="M3908 2503 c-3 -47 -23 -69 -35 -37 -4 11 1 22 13 31 19 14 19 15 -1
11 -15 -2 -20 -11 -20 -33 0 -26 4 -30 28 -31 26 -1 27 1 27 52 0 66 -8 71
-12 7z"/>
<path d="M4310 2526 c0 -19 -4 -23 -19 -19 -13 3 -23 -2 -31 -19 -10 -21 -10
-22 4 -4 18 22 49 14 44 -11 -2 -11 -12 -18 -25 -17 -12 0 -20 -3 -17 -8 3 -4
16 -7 29 -6 23 2 25 6 25 55 0 29 -2 53 -5 53 -3 0 -5 -11 -5 -24z"/>
<path d="M2951 2488 c1 -29 4 -43 6 -31 2 13 13 24 26 26 l22 4 -22 2 c-16 1
-23 7 -23 20 0 12 8 21 23 24 19 4 18 4 -5 6 -27 1 -28 0 -27 -51z"/>
<path d="M3162 2513 c-8 -8 -9 -13 -2 -13 5 0 10 -13 10 -30 0 -22 5 -30 18
-29 10 0 12 3 5 6 -15 5 -18 50 -4 55 5 2 4 8 -3 14 -8 8 -15 7 -24 -3z"/>
<path d="M4048 2517 c-7 -21 6 -70 20 -73 7 -1 8 0 2 3 -12 6 -13 50 -1 55 5
2 3 8 -4 15 -10 9 -14 9 -17 0z"/>
<path d="M3043 2504 c23 -7 22 -24 -3 -24 -11 0 -20 -4 -20 -10 0 -5 0 -13 0
-17 0 -5 11 -8 25 -9 23 -1 26 2 23 30 -2 22 -9 31 -23 33 -16 1 -16 1 -2 -3z
m12 -44 c-3 -5 -10 -10 -16 -10 -5 0 -9 5 -9 10 0 6 7 10 16 10 8 0 12 -4 9
-10z"/>
<path d="M3094 2496 c-11 -28 1 -51 26 -53 25 -3 25 -3 3 7 -13 5 -23 16 -23
25 0 9 10 20 23 25 l22 9 -23 0 c-12 1 -25 -5 -28 -13z"/>
<path d="M3220 2495 c-18 -22 -8 -50 19 -50 32 0 49 28 32 49 -17 20 -35 20
-51 1z m48 -18 c4 -20 -25 -34 -40 -19 -15 15 -1 44 19 40 10 -2 19 -11 21
-21z"/>
<path d="M3301 2470 c1 -27 3 -29 6 -10 2 14 11 30 20 37 13 10 13 12 -6 10
-17 -1 -21 -7 -20 -37z"/>
<path d="M3356 2495 c3 -11 8 -35 11 -54 6 -33 7 -33 15 -11 5 13 5 26 1 29
-5 3 -14 17 -21 31 -7 14 -10 16 -6 5z"/>
<path d="M3397 2503 c-4 -3 -7 -13 -7 -22 1 -13 3 -13 11 2 11 19 8 33 -4 20z"/>
<path d="M3461 2473 c0 -29 2 -33 8 -18 7 18 4 55 -5 55 -2 0 -4 -17 -3 -37z"/>
<path d="M3501 2471 c1 -36 1 -36 8 -6 8 40 38 46 44 8 4 -28 4 -28 3 2 -1 26
-5 30 -28 31 -26 1 -28 -2 -27 -35z"/>
<path d="M3627 2503 c-4 -3 -7 -15 -7 -25 0 -27 40 -20 51 10 7 19 5 22 -15
22 -12 0 -26 -3 -29 -7z m33 -18 c0 -8 -7 -15 -15 -15 -8 0 -15 7 -15 15 0 8
7 15 15 15 8 0 15 -7 15 -15z"/>
<path d="M3700 2495 c-18 -22 -8 -50 19 -50 32 0 49 28 32 49 -17 20 -35 20
-51 1z m48 -18 c4 -20 -25 -34 -40 -19 -15 15 -1 44 19 40 10 -2 19 -11 21
-21z"/>
<path d="M3784 2496 c-11 -29 0 -51 26 -51 21 0 25 5 25 30 0 24 -5 31 -23 33
-13 2 -24 -3 -28 -12z m46 -21 c0 -18 -5 -25 -20 -25 -15 0 -20 7 -20 25 0 18
5 25 20 25 15 0 20 -7 20 -25z"/>
<path d="M3984 2498 c-4 -6 1 -17 11 -25 22 -15 39 -17 30 -3 -3 6 -13 10 -21
10 -20 0 -18 18 4 23 15 4 15 5 0 6 -9 0 -20 -4 -24 -11z"/>
<path d="M4123 2504 c23 -7 22 -24 -2 -24 -24 0 -36 -29 -15 -37 8 -3 18 -3
21 1 4 3 1 6 -5 6 -7 0 -12 5 -12 10 0 17 28 11 34 -7 2 -10 4 -2 3 17 -2 27
-7 35 -22 37 -16 1 -16 1 -2 -3z"/>
<path d="M4171 2471 l1 -36 9 33 c12 39 36 42 42 5 4 -26 4 -26 3 2 -1 26 -5
30 -28 31 -26 1 -28 -2 -27 -35z"/>
<path d="M4343 2475 c0 -22 2 -30 4 -17 2 12 2 30 0 40 -3 9 -5 -1 -4 -23z"/>
<path d="M4381 2470 l1 -35 7 30 c3 17 13 30 21 30 8 0 18 -13 21 -30 6 -27 7
-27 8 -5 1 34 -11 49 -37 47 -18 -1 -22 -7 -21 -37z"/>
<path d="M4467 2503 c-4 -3 -7 -15 -7 -25 0 -27 40 -20 51 10 7 19 5 22 -15
22 -12 0 -26 -3 -29 -7z m33 -18 c0 -8 -7 -15 -15 -15 -8 0 -15 7 -15 15 0 8
7 15 15 15 8 0 15 -7 15 -15z"/>
<path d="M3645 2440 c25 -6 27 -8 13 -14 -10 -5 -25 -5 -34 -2 -8 3 -12 2 -9
-4 9 -15 52 -12 58 4 8 19 -2 26 -32 25 -25 -1 -25 -2 4 -9z"/>
<path d="M3988 2443 c6 -2 18 -2 25 0 6 3 1 5 -13 5 -14 0 -19 -2 -12 -5z"/>
<path d="M4455 2440 c-4 -7 -3 -16 3 -22 14 -14 57 -6 57 12 0 18 -50 26 -60
10z m50 -10 c-3 -5 -15 -10 -26 -10 -10 0 -19 5 -19 10 0 6 12 10 26 10 14 0
23 -4 19 -10z"/>
<path d="M1685 2370 c-2 -3 5 -6 15 -7 11 -1 22 2 24 5 3 4 -4 8 -15 8 -11 0
-22 -3 -24 -6z"/>
<path d="M7923 2323 c-22 -8 -15 -50 12 -67 37 -24 33 -49 -5 -41 -35 8 -41
-9 -9 -26 28 -15 69 3 69 30 0 11 -13 30 -30 43 -37 27 -39 42 -5 34 27 -7 32
3 13 22 -13 13 -24 14 -45 5z"/>
<path d="M8067 2318 c-43 -101 -54 -138 -42 -138 7 0 15 7 19 15 8 21 66 19
82 -2 25 -35 24 -5 -2 65 -25 68 -45 88 -57 60z m30 -74 c-3 -3 -12 -4 -20 -2
-11 2 -12 9 -5 28 l10 25 11 -23 c5 -12 8 -25 4 -28z"/>
<path d="M8180 2255 c0 -55 3 -75 13 -75 8 0 14 15 16 42 1 23 4 44 5 46 2 1
17 -18 32 -43 42 -66 54 -59 54 30 0 59 -3 75 -14 75 -11 0 -16 -14 -18 -47
l-3 -48 -30 47 c-43 69 -55 63 -55 -27z"/>
<path d="M8373 2318 c-12 -6 -27 -23 -33 -38 -16 -38 9 -86 48 -95 31 -6 82 8
82 24 0 15 -18 23 -25 11 -9 -14 -58 -13 -73 2 -7 7 -12 21 -12 33 0 12 5 26
12 33 15 15 60 16 75 1 8 -8 13 -7 18 1 16 26 -53 48 -92 28z"/>
<path d="M8490 2315 c0 -8 7 -15 15 -15 12 0 15 -13 15 -60 0 -33 4 -60 10
-60 6 0 10 27 10 60 0 47 3 60 15 60 8 0 15 7 15 15 0 11 -11 15 -40 15 -29 0
-40 -4 -40 -15z"/>
<path d="M8591 2255 c1 -55 5 -75 15 -75 11 0 14 19 14 75 0 61 -3 75 -16 75
-12 0 -15 -13 -13 -75z"/>
<path d="M8693 2320 c-71 -29 -47 -134 30 -134 73 0 106 80 51 123 -29 23 -46
25 -81 11z m71 -36 c9 -8 16 -22 16 -29 0 -20 -29 -45 -52 -45 -23 0 -58 26
-58 43 0 19 33 47 56 47 12 0 30 -7 38 -16z"/>
<path d="M8840 2255 c0 -84 17 -103 22 -25 l3 51 33 -51 c48 -73 62 -67 62 25
0 59 -3 75 -14 75 -11 0 -16 -14 -18 -47 l-3 -48 -33 48 c-18 26 -37 47 -42
47 -6 0 -10 -34 -10 -75z"/>
<path d="M9008 2319 c-26 -15 -22 -34 12 -62 17 -14 30 -30 30 -36 0 -14 -27
-14 -35 -1 -7 11 -25 4 -25 -10 0 -15 40 -32 60 -25 28 9 25 47 -5 75 -30 28
-32 44 -6 35 27 -8 36 12 12 24 -23 13 -22 13 -43 0z"/>
<path d="M2174 1768 c78 -156 26 -350 -119 -445 -30 -20 -43 -33 -32 -33 46 0
138 81 175 155 33 66 46 154 33 216 -14 63 -44 129 -70 153 -12 11 -9 -2 13
-46z"/>
<path d="M2830 1675 c0 -60 3 -75 15 -75 12 0 15 15 15 75 0 60 -3 75 -15 75
-12 0 -15 -15 -15 -75z"/>
<path d="M2890 1675 c0 -59 3 -75 14 -75 11 0 16 14 18 46 l3 46 32 -46 c18
-25 37 -46 43 -46 6 0 10 31 10 75 0 82 -17 104 -22 28 l-3 -48 -34 48 c-50
68 -61 63 -61 -28z"/>
<path d="M3076 1729 c-71 -56 17 -169 90 -115 14 11 16 18 8 26 -8 8 -14 9
-18 1 -10 -16 -52 -13 -70 5 -37 36 -3 79 56 70 41 -7 51 6 19 24 -30 15 -56
12 -85 -11z"/>
<path d="M3250 1737 c-73 -37 -27 -153 54 -133 60 15 78 87 30 125 -31 24 -49
26 -84 8z m74 -33 c9 -8 16 -22 16 -29 0 -21 -29 -45 -54 -45 -28 0 -46 18
-46 45 0 43 53 61 84 29z"/>
<path d="M3400 1675 c0 -43 4 -75 10 -75 6 0 10 20 10 45 0 25 3 45 8 45 4 0
20 -20 35 -45 43 -68 57 -60 57 30 0 59 -3 75 -14 75 -11 0 -16 -14 -18 -47
l-3 -48 -30 47 c-43 69 -55 63 -55 -27z"/>
<path d="M3566 1734 c-19 -18 -8 -47 24 -64 22 -12 27 -40 7 -40 -7 0 -18 5
-24 11 -8 8 -13 7 -18 -1 -4 -7 0 -19 9 -28 12 -12 22 -14 43 -6 39 13 40 40
4 71 -37 33 -40 47 -6 39 27 -7 32 3 13 22 -16 16 -33 15 -52 -4z"/>
<path d="M3670 1675 c0 -43 4 -75 10 -75 6 0 10 32 10 75 0 43 -4 75 -10 75
-6 0 -10 -32 -10 -75z"/>
<path d="M3736 1734 c-19 -18 -8 -47 24 -64 22 -12 27 -40 7 -40 -7 0 -18 5
-24 11 -16 16 -28 -8 -13 -26 18 -21 57 -18 70 4 14 27 14 29 -22 61 -30 28
-34 56 -4 31 19 -16 32 4 16 24 -16 19 -35 19 -54 -1z"/>
<path d="M3830 1735 c0 -8 5 -15 10 -15 6 0 10 -27 10 -60 0 -47 3 -60 15 -60
12 0 15 13 15 60 0 47 3 60 15 60 8 0 15 7 15 15 0 11 -11 15 -40 15 -29 0
-40 -4 -40 -15z"/>
<path d="M3930 1675 l0 -75 40 0 c29 0 40 4 40 15 0 9 -9 15 -25 15 -18 0 -25
5 -25 20 0 15 7 20 25 20 16 0 25 6 25 15 0 9 -9 15 -25 15 -14 0 -25 5 -25
10 0 6 11 10 25 10 16 0 25 6 25 15 0 11 -11 15 -40 15 l-40 0 0 -75z"/>
<path d="M4040 1675 c0 -59 3 -75 14 -75 11 0 16 14 18 46 l3 46 32 -46 c18
-25 37 -46 43 -46 6 0 10 31 10 75 0 43 -4 75 -10 75 -5 0 -10 -20 -10 -45 0
-25 -3 -45 -7 -45 -5 0 -21 20 -36 45 -43 68 -57 60 -57 -30z"/>
<path d="M4190 1735 c0 -8 5 -15 10 -15 6 0 10 -27 10 -60 0 -47 3 -60 15 -60
12 0 15 13 15 60 0 47 3 60 15 60 8 0 15 7 15 15 0 11 -11 15 -40 15 -29 0
-40 -4 -40 -15z"/>
<path d="M1695 1710 c8 -16 15 -38 15 -50 0 -11 5 -20 10 -20 6 0 10 9 10 20
0 12 7 34 15 50 10 20 12 30 4 30 -6 0 -13 -9 -16 -20 -3 -11 -9 -20 -13 -20
-5 0 -12 9 -15 20 -3 11 -11 20 -16 20 -5 0 -3 -13 6 -30z"/>
<path d="M1770 1690 c0 -49 1 -50 30 -50 17 0 30 5 30 10 0 6 -9 10 -20 10
-11 0 -20 5 -20 10 0 6 7 10 15 10 8 0 15 5 15 10 0 6 -7 10 -15 10 -8 0 -15
5 -15 10 0 6 9 10 20 10 11 0 20 5 20 10 0 6 -13 10 -30 10 -29 0 -30 -1 -30
-50z"/>
<path d="M1850 1690 c0 -47 2 -50 25 -50 14 0 25 5 25 10 0 6 -7 10 -15 10
-11 0 -15 11 -15 40 0 22 -4 40 -10 40 -5 0 -10 -22 -10 -50z"/>
<path d="M1920 1690 c0 -47 2 -50 25 -50 14 0 25 5 25 10 0 6 -7 10 -15 10
-11 0 -15 11 -15 40 0 22 -4 40 -10 40 -5 0 -10 -22 -10 -50z"/>
<path d="M1996 1724 c-40 -39 0 -98 50 -75 17 7 24 19 24 39 0 49 -42 69 -74
36z m57 -16 c7 -23 -5 -48 -24 -48 -22 0 -34 22 -25 45 7 18 43 20 49 3z"/>
<path d="M396 1644 c-20 -20 -21 -88 -1 -104 20 -17 62 -5 70 21 9 26 -11 49
-42 49 -22 0 -24 2 -13 15 7 8 21 15 31 15 11 0 19 5 19 10 0 16 -47 12 -64
-6z m44 -74 c0 -21 -24 -28 -35 -10 -8 14 3 30 21 30 8 0 14 -9 14 -20z"/>
<path d="M503 1648 c-32 -41 -23 -105 15 -115 49 -12 84 73 46 111 -19 19 -48
21 -61 4z m42 -54 c0 -28 -4 -39 -15 -39 -16 0 -26 45 -16 72 11 28 31 7 31
-33z"/>
<path d="M776 1644 c-20 -20 -21 -88 -1 -104 20 -17 62 -5 70 21 9 26 -11 49
-42 49 -22 0 -24 2 -13 15 7 8 21 15 31 15 11 0 19 5 19 10 0 16 -47 12 -64
-6z m44 -74 c0 -11 -6 -20 -14 -20 -18 0 -29 16 -21 30 11 18 35 11 35 -10z"/>
<path d="M876 1644 c-30 -29 -12 -64 32 -64 21 0 22 -2 12 -15 -7 -8 -21 -15
-31 -15 -11 0 -19 -4 -19 -10 0 -16 47 -12 64 6 19 18 21 85 4 102 -17 17 -44
15 -62 -4z m49 -24 c0 -8 -8 -16 -17 -18 -13 -2 -18 3 -18 18 0 15 5 20 18 18
9 -2 17 -10 17 -18z"/>
<path d="M640 1580 c0 -5 11 -10 25 -10 14 0 25 5 25 10 0 6 -11 10 -25 10
-14 0 -25 -4 -25 -10z"/>
<path d="M1816 1523 c19 -79 38 -94 50 -40 l7 32 14 -32 c7 -18 17 -33 23 -33
11 0 33 76 27 93 -3 7 -8 -3 -12 -21 -10 -45 -22 -48 -29 -7 -8 43 -24 45 -33
5 -8 -43 -20 -45 -27 -5 -4 19 -11 35 -17 35 -5 0 -7 -12 -3 -27z"/>
<path d="M3109 1508 c-6 -12 -3 -108 3 -108 5 0 8 25 8 55 0 45 -5 67 -11 53z"/>
<path d="M4360 1487 c0 -18 -5 -23 -22 -23 -19 1 -23 -4 -23 -29 0 -26 4 -30
28 -31 26 -1 27 1 27 52 0 30 -2 54 -5 54 -3 0 -5 -10 -5 -23z m-5 -53 c0 -10
-8 -20 -17 -22 -18 -3 -26 27 -11 42 12 11 28 0 28 -20z"/>
<path d="M4570 1490 c0 -13 -7 -20 -19 -20 -26 0 -34 -15 -27 -45 5 -19 12
-24 31 -23 23 2 25 6 25 55 0 29 -2 53 -5 53 -3 0 -5 -9 -5 -20z m0 -49 c0
-11 -5 -23 -11 -27 -15 -9 -33 12 -26 30 9 23 37 20 37 -3z"/>
<path d="M2940 1450 c0 -50 1 -51 28 -48 25 3 27 6 27 48 0 42 -2 45 -27 48
-27 3 -28 2 -28 -48z m48 28 c-7 -19 -38 -22 -38 -4 0 10 9 16 21 16 12 0 19
-5 17 -12z m2 -48 c0 -13 -7 -20 -20 -20 -13 0 -20 7 -20 20 0 13 7 20 20 20
13 0 20 -7 20 -20z"/>
<path d="M3625 1490 c-3 -5 -1 -10 4 -10 6 0 11 5 11 10 0 6 -2 10 -4 10 -3 0
-8 -4 -11 -10z"/>
<path d="M4101 1476 c-9 -10 -8 -15 2 -19 22 -8 37 6 22 20 -10 10 -16 9 -24
-1z"/>
<path d="M3030 1455 c-18 -22 -1 -49 31 -52 19 -1 20 -1 4 4 -34 9 -41 23 -11
23 21 0 27 4 24 17 -4 24 -32 28 -48 8z m40 -5 c0 -5 -9 -10 -21 -10 -11 0
-17 5 -14 10 3 6 13 10 21 10 8 0 14 -4 14 -10z"/>
<path d="M3144 1456 c-10 -25 0 -51 20 -54 27 -6 48 25 35 49 -12 22 -47 25
-55 5z m46 -21 c0 -18 -5 -25 -20 -25 -20 0 -28 28 -13 43 15 16 33 6 33 -18z"/>
<path d="M3221 1469 c-1 -3 4 -20 10 -38 12 -33 29 -42 29 -14 0 9 -3 13 -7 9
-4 -3 -12 6 -19 21 -7 16 -13 25 -13 22z"/>
<path d="M3260 1454 c0 -8 5 -12 10 -9 6 3 10 10 10 16 0 5 -4 9 -10 9 -5 0
-10 -7 -10 -16z"/>
<path d="M3381 1431 c1 -35 2 -35 8 -7 9 43 31 45 32 4 l1 -33 7 30 c9 43 38
45 44 3 l5 -33 -2 35 c-1 35 -1 35 -48 36 l-48 1 1 -36z"/>
<path d="M3513 1435 c0 -22 2 -30 4 -17 2 12 2 30 0 40 -3 9 -5 -1 -4 -23z"/>
<path d="M3541 1431 c1 -36 1 -36 8 -6 8 40 38 46 44 8 4 -28 4 -28 3 2 -1 26
-5 30 -28 31 -26 1 -28 -2 -27 -35z"/>
<path d="M3633 1435 c0 -22 2 -30 4 -17 2 12 2 30 0 40 -3 9 -5 -1 -4 -23z"/>
<path d="M3661 1430 c1 -35 1 -35 8 -5 3 17 14 31 24 33 13 3 17 -4 18 -30 1
-27 3 -29 6 -8 7 38 21 47 37 24 15 -19 15 -18 10 2 -5 19 -13 21 -55 21 l-49
-1 1 -36z"/>
<path d="M3793 1440 c2 -31 5 -35 30 -36 25 -1 27 2 26 35 -1 36 -1 36 -8 6
-3 -17 -13 -30 -21 -30 -8 0 -18 13 -22 30 -6 29 -6 29 -5 -5z"/>
<path d="M3876 1437 c5 -41 14 -47 14 -9 0 45 30 44 31 0 l1 -33 7 30 c3 17
13 30 21 30 8 0 18 -13 22 -30 6 -29 6 -29 5 5 l-2 35 -52 1 c-51 1 -51 0 -47
-29z"/>
<path d="M4040 1455 c0 -9 7 -18 15 -21 23 -9 18 -24 -7 -25 -19 -1 -20 -2 -4
-6 28 -7 45 15 24 31 -10 7 -18 16 -18 19 0 3 8 8 18 10 13 4 11 5 -5 6 -15 1
-23 -5 -23 -14z"/>
<path d="M4156 1461 c-4 -5 3 -7 14 -4 11 3 20 1 20 -5 0 -5 -9 -12 -21 -15
-28 -8 -19 -32 13 -33 19 -1 25 4 23 15 -2 9 -4 24 -4 34 -1 18 -35 24 -45 8z
m34 -41 c0 -5 -7 -10 -15 -10 -8 0 -15 5 -15 10 0 6 7 10 15 10 8 0 15 -4 15
-10z"/>
<path d="M4231 1431 c1 -36 1 -36 8 -6 3 17 13 30 21 30 8 0 18 -13 22 -30 6
-29 6 -29 5 5 -2 31 -5 35 -29 36 -26 1 -28 -2 -27 -35z"/>
<path d="M4425 1458 c19 -12 19 -12 -5 -18 -35 -8 -32 -35 3 -36 26 -1 28 2
25 30 -2 22 -9 32 -23 34 l-20 3 20 -13z m7 -40 c-9 -9 -15 -9 -24 0 -9 9 -7
12 12 12 19 0 21 -3 12 -12z"/>
<path d="M4471 1430 c1 -27 3 -29 6 -10 2 14 11 30 20 37 13 10 13 12 -6 10
-17 -1 -21 -7 -20 -37z"/>
<path d="M4610 1455 c0 -9 7 -18 15 -21 23 -9 18 -24 -7 -25 -19 -1 -20 -2 -4
-6 28 -7 45 15 24 31 -10 7 -18 16 -18 19 0 3 8 8 18 10 13 4 11 5 -5 6 -15 1
-23 -5 -23 -14z"/>
<path d="M3300 1424 c0 -16 -2 -17 -10 -4 -6 9 -10 10 -10 3 0 -19 20 -26 26
-8 4 9 4 19 0 22 -3 4 -6 -2 -6 -13z"/>
<path d="M4102 1423 c2 -10 12 -19 23 -21 18 -3 19 -2 2 8 -9 6 -15 15 -12 21
4 5 1 9 -5 9 -6 0 -10 -8 -8 -17z"/>
<path d="M1778 821 c-108 -35 -179 -98 -227 -200 -22 -47 -26 -70 -26 -141 1
-70 5 -95 27 -142 108 -232 399 -288 576 -111 175 176 131 458 -89 568 -88 45
-178 54 -261 26z m46 -307 c4 -9 2 -22 -3 -28 -6 -7 -6 -17 -1 -26 13 -21 12
-30 -3 -30 -8 0 -19 10 -25 23 l-11 22 0 -22 c-1 -14 -7 -23 -16 -23 -11 0
-15 12 -15 50 l0 50 34 0 c22 0 36 -6 40 -16z m86 6 c0 -5 -9 -10 -20 -10 -11
0 -20 -4 -20 -10 0 -5 7 -10 15 -10 8 0 15 -4 15 -10 0 -5 -7 -10 -15 -10 -8
0 -15 -4 -15 -10 0 -5 9 -10 20 -10 11 0 20 -4 20 -10 0 -5 -16 -10 -35 -10
l-35 0 0 50 0 50 35 0 c19 0 35 -4 35 -10z m88 -2 c7 -7 12 -24 12 -38 0 -35
-17 -50 -57 -50 -33 0 -33 0 -33 50 0 50 0 50 33 50 18 0 38 -5 45 -12z"/>
<path d="M1780 500 c0 -5 5 -10 10 -10 6 0 10 5 10 10 0 6 -4 10 -10 10 -5 0
-10 -4 -10 -10z"/>
<path d="M1950 480 c0 -21 4 -30 13 -27 6 2 12 14 12 27 0 13 -6 25 -12 28 -9
2 -13 -7 -13 -28z"/>
<path d="M7670 757 c0 -10 -5 -15 -11 -12 -6 4 -9 1 -8 -6 1 -8 -1 -21 -4 -29
-3 -8 -31 -127 -63 -265 -31 -137 -64 -285 -74 -327 l-17 -78 1003 0 c798 0
1003 3 999 13 -2 6 -27 115 -55 241 -77 345 -117 502 -119 462 -1 -15 -4 -16
-16 -6 -8 7 -15 9 -15 4 0 -5 -350 -8 -802 -6 -624 2 -804 5 -810 15 -5 8 -8
7 -8 -6z"/>
<path d="M2830 582 c0 -44 5 -63 18 -75 22 -20 53 -22 70 -5 15 15 16 138 2
138 -5 0 -10 -21 -10 -47 0 -56 -11 -78 -34 -70 -12 5 -16 20 -16 62 0 42 -3
55 -15 55 -12 0 -15 -13 -15 -58z"/>
<path d="M2970 565 c0 -60 3 -75 15 -75 11 0 15 12 15 48 l0 47 33 -47 c46
-68 57 -63 57 27 0 60 -3 75 -15 75 -11 0 -15 -12 -15 -47 l0 -48 -31 48 c-46
69 -59 63 -59 -28z"/>
<path d="M3132 628 c-19 -19 -14 -34 18 -61 17 -14 30 -30 30 -36 0 -14 -27
-14 -36 0 -4 7 -9 8 -17 0 -7 -7 -6 -15 3 -26 24 -28 80 -13 80 23 0 7 -14 26
-32 42 -30 28 -34 56 -4 31 19 -16 32 4 16 24 -15 18 -42 19 -58 3z"/>
<path d="M3240 581 c0 -63 15 -91 50 -91 35 0 50 28 50 91 0 46 -3 59 -15 59
-12 0 -15 -13 -15 -60 0 -53 -2 -60 -20 -60 -18 0 -20 7 -20 60 0 47 -3 60
-15 60 -12 0 -15 -13 -15 -59z"/>
<path d="M3396 617 c-33 -33 -33 -71 -1 -102 27 -28 71 -33 101 -11 14 11 16
18 8 26 -8 8 -14 9 -18 1 -10 -16 -62 -13 -76 3 -15 20 -9 56 12 70 13 8 26 7
48 -1 20 -7 32 -8 36 -1 9 15 -9 28 -49 35 -29 4 -40 1 -61 -20z"/>
<path d="M3575 628 c-28 -16 -35 -28 -35 -63 0 -36 8 -48 37 -64 29 -15 55
-14 79 3 14 11 16 18 8 26 -8 8 -14 9 -18 1 -11 -18 -51 -13 -70 8 -36 40 3
79 64 66 34 -8 41 8 11 25 -25 13 -51 12 -76 -2z"/>
<path d="M3710 565 l0 -75 40 0 c29 0 40 4 40 15 0 9 -9 15 -25 15 -18 0 -25
5 -25 20 0 15 7 20 25 20 16 0 25 6 25 15 0 9 -9 15 -25 15 -14 0 -25 5 -25
10 0 6 11 10 25 10 16 0 25 6 25 15 0 11 -11 15 -40 15 l-40 0 0 -75z"/>
<path d="M3832 628 c-19 -19 -14 -36 18 -65 20 -17 27 -30 21 -36 -7 -7 -15
-6 -23 1 -8 6 -19 7 -27 3 -16 -10 12 -41 38 -41 44 0 53 45 16 80 -28 27 -33
45 -9 36 23 -9 37 3 23 20 -14 17 -41 18 -57 2z"/>
<path d="M3942 628 c-19 -19 -14 -36 18 -65 21 -18 27 -30 20 -37 -7 -7 -14
-6 -21 1 -6 6 -18 9 -26 6 -11 -5 -11 -9 3 -24 20 -22 45 -24 62 -7 19 19 14
42 -13 68 -28 27 -33 45 -9 36 23 -9 37 3 23 20 -14 17 -41 18 -57 2z"/>
<path d="M4050 565 c0 -43 4 -75 10 -75 6 0 10 16 10 35 0 31 3 35 25 35 16 0
25 6 25 15 0 9 -9 15 -25 15 -14 0 -25 5 -25 10 0 6 11 10 25 10 16 0 25 6 25
15 0 10 -11 15 -35 15 l-35 0 0 -75z"/>
<path d="M4150 577 c0 -67 10 -87 45 -87 37 0 55 31 55 93 0 43 -4 57 -15 57
-10 0 -15 -15 -17 -57 -3 -50 -6 -58 -23 -58 -17 0 -20 8 -23 58 -4 77 -22 73
-22 -6z"/>
<path d="M4280 565 l0 -75 35 0 c24 0 35 5 35 15 0 8 -9 15 -20 15 -18 0 -20
7 -20 60 0 47 -3 60 -15 60 -12 0 -15 -15 -15 -75z"/>
<path d="M668 539 c-13 -7 -18 -23 -18 -59 0 -40 4 -50 20 -55 11 -3 29 -3 41
0 16 5 19 14 17 38 -3 28 -7 32 -31 32 -37 -1 -32 29 6 33 15 2 25 8 22 13 -8
12 -35 11 -57 -2z m37 -79 c0 -22 -29 -18 -33 3 -3 14 1 18 15 15 10 -2 18
-10 18 -18z"/>
<path d="M760 531 c-14 -27 -13 -84 2 -99 15 -15 51 -15 66 0 16 16 16 90 0
106 -18 18 -56 14 -68 -7z m56 -25 c7 -31 -3 -66 -21 -66 -16 0 -26 38 -18 68
7 29 31 28 39 -2z"/>
<path d="M490 521 c0 -4 14 -14 32 -22 l32 -16 -32 -18 c-44 -26 -40 -39 6
-20 46 20 59 32 47 44 -15 14 -85 41 -85 32z"/>
<path d="M3360 381 c0 -13 -8 -21 -22 -23 -18 -2 -23 -10 -23 -33 0 -26 4 -30
28 -31 26 -1 27 1 27 52 0 30 -2 54 -5 54 -3 0 -5 -9 -5 -19z m0 -50 c0 -11
-5 -23 -11 -27 -15 -9 -33 12 -26 30 9 23 37 20 37 -3z"/>
<path d="M4640 376 c0 -18 -4 -23 -18 -19 -10 2 -25 -3 -32 -12 -19 -23 -1
-50 34 -51 25 -1 26 1 26 52 0 30 -2 54 -5 54 -3 0 -5 -11 -5 -24z m-5 -51 c0
-11 -8 -21 -17 -23 -14 -3 -18 3 -18 23 0 20 4 26 18 23 9 -2 17 -12 17 -23z"/>
<path d="M2943 340 c0 -30 2 -43 4 -27 2 15 2 39 0 55 -2 15 -4 2 -4 -28z"/>
<path d="M3508 368 c-9 -27 7 -73 27 -76 18 -2 19 -2 3 8 -10 6 -18 20 -18 30
0 12 7 20 18 21 13 0 14 2 2 6 -8 3 -18 10 -21 15 -3 5 -8 4 -11 -4z"/>
<path d="M3822 363 c-8 -8 -9 -13 -2 -13 5 0 10 -13 10 -30 0 -22 5 -30 18
-29 10 0 12 3 5 6 -15 5 -18 50 -4 55 5 2 4 8 -3 14 -8 8 -15 7 -24 -3z"/>
<path d="M2981 321 c1 -35 2 -35 8 -7 11 51 37 45 32 -6 -1 -10 3 -18 8 -18 6
0 11 14 11 30 0 42 27 40 33 -2 l5 -33 -2 35 c-1 35 -1 35 -48 36 l-48 1 1
-36z"/>
<path d="M3113 325 c0 -22 2 -30 4 -17 2 12 2 30 0 40 -3 9 -5 -1 -4 -23z"/>
<path d="M3138 353 c6 -2 13 -19 13 -36 l1 -32 7 30 c3 17 13 30 21 30 8 0 18
-13 22 -30 6 -29 6 -29 5 5 -2 34 -4 35 -42 37 -22 0 -34 -1 -27 -4z"/>
<path d="M3242 351 c-8 -4 -12 -19 -10 -32 2 -19 10 -24 33 -26 18 -1 22 1 10
4 -36 9 -40 23 -7 23 30 0 32 2 22 20 -11 21 -27 25 -48 11z m38 -11 c0 -5 -9
-10 -21 -10 -11 0 -17 5 -14 10 3 6 13 10 21 10 8 0 14 -4 14 -10z"/>
<path d="M3403 325 c0 -22 2 -30 4 -17 2 12 2 30 0 40 -3 9 -5 -1 -4 -23z"/>
<path d="M3435 351 c-3 -7 0 -8 9 -5 8 3 21 2 28 -2 9 -6 5 -10 -12 -14 -35
-8 -32 -35 3 -36 26 -1 28 2 25 30 -2 23 -9 32 -25 34 -11 2 -24 -2 -28 -7z
m40 -41 c-3 -5 -13 -10 -21 -10 -8 0 -14 5 -14 10 0 6 9 10 21 10 11 0 17 -4
14 -10z"/>
<path d="M3564 346 c-12 -30 0 -51 31 -53 18 -1 22 1 10 4 -34 9 -41 23 -11
23 21 0 27 4 24 18 -4 22 -46 29 -54 8z m46 -6 c0 -5 -9 -10 -21 -10 -11 0
-17 5 -14 10 3 6 13 10 21 10 8 0 14 -4 14 -10z"/>
<path d="M3686 351 c-3 -5 3 -7 14 -4 11 3 20 0 20 -6 0 -6 -9 -11 -19 -11
-24 0 -36 -29 -15 -37 8 -3 18 -3 21 1 4 3 1 6 -5 6 -7 0 -12 5 -12 10 0 17
28 11 34 -7 2 -10 4 -2 3 17 -2 34 -27 54 -41 31z"/>
<path d="M3754 346 c-11 -28 1 -51 26 -53 25 -3 25 -3 3 7 -13 5 -23 16 -23
25 0 9 10 20 23 25 l22 9 -23 0 c-12 1 -25 -5 -28 -13z"/>
<path d="M3883 325 c0 -22 2 -30 4 -17 2 12 2 30 0 40 -3 9 -5 -1 -4 -23z"/>
<path d="M3914 346 c-11 -28 1 -51 25 -51 32 0 49 28 32 49 -17 20 -50 21 -57
2z m49 -8 c6 -19 -3 -38 -18 -38 -18 0 -28 17 -21 35 7 18 33 20 39 3z"/>
<path d="M4001 321 c1 -36 1 -36 8 -6 3 17 13 30 21 30 8 0 18 -13 22 -30 6
-29 6 -29 5 5 -2 31 -5 35 -29 36 -26 1 -28 -2 -27 -35z"/>
<path d="M4121 320 c1 -27 3 -29 6 -10 2 14 11 30 20 37 13 10 13 12 -6 10
-17 -1 -21 -7 -20 -37z"/>
<path d="M4174 346 c-11 -30 0 -51 29 -52 25 -1 25 -1 2 3 -33 6 -32 23 1 23
19 0 25 5 22 18 -4 22 -46 29 -54 8z m41 -6 c3 -5 -3 -10 -15 -10 -12 0 -18 5
-15 10 3 6 10 10 15 10 5 0 12 -4 15 -10z"/>
<path d="M4254 346 c-10 -26 1 -51 21 -51 11 0 23 -9 27 -20 3 -12 6 0 7 30 1
47 -1 51 -24 53 -15 1 -28 -4 -31 -12z m41 -22 c0 -10 -8 -20 -17 -22 -18 -3
-26 27 -11 42 12 11 28 0 28 -20z"/>
<path d="M4337 353 c-4 -7 -5 -23 -1 -37 5 -19 12 -25 30 -24 21 2 24 7 23 38
-1 34 -1 34 -8 6 -9 -42 -29 -44 -33 -4 -2 20 -6 28 -11 21z"/>
<path d="M4423 325 c0 -22 2 -30 4 -17 2 12 2 30 0 40 -3 9 -5 -1 -4 -23z"/>
<path d="M4450 325 c0 -19 5 -35 10 -35 6 0 10 13 10 29 0 16 6 32 13 34 6 3
2 6 -10 6 -20 1 -23 -4 -23 -34z"/>
<path d="M4509 344 c-17 -21 0 -48 32 -51 23 -1 23 -1 2 4 -31 6 -29 23 2 23
27 0 32 9 13 28 -16 16 -33 15 -49 -4z m41 -4 c0 -5 -7 -10 -15 -10 -8 0 -15
5 -15 10 0 6 7 10 15 10 8 0 15 -4 15 -10z"/>
</g>
</svg>
