<?xml version="1.0" standalone="no"?>
<!DOCTYPE svg PUBLIC "-//W3C//DTD SVG 20010904//EN"
 "http://www.w3.org/TR/2001/REC-SVG-20010904/DTD/svg10.dtd">
<svg version="1.0" xmlns="http://www.w3.org/2000/svg"
 width="1280.000000pt" height="624.000000pt" viewBox="0 0 1280.000000 624.000000"
 preserveAspectRatio="xMidYMid meet">

<g transform="translate(0.000000,624.000000) scale(0.100000,-0.100000)"
fill="#000000" stroke="none">
<path d="M20 5705 l0 -485 6390 0 6390 0 0 485 0 485 -6390 0 -6390 0 0 -485z
m280 155 c0 -17 -7 -20 -50 -20 l-50 0 0 -40 0 -40 45 0 c38 0 45 -3 45 -20 0
-17 -7 -20 -45 -20 l-45 0 0 -55 c0 -54 0 -55 -30 -55 l-30 0 0 135 0 135 80
0 c73 0 80 -2 80 -20z m256 -13 c46 -53 43 -145 -5 -199 -24 -27 -36 -32 -87
-35 -78 -5 -118 18 -134 78 -17 61 -4 117 36 157 33 33 36 34 101 30 56 -4 69
-8 89 -31z m263 18 c66 -33 74 -170 15 -226 -33 -31 -132 -39 -170 -14 -74 48
-68 199 8 242 31 17 113 16 147 -2z m355 -68 c10 -46 21 -89 25 -96 4 -6 15
24 25 66 27 119 24 113 60 113 l32 0 23 -95 c13 -52 24 -95 26 -95 2 0 13 43
26 95 22 93 24 95 52 95 33 0 34 9 -12 -161 l-28 -104 -40 -3 -39 -3 -19 76
c-11 41 -22 75 -25 75 -4 0 -14 -34 -24 -75 l-18 -75 -39 0 c-34 0 -39 3 -45
28 -22 85 -63 225 -63 215 -1 -8 -15 -13 -36 -13 l-34 0 -3 -112 -3 -113 -30
0 -30 0 -3 113 -3 112 -34 0 c-28 0 -35 4 -35 20 0 19 7 20 138 20 l139 0 17
-83z m494 66 c-2 -14 -15 -19 -56 -21 l-52 -3 0 -35 c0 -34 0 -34 45 -34 38 0
45 -3 45 -20 0 -17 -7 -20 -45 -20 l-45 0 0 -40 0 -40 55 0 c48 0 55 -2 55
-20 0 -18 -7 -20 -85 -20 l-85 0 0 135 0 135 86 0 c76 0 85 -2 82 -17z m217
-95 c60 -170 59 -158 20 -158 -29 0 -34 4 -40 30 -6 29 -9 30 -60 30 -51 0
-54 -1 -60 -30 -5 -25 -11 -30 -36 -30 -16 0 -29 4 -29 9 0 6 45 140 85 249 2
7 21 12 43 12 l38 0 39 -112z m252 86 c20 -20 24 -31 19 -57 -3 -18 -15 -40
-26 -49 -12 -9 -16 -19 -10 -23 10 -6 50 -91 50 -106 0 -5 -13 -9 -30 -9 -25
0 -32 6 -50 47 -19 44 -35 62 -52 63 -4 0 -8 -24 -10 -52 -3 -52 -4 -53 -35
-56 l-33 -3 0 135 0 136 75 0 c68 0 79 -3 102 -26z m361 10 c50 -35 68 -128
37 -188 -17 -32 -16 -34 17 -50 29 -14 31 -50 3 -54 -11 -1 -36 7 -55 19 -25
16 -48 22 -78 20 -93 -5 -132 36 -132 140 0 56 3 64 34 95 31 31 39 34 93 34
37 0 67 -6 81 -16z m160 -92 c3 -98 4 -103 27 -114 19 -9 29 -7 50 6 24 16 25
20 25 116 l0 100 30 0 30 0 0 -106 c0 -103 -1 -106 -29 -135 -25 -24 -37 -29
-81 -29 -98 0 -120 32 -120 175 l0 96 33 -3 32 -3 3 -103z m351 81 c23 -60 81
-226 81 -234 0 -5 -14 -9 -31 -9 -24 0 -32 6 -40 30 -10 28 -15 30 -59 30 -44
0 -49 -2 -59 -30 -8 -24 -16 -30 -40 -30 -17 0 -31 1 -31 3 0 1 18 54 41 117
23 63 43 123 46 133 4 12 16 17 43 17 32 0 39 -4 49 -27z m171 -88 l0 -115 45
0 c38 0 45 -3 45 -20 0 -18 -7 -20 -75 -20 l-75 0 0 135 0 135 30 0 30 0 0
-115z m180 -20 l0 -135 -30 0 -30 0 0 135 0 135 30 0 30 0 0 -135z m322 90
c12 -25 25 -45 28 -45 4 0 15 19 26 43 16 35 24 42 52 45 17 2 32 1 32 -3 0
-3 -18 -41 -40 -85 -31 -61 -40 -91 -40 -130 0 -49 -1 -50 -30 -50 -29 0 -30
1 -30 48 0 36 -9 64 -37 117 l-38 70 -42 -3 -43 -3 0 -115 0 -114 -30 0 -30 0
0 115 0 115 -40 0 c-33 0 -40 3 -40 20 0 19 7 20 140 20 l140 0 22 -45z m318
-90 l0 -135 -30 0 -30 0 0 135 0 135 30 0 30 0 0 -135z m181 35 l47 -95 -3 85
c-2 101 0 110 30 110 29 0 37 -39 30 -160 -2 -47 -4 -91 -5 -98 0 -9 -12 -12
-37 -10 -35 3 -39 7 -82 90 l-46 87 -3 -89 -3 -90 -29 0 -30 0 0 136 0 135 42
-3 42 -3 47 -95z m349 63 c57 -63 47 -166 -20 -211 -29 -19 -45 -22 -105 -20
l-70 3 -3 119 c-1 66 0 126 3 134 4 11 23 13 86 10 76 -3 82 -5 109 -35z m240
17 c0 -18 -7 -20 -53 -20 l-54 0 1 -32 c1 -31 3 -33 44 -36 33 -3 42 -7 42
-22 0 -15 -9 -19 -42 -22 -42 -3 -43 -4 -43 -38 l0 -35 53 -3 c44 -3 52 -6 52
-23 0 -17 -7 -19 -85 -19 l-85 0 0 135 0 135 85 0 c78 0 85 -2 85 -20z m111
-22 l21 -42 25 42 c20 34 31 42 54 42 36 0 36 -7 -2 -75 l-31 -55 36 -64 c20
-35 36 -67 36 -70 0 -3 -16 -6 -35 -6 -32 0 -37 4 -57 45 -12 24 -25 42 -30
39 -5 -3 -17 -23 -28 -45 -17 -32 -26 -39 -50 -39 -17 0 -30 3 -30 8 0 4 14
35 32 69 l33 62 -30 58 c-16 32 -31 61 -33 66 -2 4 12 7 32 7 32 0 38 -5 57
-42z"/>
<path d="M416 5816 c-21 -20 -26 -35 -26 -74 0 -55 14 -78 52 -87 43 -11 78
31 78 93 0 55 -14 78 -52 87 -21 5 -33 1 -52 -19z"/>
<path d="M700 5820 c-15 -15 -20 -33 -20 -73 0 -60 13 -83 52 -92 68 -17 109
105 53 160 -29 30 -58 32 -85 5z"/>
<path d="M1791 5780 c-7 -23 -15 -48 -18 -56 -4 -10 4 -14 32 -14 40 0 39 -5
11 79 l-12 33 -13 -42z"/>
<path d="M2030 5800 c0 -41 8 -47 41 -30 23 13 25 55 3 64 -35 13 -44 7 -44
-34z"/>
<path d="M2375 5815 c-19 -18 -25 -35 -25 -70 0 -35 6 -52 25 -70 29 -30 45
-31 79 -4 22 18 26 28 26 75 0 87 -53 122 -105 69z"/>
<path d="M2942 5771 c-17 -56 -15 -61 19 -61 28 0 31 2 25 25 -8 33 -25 75
-29 75 -2 0 -9 -17 -15 -39z"/>
<path d="M4400 5745 l0 -97 32 6 c46 9 60 27 65 83 6 58 -15 90 -64 99 l-33 7
0 -98z"/>
<path d="M440 4510 l0 -210 1400 0 1400 0 0 210 0 210 -1400 0 -1400 0 0 -210z
m240 19 c0 -71 -2 -80 -17 -77 -15 3 -18 16 -21 81 -3 72 -1 77 18 77 18 0 20
-6 20 -81z m190 56 c0 -21 5 -25 29 -25 31 0 41 -14 41 -60 0 -37 -17 -49 -68
-48 l-42 0 0 79 c0 72 2 79 20 79 15 0 20 -7 20 -25z m240 -55 c0 -64 -3 -80
-15 -80 -12 0 -15 16 -15 80 0 64 3 80 15 80 12 0 15 -16 15 -80z m860 0 c0
-73 -2 -80 -20 -80 -18 0 -20 7 -20 80 0 73 2 80 20 80 18 0 20 -7 20 -80z
m58 68 c-7 -19 -38 -22 -38 -4 0 10 9 16 21 16 12 0 19 -5 17 -12z m820 -48
c5 -89 -1 -100 -53 -100 -39 0 -47 4 -57 25 -18 41 0 79 40 83 27 3 32 7 32
28 0 19 5 25 18 22 13 -2 18 -15 20 -58z m330 0 c4 -91 -1 -100 -53 -100 -39
0 -47 4 -57 25 -17 39 0 79 37 85 22 4 31 11 33 28 2 15 9 22 20 20 13 -2 18
-16 20 -58z m-2558 34 c0 -12 -7 -14 -31 -9 -35 8 -69 -15 -69 -47 0 -22 37
-61 50 -53 16 10 12 45 -5 45 -18 0 -20 17 -3 22 7 3 23 2 36 0 20 -4 23 -9
20 -46 -3 -40 -4 -41 -41 -44 -58 -5 -87 19 -87 70 0 58 21 78 82 78 37 0 48
-4 48 -16z m648 -34 l15 -45 20 48 c17 41 23 47 48 47 l29 0 0 -75 c0 -68 -2
-75 -20 -75 -17 0 -20 7 -21 53 l-1 52 -17 -50 c-13 -35 -23 -50 -36 -50 -13
0 -23 15 -36 50 l-17 50 -1 -53 c-1 -45 -4 -53 -18 -50 -15 3 -19 16 -21 76
l-3 73 32 -3 c29 -3 34 -8 47 -48z m172 -25 c0 -68 -2 -75 -20 -75 -18 0 -20
7 -20 75 0 68 2 75 20 75 18 0 20 -7 20 -75z m205 55 c13 -15 16 -30 13 -64
-4 -32 -2 -46 8 -50 21 -8 17 -36 -5 -36 -11 0 -23 5 -26 10 -3 6 -24 10 -45
10 -21 0 -45 7 -54 15 -32 32 -32 87 0 119 22 23 87 21 109 -4z m445 -6 c0 -9
11 -14 33 -14 27 0 35 -5 44 -27 l10 -28 11 27 c13 32 30 44 37 25 9 -23 -38
-141 -58 -145 -14 -3 -17 2 -15 20 4 40 -23 108 -44 108 -13 0 -18 -8 -18 -30
0 -16 5 -30 10 -30 6 0 10 -7 10 -16 0 -11 -8 -14 -27 -12 -25 3 -28 7 -31 46
-4 54 -20 54 -24 0 -2 -31 -8 -44 -20 -46 -15 -3 -18 5 -18 52 0 53 1 56 25
56 14 0 29 8 35 20 11 21 40 17 40 -6z m298 8 c3 -9 -4 -12 -19 -10 -33 4 -37
-14 -6 -30 59 -29 35 -96 -32 -90 -19 2 -37 9 -39 17 -3 10 2 13 22 9 15 -3
30 0 37 8 8 10 3 16 -19 28 -35 18 -46 40 -31 67 8 16 19 19 46 17 20 -2 38
-9 41 -16z m62 -7 c0 -8 7 -15 15 -15 8 0 15 -4 15 -10 0 -5 -7 -10 -15 -10
-10 0 -15 -10 -15 -30 0 -20 5 -30 15 -30 8 0 15 -7 15 -16 0 -11 -8 -14 -27
-12 -25 3 -28 8 -31 43 -2 22 -8 43 -14 46 -6 4 -5 14 3 28 16 24 39 28 39 6z
m-1652 -27 c7 -7 12 -26 12 -43 0 -39 -16 -55 -55 -55 -39 0 -55 16 -55 55 0
39 16 55 55 55 17 0 36 -5 43 -12z m253 -15 c5 -15 9 -38 7 -52 -3 -23 -8 -26
-44 -29 -66 -5 -88 46 -29 68 32 12 33 22 0 14 -19 -5 -25 -2 -25 10 0 12 10
16 40 16 35 0 42 -4 51 -27z m669 -13 c0 -29 4 -40 15 -40 11 0 15 11 15 40 0
33 3 40 20 40 18 0 20 -7 20 -54 l0 -53 -45 -1 c-51 -1 -65 14 -65 72 0 29 4
36 20 36 17 0 20 -7 20 -40z m178 28 c7 -7 12 -31 12 -55 l0 -43 -45 0 c-32 0
-47 5 -54 18 -12 23 4 52 29 52 10 0 22 5 26 11 4 8 -3 9 -25 4 -29 -6 -40 2
-24 18 11 12 68 8 81 -5z m690 -46 l3 -53 -48 3 c-46 3 -48 4 -48 33 0 22 5
31 20 33 11 2 25 8 30 14 7 7 -1 8 -22 3 -18 -4 -33 -2 -33 3 0 17 15 23 55
20 l40 -3 3 -53z m120 46 c7 -7 12 -31 12 -55 0 -36 -3 -43 -19 -43 -16 0 -20
8 -23 43 -2 23 -7 42 -13 42 -5 0 -11 -19 -13 -42 -3 -35 -7 -43 -23 -43 -16
0 -19 7 -19 55 l0 55 43 0 c24 0 48 -5 55 -12z m251 -10 c4 -12 8 -36 7 -53
-1 -27 -4 -30 -39 -33 -44 -4 -69 12 -65 42 2 15 12 22 31 24 15 2 27 8 27 13
0 5 -11 7 -25 3 -19 -5 -25 -2 -25 10 0 12 10 16 40 16 33 0 42 -4 49 -22z
m101 8 c0 -7 -9 -16 -20 -19 -15 -4 -20 -14 -20 -41 0 -25 -4 -36 -15 -36 -12
0 -15 13 -15 55 l0 55 35 0 c23 0 35 -5 35 -14z"/>
<path d="M877 4533 c-13 -12 -7 -53 7 -53 20 0 29 16 21 40 -6 20 -17 25 -28
13z"/>
<path d="M2777 4534 c-4 -4 -7 -18 -7 -31 0 -26 27 -32 37 -7 6 17 -19 49 -30
38z"/>
<path d="M3107 4534 c-4 -4 -7 -18 -7 -31 0 -27 25 -31 34 -6 7 18 -16 48 -27
37z"/>
<path d="M1566 4564 c-35 -34 -5 -105 35 -84 25 14 27 85 3 94 -21 8 -20 8
-38 -10z"/>
<path d="M737 4533 c-12 -11 -8 -40 7 -52 10 -9 16 -8 25 3 23 27 -8 74 -32
49z"/>
<path d="M990 4490 c0 -5 7 -10 15 -10 8 0 15 5 15 10 0 6 -7 10 -15 10 -8 0
-15 -4 -15 -10z"/>
<path d="M1845 4490 c-3 -5 1 -10 9 -10 9 0 16 5 16 10 0 6 -4 10 -9 10 -6 0
-13 -4 -16 -10z"/>
<path d="M2525 4490 c-3 -5 1 -10 9 -10 9 0 16 5 16 10 0 6 -4 10 -9 10 -6 0
-13 -4 -16 -10z"/>
<path d="M2900 4490 c0 -5 4 -10 9 -10 6 0 13 5 16 10 3 6 -1 10 -9 10 -9 0
-16 -4 -16 -10z"/>
<path d="M3520 4515 l0 -205 4445 0 4445 0 0 205 0 205 -4445 0 -4445 0 0
-205z m5093 73 c-10 -29 -10 -124 0 -160 6 -23 4 -28 -11 -28 -13 0 -22 12
-30 39 -24 78 -7 171 30 171 16 0 18 -4 11 -22z m547 -4 c0 -8 -9 -14 -20 -14
-19 0 -27 19 -14 33 10 9 34 -4 34 -19z m1320 0 c6 -14 10 -49 10 -79 0 -64
-14 -105 -35 -105 -12 0 -14 8 -8 43 9 53 9 82 0 130 -7 30 -5 37 8 37 8 0 20
-12 25 -26z m-4424 -19 c10 -40 1 -60 -34 -70 -24 -7 -32 -15 -32 -32 0 -16
-6 -23 -20 -23 -18 0 -20 7 -20 74 0 70 1 75 23 78 46 7 77 -4 83 -27z m1224
-45 c0 -73 -2 -80 -20 -80 -18 0 -20 7 -20 80 0 73 2 80 20 80 18 0 20 -7 20
-80z m60 65 c0 -8 -9 -15 -20 -15 -11 0 -20 7 -20 15 0 8 9 15 20 15 11 0 20
-7 20 -15z m820 -66 l0 -80 -47 3 c-40 3 -50 7 -61 30 -19 40 -1 78 38 78 25
0 30 4 30 25 0 18 5 25 20 25 18 0 20 -7 20 -81z m325 1 l0 -75 -45 -3 c-49
-4 -70 13 -70 56 0 36 -24 21 -30 -19 -3 -22 -11 -35 -22 -37 -16 -3 -18 5
-18 53 l0 57 43 -2 c94 -5 107 -2 107 26 0 19 4 25 18 22 14 -3 17 -15 17 -78z
m727 0 c-3 -61 -7 -80 -18 -80 -11 0 -14 17 -14 80 0 70 2 80 18 80 15 0 17
-9 14 -80z m958 64 c0 -9 -7 -14 -17 -12 -25 5 -28 28 -4 28 12 0 21 -6 21
-16z m-4013 -36 l17 -42 17 42 c16 36 22 42 49 42 l30 0 0 -75 c0 -68 -2 -75
-19 -75 -17 0 -20 8 -23 48 l-3 47 -16 -45 c-22 -63 -49 -66 -71 -8 l-17 43 0
-42 c-1 -36 -4 -43 -21 -43 -18 0 -20 7 -20 75 l0 75 30 0 c26 0 32 -6 47 -42z
m264 26 c23 -28 17 -93 -10 -115 -27 -22 -79 -25 -104 -6 -26 18 -33 81 -13
112 14 21 24 25 65 25 33 0 53 -5 62 -16z m161 -26 l16 -43 17 43 c15 36 21
42 46 42 l29 0 0 -75 c0 -68 -2 -75 -19 -75 -16 0 -20 8 -23 43 l-3 42 -14
-43 c-18 -54 -48 -55 -66 -2 l-13 35 -3 -35 c-3 -27 -9 -35 -24 -35 -18 0 -20
8 -23 73 l-3 72 33 0 c31 0 35 -4 50 -42z m176 -30 c-3 -65 -5 -73 -23 -73
-18 0 -20 8 -23 73 -3 72 -3 72 23 72 26 0 26 0 23 -72z m207 52 c13 -15 16
-30 13 -63 -4 -29 -1 -47 9 -56 23 -21 0 -37 -32 -23 -14 7 -40 12 -57 12 -45
0 -68 25 -68 73 0 55 22 77 75 77 29 0 47 -6 60 -20z m735 5 c0 -11 -7 -14
-25 -9 -36 9 -32 -17 5 -38 58 -33 29 -93 -42 -86 -46 4 -49 28 -4 28 45 0 48
20 6 38 -23 11 -30 20 -30 41 0 36 6 41 52 41 27 0 38 -4 38 -15z m1096 -22
c0 -18 3 -36 7 -39 15 -15 6 -54 -13 -64 -12 -6 -38 -10 -58 -8 l-37 3 -3 73
-3 73 53 -3 c52 -3 53 -3 54 -35z m782 -31 c27 -83 27 -82 2 -82 -11 0 -20 7
-20 15 0 10 -10 15 -29 15 -16 0 -31 -6 -35 -15 -6 -17 -36 -21 -36 -4 0 5 10
39 22 75 20 56 26 64 48 64 23 0 28 -7 48 -68z m-2174 43 c3 -9 18 -15 37 -15
22 0 32 -5 36 -20 3 -11 9 -20 13 -20 4 0 10 9 13 20 3 12 14 20 26 20 20 0
20 -1 -6 -75 -21 -58 -31 -75 -46 -75 -15 0 -18 5 -14 21 7 26 -23 109 -39
109 -20 0 -23 -26 -8 -55 18 -35 18 -35 -9 -35 -32 0 -47 18 -47 57 0 18 -4
33 -10 33 -5 0 -10 -20 -10 -45 0 -38 -3 -45 -20 -45 -18 0 -20 7 -20 55 0 54
0 55 30 55 20 0 30 5 30 15 0 8 9 15 19 15 10 0 21 -7 25 -15z m366 0 c0 -8 8
-15 18 -16 9 0 37 -1 62 -2 l45 -2 3 -53 3 -53 -48 3 c-46 3 -48 4 -48 33 0
25 4 30 28 33 15 2 27 8 27 13 0 7 -12 8 -30 4 -18 -4 -30 -3 -30 4 0 6 -7 8
-15 5 -17 -7 -21 -64 -5 -64 6 0 10 -7 10 -16 0 -11 -8 -14 -27 -12 -25 3 -28
8 -31 43 -2 22 -9 44 -15 48 -9 6 -9 10 1 14 6 2 12 11 12 19 0 8 9 14 20 14
11 0 20 -7 20 -15z m2330 -5 c24 -24 25 -30 5 -30 -10 0 -15 -10 -15 -30 0
-20 5 -30 15 -30 8 0 15 -7 15 -15 0 -21 -47 -19 -59 3 -9 17 -15 70 -12 105
1 23 26 22 51 -3z m-1000 -24 c0 -7 -7 -21 -15 -32 -18 -24 -19 -42 -2 -40 6
0 13 -3 15 -9 1 -5 -16 -11 -38 -13 -46 -4 -50 5 -19 54 l21 34 -21 0 c-31 0
-25 18 7 22 34 5 52 -1 52 -16z m260 8 c0 -9 9 -18 20 -21 11 -3 20 -9 20 -14
0 -5 -9 -9 -20 -9 -13 0 -20 -7 -20 -20 0 -26 -30 -26 -37 -1 -3 11 -15 22
-26 26 l-22 8 21 4 c12 2 24 13 27 24 6 23 37 26 37 3z m-2320 -35 c0 -52 24
-48 28 4 3 29 7 37 23 37 18 0 20 -6 17 -52 l-3 -53 -38 -3 c-51 -4 -67 11
-67 64 0 37 3 44 20 44 17 0 20 -7 20 -41z m179 19 c4 -12 8 -36 7 -53 -1 -25
-5 -31 -30 -33 -15 -2 -39 -1 -53 3 -19 4 -24 11 -21 33 2 21 9 28 31 30 15 2
27 8 27 13 0 7 -12 8 -30 4 -16 -4 -30 -2 -30 3 0 16 13 22 52 22 31 0 40 -5
47 -22z m809 -36 c3 -47 1 -53 -15 -50 -13 2 -19 14 -21 46 -4 56 -26 51 -30
-7 -3 -33 -7 -42 -20 -39 -13 2 -18 16 -20 56 l-3 53 53 -3 53 -3 3 -53z m248
34 c3 -13 4 -37 2 -52 -3 -27 -6 -29 -47 -29 -30 0 -47 5 -54 17 -14 22 7 48
40 48 14 0 21 4 18 10 -3 6 -17 7 -31 4 -13 -3 -24 -2 -24 3 0 17 13 23 51 23
32 0 40 -4 45 -24z m624 10 c0 -8 -6 -16 -14 -19 -8 -3 -16 -21 -18 -39 -2
-22 -9 -34 -20 -36 -15 -3 -18 5 -18 52 l0 56 35 0 c23 0 35 -5 35 -14z m101
-13 c5 -14 7 -39 4 -55 -6 -27 -10 -29 -47 -26 -49 4 -71 29 -47 53 9 9 25 17
37 18 11 0 18 5 16 9 -3 4 -16 5 -30 2 -18 -5 -24 -2 -24 10 0 12 10 16 40 16
35 0 42 -4 51 -27z m159 -28 c0 -48 -2 -55 -20 -55 -18 0 -20 7 -20 55 0 48 2
55 20 55 18 0 20 -7 20 -55z m640 45 c0 -6 -4 -10 -9 -10 -5 0 -11 -10 -13
-22 -2 -14 -13 -25 -28 -29 -23 -6 -22 -7 8 -8 28 -1 32 -4 32 -30 0 -31 -14
-41 -60 -41 -39 0 -51 18 -41 62 10 41 0 64 -23 55 -10 -4 -16 -19 -16 -42 0
-28 -4 -35 -20 -35 -18 0 -20 7 -20 54 l0 55 95 0 c55 0 95 -4 95 -9z m98 -2
c7 -7 12 -20 12 -30 0 -14 -8 -18 -35 -18 -19 0 -35 -4 -35 -10 0 -11 13 -14
44 -10 11 1 17 -3 14 -12 -6 -17 -65 -23 -84 -7 -17 14 -19 70 -2 87 7 7 26
12 43 12 17 0 36 -5 43 -12z m130 -46 c3 -47 1 -53 -15 -50 -13 2 -19 14 -21
46 -4 56 -26 51 -30 -7 -3 -33 -7 -42 -20 -39 -13 3 -17 15 -18 48 -1 25 1 49
3 53 3 4 26 7 51 5 l47 -3 3 -53z m142 2 c0 -47 -3 -55 -17 -52 -14 2 -19 15
-21 56 -3 47 -1 52 17 52 19 0 21 -6 21 -56z m128 -1 c3 -48 1 -53 -17 -53
-18 0 -21 6 -21 46 0 59 -24 55 -28 -4 -3 -34 -7 -42 -23 -42 -16 0 -19 7 -19
56 l0 55 53 -3 52 -3 3 -52z m117 23 c11 -58 4 -71 -41 -74 -28 -2 -45 2 -54
13 -17 20 -3 48 26 53 10 2 24 8 29 14 7 7 -1 8 -22 3 -18 -4 -33 -2 -33 3 0
16 13 22 51 22 35 0 39 -2 44 -34z"/>
<path d="M5990 4538 c0 -30 1 -31 16 -16 9 9 14 24 11 32 -11 27 -27 17 -27
-16z"/>
<path d="M8090 4500 c0 -21 4 -30 13 -27 6 2 12 14 12 27 0 13 -6 25 -12 28
-9 2 -13 -7 -13 -28z"/>
<path d="M8414 4516 c-8 -22 3 -49 19 -43 6 2 12 14 12 27 0 27 -22 39 -31 16z"/>
<path d="M6334 4556 c-3 -8 -4 -29 -2 -48 2 -28 7 -33 28 -33 22 0 25 5 28 39
2 24 -2 42 -10 47 -20 13 -38 11 -44 -5z"/>
<path d="M6882 4558 c-17 -17 -15 -64 5 -83 16 -16 18 -16 35 5 21 25 22 43 8
71 -12 22 -30 25 -48 7z"/>
<path d="M8732 4554 c4 -21 22 -23 26 -1 2 10 -3 17 -13 17 -10 0 -15 -6 -13
-16z"/>
<path d="M8732 4488 c2 -12 10 -23 18 -23 22 0 19 39 -3 43 -15 3 -18 -1 -15
-20z"/>
<path d="M9517 4529 c-4 -13 -2 -28 3 -33 14 -14 24 19 12 40 -8 14 -10 13
-15 -7z"/>
<path d="M7840 4480 c0 -5 5 -10 10 -10 6 0 10 5 10 10 0 6 -4 10 -10 10 -5 0
-10 -4 -10 -10z"/>
<path d="M7160 4480 c0 -5 5 -10 10 -10 6 0 10 5 10 10 0 6 -4 10 -10 10 -5 0
-10 -4 -10 -10z"/>
<path d="M8215 4480 c-3 -5 1 -10 9 -10 9 0 16 5 16 10 0 6 -4 10 -9 10 -6 0
-13 -4 -16 -10z"/>
<path d="M8945 4480 c-3 -5 1 -10 9 -10 9 0 16 5 16 10 0 6 -4 10 -9 10 -6 0
-13 -4 -16 -10z"/>
<path d="M9730 4520 c0 -5 5 -10 10 -10 6 0 10 5 10 10 0 6 -4 10 -10 10 -5 0
-10 -4 -10 -10z"/>
<path d="M9720 4440 c0 -5 9 -10 21 -10 11 0 17 5 14 10 -3 6 -13 10 -21 10
-8 0 -14 -4 -14 -10z"/>
<path d="M9850 4520 c0 -5 5 -10 10 -10 6 0 10 5 10 10 0 6 -4 10 -10 10 -5 0
-10 -4 -10 -10z"/>
<path d="M10355 4480 c-3 -5 1 -10 9 -10 9 0 16 5 16 10 0 6 -4 10 -9 10 -6 0
-13 -4 -16 -10z"/>
<path d="M3518 3998 c-2 -62 -2 -155 0 -205 l3 -93 517 0 517 0 178 -151 178
-151 57 49 c31 27 112 95 178 151 l122 102 521 0 521 0 0 205 0 205 -1394 0
-1395 0 -3 -112z m1142 -45 c26 -72 26 -72 49 -20 17 40 25 48 43 45 21 -3 23
-9 26 -81 3 -71 1 -78 -15 -75 -13 2 -19 15 -23 48 l-5 45 -14 -48 c-11 -39
-18 -47 -34 -45 -13 2 -25 15 -31 35 -17 49 -26 50 -26 4 0 -35 -3 -42 -17
-39 -15 3 -18 15 -20 68 -3 81 0 90 32 90 19 0 28 -7 35 -27z m267 1 c22 -22
25 -31 19 -70 -8 -65 8 -54 35 24 21 57 27 67 48 67 20 0 27 -10 49 -68 l25
-69 22 63 c36 104 67 104 100 -1 10 -30 20 -61 23 -67 2 -8 -4 -13 -17 -13
-12 0 -24 7 -27 15 -4 9 -19 15 -35 15 -19 0 -29 -5 -29 -15 0 -11 -11 -15
-35 -15 -22 0 -38 6 -41 15 -4 8 -18 15 -34 15 -16 0 -30 -7 -34 -15 -3 -8
-12 -15 -20 -15 -8 0 -16 -6 -18 -12 -4 -10 -10 -10 -32 0 -15 6 -41 12 -58
12 -46 0 -68 25 -68 76 0 76 75 110 127 58z"/>
<path d="M4851 3936 c-7 -8 -11 -30 -9 -48 4 -44 42 -53 60 -14 21 48 -21 99
-51 62z"/>
<path d="M5016 3904 c-9 -22 -8 -24 9 -24 8 0 15 6 15 14 0 22 -17 28 -24 10z"/>
<path d="M5165 3907 c-8 -19 -2 -31 13 -26 5 2 6 13 2 24 -7 19 -8 19 -15 2z"/>
<path d="M6570 3905 l0 -205 533 0 532 0 184 -150 c103 -84 188 -147 194 -143
7 4 90 71 185 150 l174 143 534 0 534 0 0 205 0 205 -1435 0 -1435 0 0 -205z
m430 55 c11 -11 17 -26 14 -34 -3 -8 -1 -23 5 -33 9 -16 10 -16 11 -1 1 48 42
88 91 88 31 0 69 -44 69 -80 0 -70 -96 -109 -137 -56 l-19 24 -21 -24 c-16
-18 -32 -24 -62 -24 l-41 0 0 73 c0 41 3 77 7 80 13 14 64 6 83 -13z m273 -26
l22 -47 5 44 c3 30 10 44 20 44 12 0 15 -15 15 -75 0 -70 -2 -75 -22 -78 -17
-3 -27 6 -45 40 l-23 43 -3 -43 c-3 -34 -7 -43 -20 -40 -14 3 -18 17 -20 72
-3 69 4 85 36 86 7 0 22 -21 35 -46z m205 22 c10 -10 17 -33 17 -57 0 -54 -30
-79 -91 -79 l-44 0 0 73 c0 41 3 77 8 81 12 13 93 -1 110 -18z m197 13 c4 -6
-2 -13 -14 -16 -17 -4 -21 -14 -23 -67 -3 -53 -5 -61 -23 -61 -18 0 -20 8 -23
61 -2 53 -6 63 -23 67 -38 10 -9 27 46 27 30 0 57 -5 60 -11z m99 5 c22 -9 10
-24 -20 -24 -31 0 -32 -27 -1 -32 12 -2 22 -7 22 -13 0 -5 -10 -11 -22 -13
-33 -5 -31 -42 2 -42 16 0 25 -6 25 -15 0 -11 -12 -15 -45 -15 l-45 0 0 73 c0
41 3 77 7 80 8 9 56 9 77 1z m100 0 c27 -10 20 -35 -8 -28 -38 9 -39 -12 -1
-35 39 -23 45 -49 16 -75 -24 -22 -86 -19 -86 4 0 11 9 14 33 12 40 -4 42 12
3 32 -34 18 -45 41 -31 66 14 27 43 36 74 24z m146 -9 c0 -8 -9 -15 -20 -15
-18 0 -20 -7 -20 -65 0 -58 -2 -65 -20 -65 -18 0 -20 7 -20 65 0 58 -2 65 -20
65 -20 0 -26 11 -13 23 3 4 30 7 60 7 40 0 53 -4 53 -15z m158 -1 c12 -8 22
-23 22 -32 0 -26 -29 -62 -50 -62 -12 0 -20 -8 -22 -22 -2 -13 -11 -24 -20
-26 -16 -3 -18 5 -18 71 0 40 3 77 7 80 12 12 58 7 81 -9z m124 -45 c22 -59
25 -62 61 -66 46 -4 50 15 7 39 -36 21 -41 61 -9 78 26 15 69 5 69 -15 0 -11
-7 -14 -25 -9 -34 8 -32 -7 5 -34 33 -25 38 -52 15 -76 -20 -20 -135 -20 -135
0 0 19 -56 18 -64 -1 -7 -19 -36 -20 -36 -2 0 15 35 121 45 137 3 6 15 10 25
10 13 0 25 -17 42 -61z m237 48 c15 -19 3 -28 -25 -21 -34 9 -30 -12 5 -30 59
-31 39 -100 -27 -94 -25 2 -37 8 -37 18 0 10 8 14 28 12 37 -5 35 18 -3 40
-33 19 -39 48 -14 72 19 20 58 21 73 3z m180 -1 c14 -16 16 -41 6 -71 -3 -11
0 -28 8 -39 13 -17 16 -13 38 50 18 53 29 70 45 72 18 3 25 -8 48 -68 31 -85
32 -90 6 -90 -11 0 -20 7 -20 15 0 10 -10 15 -30 15 -18 0 -33 -6 -36 -15 -4
-10 -19 -15 -43 -15 -32 0 -38 4 -48 30 -15 39 -33 39 -33 -1 0 -24 -4 -30
-17 -27 -15 3 -19 16 -21 67 -2 35 -1 70 2 77 7 19 80 18 95 0z m271 -1 c0 -8
-9 -15 -20 -15 -18 0 -20 -7 -20 -65 0 -58 -2 -65 -20 -65 -18 0 -20 7 -20 65
0 58 -2 65 -20 65 -20 0 -26 11 -13 23 3 4 30 7 60 7 40 0 53 -4 53 -15z m108
-2 c2 -9 -7 -13 -27 -13 -36 0 -44 -27 -9 -32 32 -5 35 -28 4 -28 -37 0 -36
-37 1 -42 14 -2 28 -9 31 -16 3 -10 -8 -12 -44 -10 l-49 3 -3 64 c-2 35 -1 70
2 78 7 18 88 14 94 -4z"/>
<path d="M6950 3935 c0 -8 5 -15 10 -15 6 0 10 7 10 15 0 8 -4 15 -10 15 -5 0
-10 -7 -10 -15z"/>
<path d="M7092 3941 c-8 -5 -12 -23 -10 -47 3 -34 6 -39 28 -39 23 0 25 4 25
45 0 46 -15 60 -43 41z"/>
<path d="M6950 3870 c0 -11 7 -20 15 -20 8 0 15 9 15 20 0 11 -7 20 -15 20 -8
0 -15 -9 -15 -20z"/>
<path d="M7400 3900 c0 -44 3 -50 20 -50 36 0 48 70 16 92 -27 18 -36 7 -36
-42z"/>
<path d="M8130 3925 c0 -14 4 -25 9 -25 12 0 19 21 13 38 -8 21 -22 13 -22
-13z"/>
<path d="M8250 3923 c0 -6 -3 -18 -6 -27 -4 -11 -1 -16 10 -16 9 0 16 6 16 13
0 16 -20 46 -20 30z"/>
<path d="M8660 3930 c0 -11 7 -20 15 -20 8 0 15 9 15 20 0 11 -7 20 -15 20 -8
0 -15 -9 -15 -20z"/>
<path d="M8810 3923 c0 -6 -3 -18 -6 -27 -4 -11 -1 -16 10 -16 9 0 16 6 16 13
0 16 -20 46 -20 30z"/>
<path d="M440 3670 l0 -430 666 0 666 0 30 -25 30 -26 33 26 34 25 675 0 676
0 0 320 0 319 128 4 127 3 -127 2 -128 2 0 105 0 105 -1405 0 -1405 0 0 -430z
m1206 288 c4 -6 2 -14 -5 -16 -9 -3 -9 -7 1 -20 10 -12 10 -16 1 -19 -8 -3
-13 -21 -13 -43 0 -22 -5 -40 -12 -42 -7 -3 2 -5 20 -5 32 0 42 10 22 22 -16
10 -12 62 6 79 23 23 51 19 70 -10 20 -29 12 -41 -31 -47 l-30 -4 33 -2 c28
-1 32 -4 27 -20 -4 -15 0 -18 20 -18 25 0 33 11 15 22 -5 3 -10 22 -10 40 0
40 25 59 64 49 17 -4 27 -1 34 11 8 15 12 15 30 4 23 -14 30 -39 12 -39 -5 0
-10 -11 -10 -25 0 -14 5 -25 10 -25 18 0 11 -30 -7 -31 -16 0 -16 -1 1 -8 13
-5 16 -10 9 -14 -7 -4 -15 -3 -18 3 -5 8 -11 8 -20 0 -10 -8 -15 -8 -20 0 -5
8 -10 8 -20 0 -9 -8 -15 -8 -20 0 -6 10 13 15 49 12 13 -2 16 2 12 14 -3 8 -6
28 -6 44 0 25 -3 28 -32 26 -26 -1 -34 -6 -36 -24 -3 -18 1 -22 22 -22 33 0
34 -18 2 -30 -13 -5 -27 -14 -31 -20 -5 -8 -10 -8 -20 0 -10 8 -15 8 -20 0 -5
-8 -13 -6 -25 5 -11 10 -25 15 -32 12 -8 -3 -6 -6 5 -6 10 -1 15 -6 12 -11 -5
-8 -11 -8 -20 0 -10 8 -15 8 -20 0 -5 -8 -10 -8 -20 0 -10 8 -15 8 -20 0 -5
-8 -10 -8 -20 0 -10 8 -15 8 -20 0 -5 -8 -10 -8 -20 0 -9 8 -15 8 -20 0 -3 -6
-11 -7 -18 -3 -7 4 -4 9 9 14 15 6 15 8 3 8 -9 1 -22 -6 -29 -14 -12 -15 -30
-12 -30 5 0 5 8 7 18 3 16 -6 16 -5 0 14 -34 38 -14 103 32 103 23 0 57 -47
44 -60 -5 -5 -22 -10 -39 -13 l-30 -4 33 -2 c29 -1 32 -4 27 -21 -5 -15 -2
-20 11 -20 14 0 16 8 12 58 -4 40 -1 64 10 80 16 24 37 29 48 10z m-201 -23
c28 -27 31 -45 14 -78 -16 -31 -28 -37 -71 -37 l-38 0 0 63 c0 35 3 67 7 70
15 16 65 6 88 -18z m614 12 c6 -8 10 -31 9 -53 -1 -21 2 -47 6 -56 13 -29 -15
-22 -41 10 l-22 27 -1 -27 c0 -18 -5 -28 -15 -28 -12 0 -15 14 -15 70 l0 70
34 0 c18 0 39 -6 45 -13z m181 -14 c24 -21 26 -33 5 -33 -9 0 -15 -9 -15 -25
0 -16 6 -25 16 -25 9 0 14 -6 12 -12 -3 -7 -15 -13 -29 -13 -21 0 -25 6 -31
50 -4 31 -3 54 4 62 13 16 14 16 38 -4z m-72 -15 c7 -7 12 -31 12 -55 l0 -43
-40 0 c-45 0 -61 20 -42 51 8 12 8 20 1 24 -15 10 10 35 35 35 12 0 27 -5 34
-12z m177 -8 c14 -16 16 -26 9 -52 -8 -26 -16 -34 -39 -36 -49 -6 -73 51 -38
90 21 23 45 23 68 -2z m-1150 -255 c0 -76 -12 -94 -27 -39 -8 27 -3 88 8 106
13 21 19 1 19 -67z m172 55 c3 -11 11 -20 19 -20 7 0 17 -8 23 -17 9 -17 11
-17 24 1 10 14 21 17 41 12 24 -6 27 -11 24 -39 -2 -25 -8 -33 -26 -35 -13 -2
-32 4 -42 13 -16 14 -18 14 -23 0 -4 -9 -19 -15 -37 -15 l-30 0 0 60 c0 59 16
83 27 40z m393 -46 c0 -53 -1 -54 -29 -54 -39 0 -57 23 -43 55 7 14 18 25 26
25 7 0 16 9 19 21 10 38 27 9 27 -47z m780 -3 c0 -51 -10 -81 -26 -81 -17 0
-16 -3 -5 37 5 17 6 47 1 67 -4 19 -5 38 -2 41 12 12 32 -29 32 -64z m-1300 3
c0 -40 -3 -54 -12 -51 -12 3 -20 81 -10 100 11 23 22 0 22 -49z m598 -2 c2
-42 0 -52 -12 -52 -13 0 -16 12 -16 56 0 73 24 70 28 -4z m481 -2 c1 -39 -2
-50 -14 -50 -11 0 -15 12 -15 48 0 82 26 83 29 2z m-52 38 c5 -7 10 -30 10
-51 1 -30 -2 -37 -15 -35 -9 2 -19 12 -22 23 -5 20 -50 33 -50 15 0 -6 9 -10
21 -10 27 0 19 -24 -9 -28 -13 -2 -25 3 -28 12 -7 19 -25 22 -21 4 4 -20 -45
-22 -60 -2 -11 16 -13 16 -19 1 -3 -10 -15 -17 -25 -17 -10 0 -19 -7 -19 -15
0 -8 -7 -15 -16 -15 -12 0 -14 10 -12 53 3 46 6 52 26 55 13 2 32 -4 42 -13
16 -14 18 -14 23 0 8 20 41 19 58 -1 11 -14 13 -14 22 1 6 12 16 15 33 11 17
-5 26 -2 30 9 7 18 18 19 31 3z m-949 -20 c18 -18 15 -68 -3 -68 -9 0 -15 9
-15 25 0 14 -4 25 -10 25 -5 0 -10 -11 -10 -25 0 -16 -6 -25 -15 -25 -10 0
-15 10 -15 33 0 19 3 37 7 40 11 11 48 8 61 -5z m222 -19 c0 -10 5 -19 10 -19
6 0 10 12 10 26 0 40 25 23 28 -19 3 -36 2 -37 -32 -37 -30 0 -37 4 -42 25 -7
30 2 59 16 50 5 -3 10 -15 10 -26z m128 -11 c2 -22 -1 -38 -7 -38 -6 0 -11 9
-11 19 0 28 -18 36 -22 9 -6 -40 -28 -33 -28 10 0 39 1 40 33 39 29 -2 32 -5
35 -39z m250 30 c7 -7 13 -21 13 -32 1 -14 4 -11 8 9 4 21 12 30 26 30 16 0
20 -7 20 -35 0 -34 -1 -35 -42 -37 -39 -2 -43 0 -43 23 0 13 -4 24 -10 24 -5
0 -10 -11 -10 -25 0 -16 -6 -25 -15 -25 -10 0 -15 10 -15 33 0 19 3 37 7 40
11 11 48 8 61 -5z m486 -10 c16 -26 -4 -53 -40 -53 -25 0 -30 4 -32 29 -6 46
47 63 72 24z m84 -20 c2 -22 -1 -38 -7 -38 -6 0 -11 9 -11 19 0 28 -18 36 -22
9 -6 -40 -28 -33 -28 10 0 39 1 40 33 39 29 -2 32 -5 35 -39z m-1013 -178 c0
-42 -4 -65 -12 -67 -10 -4 -13 14 -13 67 0 53 3 71 13 68 8 -3 12 -26 12 -68z
m45 0 c0 -56 -3 -70 -15 -70 -12 0 -15 14 -15 63 0 35 3 67 7 70 17 18 23 1
23 -63z m350 0 c0 -56 -3 -70 -15 -70 -12 0 -15 14 -15 63 0 35 3 67 7 70 17
18 23 1 23 -63z m417 52 c2 -10 14 -22 26 -27 28 -13 39 -95 13 -95 -12 0 -16
10 -16 35 0 44 -18 46 -22 3 -2 -17 -9 -33 -15 -36 -10 -3 -13 15 -13 67 0 45
4 71 11 71 6 0 13 -8 16 -18z m-1539 -5 c6 -6 14 -25 18 -42 l7 -29 19 43 c13
30 23 42 35 39 25 -5 33 -128 8 -128 -11 0 -15 11 -16 38 l-1 37 -15 -37 c-20
-49 -38 -48 -56 5 l-15 42 -1 -42 c-1 -31 -5 -43 -16 -43 -12 0 -15 13 -15 58
0 32 3 62 7 65 10 11 30 8 41 -6z m216 -6 c11 -12 17 -33 16 -53 -3 -56 0 -55
23 7 29 78 49 82 73 16 10 -28 20 -51 23 -51 4 0 13 21 21 48 22 65 47 64 71
-3 22 -63 23 -75 4 -75 -8 0 -15 7 -15 15 0 9 -9 15 -24 15 -13 0 -26 -7 -30
-15 -3 -8 -16 -15 -30 -15 -13 0 -26 7 -30 15 -8 23 -34 18 -61 -11 -19 -21
-27 -24 -44 -15 -11 6 -31 11 -45 11 -50 0 -74 72 -36 110 25 25 62 26 84 1z
m466 -46 c0 -51 -3 -65 -15 -65 -12 0 -15 14 -15 65 0 51 3 65 15 65 12 0 15
-14 15 -65z m955 0 c0 -82 -22 -86 -27 -5 -3 64 -1 73 16 67 6 -2 11 -30 11
-62z m539 0 c1 -82 -21 -86 -26 -5 -1 34 -1 64 1 66 15 14 25 -10 25 -61z
m-690 36 c12 -14 14 -21 6 -26 -7 -5 -9 -20 -5 -41 5 -29 3 -34 -14 -34 -19 0
-23 6 -36 63 -5 27 7 57 25 57 4 0 15 -9 24 -19z m570 0 c11 -12 14 -21 7 -26
-15 -9 -14 -42 2 -48 9 -3 9 -7 0 -17 -19 -20 -43 -4 -43 29 0 44 -18 47 -22
4 -3 -36 -5 -38 -38 -38 -32 0 -35 3 -38 33 -5 46 13 65 55 57 25 -4 35 -2 39
10 8 20 17 19 38 -4z m-1517 -28 l10 -28 6 28 c9 34 24 35 40 1 l12 -27 5 23
c6 26 30 40 30 18 0 -7 -5 -30 -11 -50 -11 -43 -35 -50 -48 -16 l-8 23 -7 -23
c-12 -35 -39 -23 -52 23 -6 22 -9 43 -7 48 9 15 22 6 30 -20z m353 13 c0 -8
-7 -16 -15 -20 -9 -3 -15 -18 -15 -36 0 -20 -5 -30 -15 -30 -11 0 -15 12 -15
50 0 49 1 50 30 50 19 0 30 -5 30 -14z m81 -9 c15 -33 -4 -77 -34 -77 -42 0
-60 38 -37 81 15 27 58 25 71 -4z m96 11 c16 -13 17 -60 1 -76 -7 -7 -20 -12
-30 -12 -10 0 -18 -7 -18 -15 0 -8 -7 -15 -15 -15 -12 0 -15 14 -15 63 l0 64
32 1 c18 0 38 -4 45 -10z m141 -40 l3 -48 -35 0 c-43 0 -48 8 -40 60 6 39 8
41 38 38 29 -3 31 -5 34 -50z m83 36 c11 -14 13 -14 21 0 12 22 55 20 67 -2
15 -29 -1 -76 -28 -80 -12 -2 -28 2 -36 8 -9 7 -15 8 -20 0 -11 -17 -54 -11
-65 9 -14 27 -13 47 6 65 20 20 38 20 55 0z m414 -9 c1 -11 4 -26 9 -33 11
-18 -13 -44 -38 -40 -11 2 -22 11 -24 20 -3 13 1 16 15 12 17 -5 17 -5 1 6
-18 11 -24 41 -11 54 14 14 48 1 48 -19z m193 12 c18 -14 16 -87 -3 -87 -10 0
-15 10 -15 29 0 42 -18 48 -22 9 -2 -21 -8 -33 -18 -33 -10 0 -16 12 -18 33
-4 39 -22 33 -22 -9 0 -19 -5 -29 -15 -29 -11 0 -15 12 -15 50 l0 50 58 -2
c31 -1 63 -6 70 -11z m240 -5 c2 -6 -3 -12 -12 -12 -9 0 -16 -11 -18 -32 -5
-55 -28 -46 -28 11 0 48 1 50 27 48 14 -1 28 -8 31 -15z m106 12 c24 -9 20
-37 -4 -29 -16 5 -20 2 -20 -14 0 -15 6 -21 21 -21 12 0 19 -5 17 -12 -3 -7
-18 -13 -34 -13 -26 0 -29 4 -32 33 -5 48 16 70 52 56z"/>
<path d="M1390 3889 c0 -33 3 -40 18 -37 21 4 29 57 10 69 -23 15 -28 10 -28
-32z"/>
<path d="M2010 3915 c0 -9 5 -15 11 -13 6 2 11 8 11 13 0 5 -5 11 -11 13 -6 2
-11 -4 -11 -13z"/>
<path d="M2308 3853 c6 -2 18 -2 25 0 6 3 1 5 -13 5 -14 0 -19 -2 -12 -5z"/>
<path d="M1370 3650 c0 -5 5 -10 10 -10 6 0 10 5 10 10 0 6 -4 10 -10 10 -5 0
-10 -4 -10 -10z"/>
<path d="M1450 3650 c0 -5 5 -10 10 -10 6 0 10 5 10 10 0 6 -4 10 -10 10 -5 0
-10 -4 -10 -10z"/>
<path d="M1710 3650 c0 -5 5 -10 10 -10 6 0 10 5 10 10 0 6 -4 10 -10 10 -5 0
-10 -4 -10 -10z"/>
<path d="M2030 3650 c0 -5 5 -10 10 -10 6 0 10 5 10 10 0 6 -4 10 -10 10 -5 0
-10 -4 -10 -10z"/>
<path d="M2355 3650 c-3 -5 1 -10 9 -10 9 0 16 5 16 10 0 6 -4 10 -9 10 -6 0
-13 -4 -16 -10z"/>
<path d="M900 3485 c-18 -22 -3 -57 23 -53 37 5 33 67 -4 68 -4 0 -12 -7 -19
-15z"/>
<path d="M1146 3475 c-3 -8 -1 -15 4 -15 6 0 10 7 10 15 0 8 -2 15 -4 15 -2 0
-6 -7 -10 -15z"/>
<path d="M1030 3470 c0 -5 5 -10 10 -10 6 0 10 5 10 10 0 6 -4 10 -10 10 -5 0
-10 -4 -10 -10z"/>
<path d="M2708 3433 c6 -2 18 -2 25 0 6 3 1 5 -13 5 -14 0 -19 -2 -12 -5z"/>
<path d="M1678 3433 c6 -2 18 -2 25 0 6 3 1 5 -13 5 -14 0 -19 -2 -12 -5z"/>
<path d="M1770 3450 c0 -13 5 -20 13 -17 6 2 12 10 12 17 0 7 -6 15 -12 18 -8
2 -13 -5 -13 -18z"/>
<path d="M2005 3460 c-7 -11 2 -30 13 -30 4 0 14 5 22 10 13 9 13 11 0 20 -19
12 -27 12 -35 0z"/>
<path d="M2088 3433 c6 -2 18 -2 25 0 6 3 1 5 -13 5 -14 0 -19 -2 -12 -5z"/>
<path d="M9680 3885 l0 -205 520 0 521 0 162 -137 c89 -76 170 -144 179 -151
14 -11 39 7 194 138 l178 150 523 0 523 0 0 205 0 205 -1400 0 -1400 0 0 -205z
m144 17 c6 -23 13 -42 16 -42 4 0 11 19 16 43 11 52 42 59 56 12 18 -59 21
-60 32 -15 8 28 18 46 29 48 21 4 21 -13 -1 -93 -15 -53 -20 -60 -42 -60 -20
0 -26 7 -34 40 l-10 40 -11 -40 c-10 -32 -16 -40 -36 -40 -21 0 -26 8 -41 65
-10 36 -16 71 -13 78 9 25 30 6 39 -36z m276 33 c0 -10 -10 -15 -30 -15 -20 0
-30 -5 -30 -15 0 -9 9 -15 25 -15 16 0 25 -6 25 -15 0 -9 -9 -15 -25 -15 -18
0 -25 -5 -25 -20 0 -16 7 -20 30 -20 20 0 30 -5 30 -15 0 -11 -12 -15 -45 -15
l-45 0 0 80 0 80 45 0 c33 0 45 -4 45 -15z m60 -66 c0 -71 -2 -80 -17 -77 -14
2 -19 15 -21 58 -4 67 4 100 23 100 12 0 15 -16 15 -81z m148 58 c3 -14 -1
-17 -21 -12 -37 10 -67 -10 -67 -43 0 -32 16 -52 42 -52 26 0 23 36 -3 43 -30
8 -14 27 22 27 30 0 30 -1 27 -47 -3 -48 -3 -48 -42 -51 -67 -6 -108 58 -75
119 21 40 110 52 117 16z m70 -15 c3 -26 8 -32 27 -32 19 0 24 6 27 32 2 17 9
33 16 36 9 3 12 -17 12 -77 0 -65 -3 -81 -15 -81 -10 0 -15 10 -15 30 0 25 -4
30 -25 30 -21 0 -25 -5 -25 -30 0 -23 -4 -30 -20 -30 -18 0 -20 7 -20 73 0 41
3 77 7 81 14 13 28 -1 31 -32z m220 21 c2 -8 -5 -13 -17 -13 -18 0 -20 -7 -23
-62 -2 -50 -6 -63 -20 -66 -16 -3 -18 5 -18 62 0 59 -2 66 -20 66 -11 0 -20 7
-20 15 0 13 11 15 57 13 34 -2 58 -8 61 -15z m102 2 c0 -9 -9 -15 -25 -15 -32
0 -34 -27 -2 -32 12 -2 22 -7 22 -13 0 -5 -10 -11 -22 -13 -33 -5 -31 -42 2
-42 16 0 25 -6 25 -15 0 -11 -12 -15 -45 -15 l-45 0 0 73 c0 41 3 77 7 80 3 4
24 7 45 7 27 0 38 -4 38 -15z m135 -10 c31 -30 32 -73 4 -109 -17 -21 -29 -26
-65 -26 l-44 0 0 80 0 80 40 0 c30 0 47 -7 65 -25z m203 2 c3 -14 -1 -17 -20
-12 -32 8 -50 -14 -46 -57 3 -29 7 -33 33 -35 17 0 34 -2 39 -2 24 -3 -21 -31
-50 -31 -65 0 -91 98 -37 140 32 25 76 23 81 -3z m142 3 c13 -13 20 -33 20
-60 0 -50 -27 -80 -72 -80 -39 0 -51 7 -67 37 -41 79 57 165 119 103z m118 8
c19 -19 14 -31 -12 -24 -36 9 -41 -11 -8 -28 38 -20 46 -43 27 -73 -13 -20
-23 -24 -53 -21 -26 2 -38 8 -40 20 -3 15 2 17 26 12 41 -8 49 12 13 30 -41
22 -50 55 -21 78 26 21 51 23 68 6z m140 -5 c2 -8 -5 -13 -17 -13 -18 0 -20
-7 -23 -62 -2 -50 -6 -63 -20 -66 -16 -3 -18 5 -18 62 0 59 -2 66 -20 66 -11
0 -20 7 -20 15 0 13 11 15 57 13 34 -2 58 -8 61 -15z m156 4 c12 -9 17 -23 14
-47 -2 -30 -8 -36 -35 -45 -25 -7 -33 -15 -33 -33 0 -17 -5 -23 -17 -20 -15 3
-19 16 -21 67 -2 35 -1 70 2 77 7 18 66 18 90 1z m134 -4 c2 -9 -7 -13 -27
-13 -36 0 -44 -27 -9 -32 32 -5 35 -28 4 -28 -37 0 -36 -37 1 -42 14 -2 28 -9
31 -15 2 -9 -11 -13 -47 -13 l-51 0 0 73 c0 41 3 77 7 81 12 11 86 2 91 -11z
m116 1 c19 -18 21 -45 5 -61 -8 -8 -6 -19 5 -41 20 -39 20 -42 -1 -42 -10 0
-27 15 -37 33 l-20 32 -5 -30 c-4 -17 -13 -31 -24 -33 -15 -3 -17 6 -17 71 0
40 3 77 7 80 12 13 72 7 87 -9z m188 -1 c10 -9 18 -25 18 -36 0 -26 -28 -57
-51 -57 -11 0 -19 -9 -21 -22 -2 -13 -11 -24 -20 -26 -16 -3 -18 5 -18 71 0
40 3 77 7 80 12 13 67 7 85 -10z m124 -53 c13 -36 24 -71 24 -77 0 -18 -29
-16 -36 2 -4 8 -18 15 -34 15 -16 0 -30 -7 -34 -15 -6 -16 -36 -21 -36 -7 0 7
27 90 45 140 3 7 14 12 26 10 16 -2 27 -19 45 -68z m74 -10 c0 -64 -3 -80 -15
-80 -12 0 -15 16 -15 80 0 64 3 80 15 80 12 0 15 -16 15 -80z m108 74 c26 -7
40 -48 22 -68 -9 -11 -8 -21 4 -45 20 -38 20 -41 -1 -41 -10 0 -27 15 -37 33
l-20 32 -5 -30 c-4 -17 -13 -31 -24 -33 -15 -3 -17 6 -17 77 l0 81 28 0 c15 0
37 -3 50 -6z"/>
<path d="M10760 3870 c0 -41 3 -50 18 -50 25 0 42 20 42 50 0 30 -17 50 -42
50 -15 0 -18 -9 -18 -50z"/>
<path d="M11101 3906 c-28 -34 5 -97 43 -83 22 9 22 82 0 91 -23 9 -30 8 -43
-8z"/>
<path d="M11540 3895 c0 -16 6 -25 15 -25 9 0 15 9 15 25 0 16 -6 25 -15 25
-9 0 -15 -9 -15 -25z"/>
<path d="M11790 3901 c0 -12 6 -21 16 -21 9 0 14 7 12 17 -5 25 -28 28 -28 4z"/>
<path d="M11980 3895 c0 -17 5 -25 13 -22 6 2 12 12 12 22 0 10 -6 20 -12 23
-8 2 -13 -6 -13 -23z"/>
<path d="M12100 3891 c0 -5 -3 -16 -6 -25 -4 -11 0 -16 14 -16 15 0 19 5 15
20 -6 22 -23 38 -23 21z"/>
<path d="M12300 3901 c0 -12 6 -21 16 -21 9 0 14 7 12 17 -5 25 -28 28 -28 4z"/>
<path d="M11962 3350 c0 -14 2 -19 5 -12 2 6 2 18 0 25 -3 6 -5 1 -5 -13z"/>
<path d="M12056 3357 c3 -10 9 -15 12 -12 3 3 0 11 -7 18 -10 9 -11 8 -5 -6z"/>
<path d="M12111 3338 c1 -24 3 -27 6 -10 2 12 9 20 14 17 5 -3 6 1 3 9 -11 27
-24 17 -23 -16z"/>
<path d="M12192 3340 c0 -19 2 -27 5 -17 2 9 2 25 0 35 -3 9 -5 1 -5 -18z"/>
<path d="M12012 3340 c0 -14 2 -19 5 -12 2 6 2 18 0 25 -3 6 -5 1 -5 -13z"/>
<path d="M12082 3340 c0 -14 2 -19 5 -12 2 6 2 18 0 25 -3 6 -5 1 -5 -13z"/>
<path d="M12152 3335 c0 -16 2 -22 5 -12 2 9 2 23 0 30 -3 6 -5 -1 -5 -18z"/>
<path d="M9949 3078 c8 -11 12 -34 9 -57 -2 -22 0 -37 4 -35 16 10 8 81 -9 95
-16 13 -17 12 -4 -3z"/>
<path d="M10223 3061 c9 -24 9 -38 0 -62 -10 -26 -10 -29 3 -19 8 7 14 29 14
50 0 21 -6 43 -14 50 -13 10 -13 7 -3 -19z"/>
<path d="M10320 3043 c0 -27 5 -55 10 -63 7 -11 10 3 10 48 0 35 -4 62 -10 62
-5 0 -10 -21 -10 -47z"/>
<path d="M10557 3083 c-16 -16 -5 -41 24 -53 25 -11 30 -18 26 -37 -3 -19 -2
-21 9 -12 21 18 17 28 -22 51 -26 15 -34 26 -31 39 5 20 4 23 -6 12z"/>
<path d="M10660 3071 c-14 -28 -12 -64 5 -87 13 -17 14 -16 4 14 -8 22 -8 41
0 62 11 34 7 40 -9 11z"/>
<path d="M10719 3033 c2 -42 6 -52 12 -38 12 30 10 59 -3 78 -11 15 -12 8 -9
-40z"/>
<path d="M10820 3071 c-14 -26 -13 -63 3 -84 10 -15 12 -8 12 43 0 33 -1 60
-2 60 -1 0 -7 -9 -13 -19z"/>
<path d="M10879 3060 c4 -19 4 -48 0 -65 -8 -28 -7 -29 6 -11 19 25 19 67 1
92 -14 17 -14 16 -7 -16z"/>
<path d="M10974 3054 c0 -19 0 -33 1 -31 18 22 23 46 12 55 -9 8 -12 2 -13
-24z"/>
<path d="M12067 3066 c4 -18 -3 -35 -21 -57 -15 -17 -24 -34 -21 -37 6 -6 29
21 51 62 14 25 14 30 1 43 -13 13 -14 12 -10 -11z"/>
<path d="M12132 3078 c-17 -17 -15 -83 2 -98 13 -10 13 -7 3 19 -8 23 -9 39 0
61 13 34 12 35 -5 18z"/>
<path d="M12185 3035 c0 -60 9 -72 19 -25 4 25 -6 80 -16 80 -2 0 -3 -25 -3
-55z"/>
<path d="M9786 3072 c-9 -14 10 -42 28 -42 8 0 8 2 0 8 -7 4 -13 16 -16 27 -2
15 -6 17 -12 7z"/>
<path d="M9897 3073 c-9 -9 -9 -81 1 -86 4 -3 7 17 7 44 0 27 0 49 -1 49 0 0
-4 -3 -7 -7z"/>
<path d="M10057 3073 c-9 -9 -9 -75 1 -90 4 -6 7 13 7 43 0 30 0 54 -1 54 0 0
-4 -3 -7 -7z"/>
<path d="M10118 3039 c3 -23 -1 -46 -9 -57 -13 -15 -12 -16 4 -3 17 14 25 85
9 95 -4 2 -6 -13 -4 -35z"/>
<path d="M10167 3073 c-9 -9 -9 -75 1 -90 4 -6 7 13 7 43 0 30 0 54 -1 54 0 0
-4 -3 -7 -7z"/>
<path d="M3959 3053 c6 -12 8 -28 5 -36 -3 -8 -1 -18 5 -22 17 -10 13 39 -5
61 -15 18 -15 18 -5 -3z"/>
<path d="M4064 3047 c1 -29 -28 -33 -42 -5 -7 15 -11 18 -11 8 -1 -9 5 -22 12
-29 10 -11 10 -14 0 -18 -15 -5 -17 -39 -4 -47 5 -4 7 2 4 12 -2 10 2 24 10
31 12 9 18 8 31 -4 9 -9 13 -22 10 -28 -5 -9 -3 -8 6 0 10 10 11 15 1 27 -7 8
-9 25 -6 39 4 14 3 27 -2 30 -5 3 -9 -4 -9 -16z"/>
<path d="M5825 3060 c-3 -5 -1 -10 4 -10 7 0 10 -19 9 -45 0 -25 2 -48 5 -52
4 -3 7 21 7 55 0 57 -10 77 -25 52z"/>
<path d="M5959 3012 c3 -46 5 -52 11 -31 8 27 3 76 -9 83 -3 2 -4 -21 -2 -52z"/>
<path d="M6965 3015 c0 -30 4 -50 8 -46 12 12 13 79 1 91 -5 5 -9 -11 -9 -45z"/>
<path d="M7241 3051 c6 -13 9 -40 5 -60 -4 -25 -2 -31 4 -21 15 23 12 64 -6
86 -14 18 -15 18 -3 -5z"/>
<path d="M7322 3050 c0 -14 2 -19 5 -12 2 6 2 18 0 25 -3 6 -5 1 -5 -13z"/>
<path d="M7525 3055 c-16 -12 -17 -14 -2 -9 15 5 17 -1 17 -45 0 -28 3 -51 8
-51 4 0 6 21 4 48 -5 76 -4 75 -27 57z"/>
<path d="M7777 3060 c6 -8 13 -31 16 -50 l4 -35 1 36 c1 24 -4 41 -15 50 -16
12 -16 12 -6 -1z"/>
<path d="M8916 3038 l-18 -33 21 25 21 25 0 -55 c0 -34 4 -49 9 -40 9 17 3
110 -8 110 -4 0 -15 -15 -25 -32z"/>
<path d="M9055 3060 c5 -8 12 -30 16 -50 l7 -35 1 36 c1 23 -5 42 -16 50 -14
12 -16 12 -8 -1z"/>
<path d="M3900 3036 c0 -14 3 -27 8 -29 4 -3 7 8 7 24 0 16 -3 29 -7 29 -5 0
-8 -11 -8 -24z"/>
<path d="M4177 3053 c-14 -14 -7 -81 11 -94 15 -13 16 -12 3 3 -8 11 -12 34
-9 58 2 22 3 40 2 40 0 0 -4 -3 -7 -7z"/>
<path d="M4235 3010 c0 -26 3 -46 8 -43 4 2 7 22 7 43 0 21 -3 41 -7 43 -5 3
-8 -17 -8 -43z"/>
<path d="M5896 3044 c-10 -27 -7 -59 10 -80 14 -18 15 -18 3 5 -6 13 -9 39 -6
57 6 36 3 44 -7 18z"/>
<path d="M6910 3036 c0 -14 4 -27 8 -30 5 -3 6 8 4 25 -5 35 -12 38 -12 5z"/>
<path d="M7015 3050 c-8 -13 4 -50 16 -50 6 0 7 6 2 13 -4 6 -6 20 -5 30 4 19
-3 23 -13 7z"/>
<path d="M7078 3020 c2 -22 6 -40 8 -40 2 0 4 18 4 40 0 22 -3 40 -8 40 -4 0
-6 -18 -4 -40z"/>
<path d="M7617 3053 c-14 -14 -7 -81 11 -94 15 -13 16 -12 3 3 -8 11 -12 34
-9 58 2 22 3 40 2 40 0 0 -4 -3 -7 -7z"/>
<path d="M7675 3010 c0 -26 3 -46 8 -43 4 2 7 22 7 43 0 21 -3 41 -7 43 -5 3
-8 -17 -8 -43z"/>
<path d="M7727 3053 c-9 -9 -9 -75 1 -90 4 -6 7 13 7 43 0 30 0 54 -1 54 0 0
-4 -3 -7 -7z"/>
<path d="M9007 3053 c-9 -9 -9 -75 1 -90 4 -6 7 13 7 43 0 30 0 54 -1 54 0 0
-4 -3 -7 -7z"/>
<path d="M10390 3041 c-13 -26 -13 -34 5 -57 14 -18 15 -18 6 6 -4 14 -5 35 0
48 10 27 3 29 -11 3z"/>
<path d="M10448 3050 c6 -8 12 -23 12 -35 0 -12 -6 -27 -12 -35 -11 -12 -10
-12 5 -1 9 7 17 24 17 36 0 12 -8 29 -17 36 -15 11 -16 11 -5 -1z"/>
<path d="M11080 2996 c0 -37 4 -66 10 -66 6 0 10 11 11 25 3 83 1 99 -9 103
-8 2 -12 -16 -12 -62z"/>
<path d="M11145 3015 c0 -24 3 -41 8 -38 4 2 7 19 7 38 0 19 -3 36 -7 38 -5 3
-8 -14 -8 -38z"/>
<path d="M11300 3016 c0 -25 5 -46 10 -46 6 0 10 16 10 35 0 19 0 38 1 42 0 4
-4 9 -10 11 -7 2 -11 -14 -11 -42z"/>
<path d="M11430 2995 c0 -38 2 -66 5 -63 8 8 10 116 2 124 -4 4 -7 -23 -7 -61z"/>
<path d="M11485 3015 c0 -39 2 -43 13 -28 6 9 12 22 12 28 0 6 -6 19 -12 28
-11 15 -13 11 -13 -28z"/>
<path d="M11590 3012 l5 -47 3 39 c2 21 0 42 -5 47 -4 4 -6 -13 -3 -39z"/>
<path d="M11643 3015 c0 -27 2 -38 4 -22 2 15 2 37 0 50 -2 12 -4 0 -4 -28z"/>
<path d="M11690 3015 c0 -27 2 -46 4 -44 8 8 10 78 3 85 -4 4 -7 -14 -7 -41z"/>
<path d="M3750 3040 c8 -5 20 -10 25 -10 6 0 3 5 -5 10 -8 5 -19 10 -25 10 -5
0 -3 -5 5 -10z"/>
<path d="M6770 3035 c14 -8 30 -14 35 -14 6 0 -1 6 -15 14 -14 8 -29 14 -35
14 -5 0 1 -6 15 -14z"/>
<path d="M7178 3025 c-3 -14 -1 -25 3 -25 5 0 9 11 9 25 0 14 -2 25 -4 25 -2
0 -6 -11 -8 -25z"/>
<path d="M11197 3043 c-13 -12 -7 -51 10 -64 14 -13 15 -12 7 6 -6 11 -9 30
-8 43 1 24 1 25 -9 15z"/>
<path d="M11256 3035 c4 -8 8 -15 10 -15 2 0 4 7 4 15 0 8 -4 15 -10 15 -5 0
-7 -7 -4 -15z"/>
<path d="M5800 3020 c-6 -11 -8 -20 -6 -20 3 0 10 9 16 20 6 11 8 20 6 20 -3
0 -10 -9 -16 -20z"/>
<path d="M9840 3015 c10 -12 10 -18 -1 -32 -12 -17 -12 -17 5 -1 19 17 16 48
-5 48 -8 0 -8 -4 1 -15z"/>
<path d="M10992 3000 c0 -14 2 -19 5 -12 2 6 2 18 0 25 -3 6 -5 1 -5 -13z"/>
<path d="M11534 2999 c-3 -6 -1 -16 5 -22 8 -8 11 -5 11 11 0 24 -5 28 -16 11z"/>
<path d="M3760 2985 c-14 -8 -20 -14 -15 -14 6 0 21 6 35 14 14 8 21 14 15 14
-5 0 -21 -6 -35 -14z"/>
<path d="M7362 2980 c0 -14 2 -19 5 -12 2 6 2 18 0 25 -3 6 -5 1 -5 -13z"/>
<path d="M7401 2984 c0 -11 3 -14 6 -6 3 7 2 16 -1 19 -3 4 -6 -2 -5 -13z"/>
<path d="M4350 2976 c0 -8 4 -17 9 -20 5 -4 7 3 4 14 -6 23 -13 26 -13 6z"/>
<path d="M6755 2980 c-3 -6 1 -7 9 -4 18 7 21 14 7 14 -6 0 -13 -4 -16 -10z"/>
<path d="M7180 2976 c0 -8 4 -17 9 -20 5 -4 7 3 4 14 -6 23 -13 26 -13 6z"/>
<path d="M7900 2976 c0 -8 4 -17 9 -20 5 -4 7 3 4 14 -6 23 -13 26 -13 6z"/>
<path d="M10571 2954 c0 -11 3 -14 6 -6 3 7 2 16 -1 19 -3 4 -6 -2 -5 -13z"/>
<path d="M1125 2660 c0 -15 3 -26 8 -23 4 2 7 13 7 23 0 10 -3 21 -7 23 -5 3
-8 -8 -8 -23z"/>
<path d="M1169 2658 c-13 -18 -34 -49 -48 -67 -14 -19 -21 -32 -15 -29 12 8
98 128 90 128 -2 0 -15 -15 -27 -32z"/>
<path d="M3752 2678 c-15 -15 -15 -33 1 -46 9 -8 12 -2 12 24 0 19 0 34 0 34
-1 0 -6 -5 -13 -12z"/>
<path d="M3805 2635 c0 -29 3 -51 8 -48 4 2 7 24 7 48 0 24 -3 46 -7 48 -5 3
-8 -19 -8 -48z"/>
<path d="M4020 2665 c0 -14 4 -25 9 -25 4 0 6 11 3 25 -2 14 -6 25 -8 25 -2 0
-4 -11 -4 -25z"/>
<path d="M4120 2671 c0 -11 4 -22 9 -25 4 -3 6 6 3 19 -5 30 -12 33 -12 6z"/>
<path d="M4162 2670 c0 -14 2 -19 5 -12 2 6 2 18 0 25 -3 6 -5 1 -5 -13z"/>
<path d="M4330 2644 c0 -27 4 -55 9 -63 6 -9 9 5 8 41 -2 70 -17 89 -17 22z"/>
<path d="M4562 2678 c-15 -15 -15 -33 1 -46 9 -8 12 -2 12 24 0 19 0 34 0 34
-1 0 -6 -5 -13 -12z"/>
<path d="M4615 2635 c0 -29 3 -51 8 -48 4 2 7 24 7 48 0 24 -3 46 -7 48 -5 3
-8 -19 -8 -48z"/>
<path d="M4723 2684 c3 -4 0 -19 -9 -35 -21 -41 -34 -79 -28 -79 5 0 54 105
54 115 0 3 -5 5 -12 5 -6 0 -9 -3 -5 -6z"/>
<path d="M4885 2635 c0 -29 3 -51 8 -48 4 2 7 24 7 48 0 24 -3 46 -7 48 -5 3
-8 -19 -8 -48z"/>
<path d="M4995 2635 c0 -30 3 -48 7 -42 10 15 10 69 0 84 -4 6 -7 -13 -7 -42z"/>
<path d="M5040 2671 c0 -11 4 -22 9 -25 4 -3 6 6 3 19 -5 30 -12 33 -12 6z"/>
<path d="M5082 2670 c0 -14 2 -19 5 -12 2 6 2 18 0 25 -3 6 -5 1 -5 -13z"/>
<path d="M832 2668 c-19 -19 -15 -83 6 -99 14 -11 15 -11 5 1 -16 18 -17 82
-1 98 7 7 10 12 7 12 -3 0 -10 -5 -17 -12z"/>
<path d="M888 2635 c3 -30 0 -51 -9 -62 -13 -16 -12 -17 4 -4 18 14 25 95 8
105 -5 3 -6 -14 -3 -39z"/>
<path d="M992 2668 c-17 -17 -15 -83 2 -98 13 -10 13 -7 3 19 -8 23 -9 39 0
61 13 34 12 35 -5 18z"/>
<path d="M1045 2625 c0 -59 10 -72 20 -27 5 24 -7 82 -17 82 -2 0 -3 -25 -3
-55z"/>
<path d="M1090 2661 c0 -11 4 -22 9 -25 4 -3 6 6 3 19 -5 30 -12 33 -12 6z"/>
<path d="M2738 2658 c-30 -46 -39 -68 -28 -68 5 0 10 6 10 14 0 8 9 24 20 37
l19 24 1 -55 c0 -34 4 -49 9 -40 9 18 2 110 -9 110 -4 0 -14 -10 -22 -22z"/>
<path d="M2882 2653 c10 -26 10 -40 0 -65 -10 -30 -10 -31 3 -14 8 11 15 32
15 46 0 14 -7 35 -15 46 -13 17 -13 16 -3 -13z"/>
<path d="M3860 2654 c-13 -33 -13 -47 3 -67 10 -15 12 -9 12 38 0 30 -1 55 -3
55 -1 0 -7 -12 -12 -26z"/>
<path d="M4823 2664 c-3 -8 1 -22 9 -30 13 -13 14 -11 10 16 -5 34 -10 37 -19
14z"/>
<path d="M4934 2665 c-8 -19 2 -45 17 -45 8 0 8 4 -1 15 -7 8 -10 22 -6 30 3
8 3 15 0 15 -2 0 -7 -7 -10 -15z"/>
<path d="M5835 2650 c0 -26 2 -28 12 -14 6 9 9 22 6 30 -9 24 -18 16 -18 -16z"/>
<path d="M5900 2655 c0 -14 4 -25 9 -25 4 0 6 11 3 25 -2 14 -6 25 -8 25 -2 0
-4 -11 -4 -25z"/>
<path d="M2816 2644 c-6 -25 6 -84 17 -84 3 0 -2 73 -7 100 -1 8 -6 1 -10 -16z"/>
<path d="M6815 2615 c0 -30 3 -48 7 -42 10 15 10 69 0 84 -4 6 -7 -13 -7 -42z"/>
<path d="M6904 2618 c-10 -29 -21 -57 -23 -63 -2 -5 -1 -8 2 -5 12 12 57 120
49 120 -4 0 -17 -23 -28 -52z"/>
<path d="M7179 2659 c-2 -34 3 -95 9 -101 4 -4 6 18 5 48 -1 50 -12 89 -14 53z"/>
<path d="M7459 2652 c7 -13 10 -30 7 -37 -3 -8 -1 -17 4 -20 17 -11 11 52 -7
66 -15 13 -15 12 -4 -9z"/>
<path d="M7518 2658 c-8 -21 3 -39 28 -49 14 -5 29 -19 34 -31 6 -17 9 -18 9
-6 1 9 -4 20 -10 23 -6 4 -8 21 -5 38 5 27 5 29 -4 10 -5 -13 -13 -23 -18 -23
-15 0 -31 22 -25 36 3 8 3 14 0 14 -3 0 -7 -6 -9 -12z"/>
<path d="M7728 2653 c7 -12 9 -28 6 -36 -3 -8 -1 -18 5 -22 18 -11 13 51 -6
66 -15 13 -15 12 -5 -8z"/>
<path d="M8946 2655 c4 -8 0 -23 -7 -33 -13 -15 -12 -16 4 -3 19 15 22 36 7
46 -6 3 -7 -1 -4 -10z"/>
<path d="M9006 2654 c-9 -22 -7 -92 2 -97 4 -3 7 21 7 54 0 32 -1 59 -1 59 -1
0 -5 -7 -8 -16z"/>
<path d="M9059 2657 c9 -11 12 -31 8 -59 -4 -27 -2 -37 4 -27 15 24 10 76 -8
90 -16 13 -17 12 -4 -4z"/>
<path d="M670 2656 c0 -2 7 -7 16 -10 8 -3 12 -2 9 4 -6 10 -25 14 -25 6z"/>
<path d="M4459 2648 c8 -11 11 -28 7 -45 -5 -21 -4 -24 4 -13 15 23 12 46 -7
61 -16 13 -17 12 -4 -3z"/>
<path d="M6754 2645 c-8 -19 2 -45 17 -45 8 0 8 4 -1 15 -7 8 -10 22 -6 30 3
8 3 15 0 15 -2 0 -7 -7 -10 -15z"/>
<path d="M7407 2653 c-9 -9 -9 -41 1 -46 4 -3 7 8 7 24 0 16 0 29 -1 29 0 0
-4 -3 -7 -7z"/>
<path d="M7672 2633 c2 -14 10 -29 18 -31 13 -5 13 -3 1 11 -7 9 -11 24 -7 32
3 8 1 15 -5 15 -6 0 -9 -12 -7 -27z"/>
<path d="M4397 2643 c-13 -12 -7 -51 10 -64 15 -13 15 -12 4 9 -7 12 -9 32 -6
42 7 20 3 25 -8 13z"/>
<path d="M3919 2608 c4 -28 6 -29 9 -9 2 13 0 27 -5 32 -6 6 -7 -3 -4 -23z"/>
<path d="M4074 2611 c1 -16 4 -27 9 -24 10 6 9 41 -2 47 -4 3 -8 -8 -7 -23z"/>
<path d="M4169 2623 c-13 -16 -12 -17 4 -4 16 13 21 21 13 21 -2 0 -10 -8 -17
-17z"/>
<path d="M7029 2623 c-13 -16 -12 -17 4 -4 9 7 17 15 17 17 0 8 -8 3 -21 -13z"/>
<path d="M7843 2628 c-15 -20 -25 -38 -20 -38 3 0 12 11 21 25 17 26 16 35 -1
13z"/>
<path d="M9948 2630 c15 -18 16 -64 0 -93 -10 -20 -10 -21 5 -8 23 18 23 84 0
102 -15 11 -16 11 -5 -1z"/>
<path d="M10108 2628 c16 -16 15 -80 0 -98 -11 -12 -10 -12 5 -1 26 20 21 111
-6 111 -7 0 -7 -4 1 -12z"/>
<path d="M10188 2618 c-27 -41 -39 -68 -31 -68 4 0 17 19 28 42 l20 42 5 -59
c3 -33 8 -53 11 -45 8 20 -1 110 -11 110 -4 0 -14 -10 -22 -22z"/>
<path d="M10320 2593 c0 -27 5 -55 10 -63 7 -11 10 3 10 48 0 35 -4 62 -10 62
-5 0 -10 -21 -10 -47z"/>
<path d="M10557 2633 c-16 -16 -5 -41 24 -53 25 -11 30 -18 26 -37 -3 -19 -2
-21 9 -12 21 18 17 28 -22 51 -26 15 -34 26 -31 39 5 20 4 23 -6 12z"/>
<path d="M10660 2621 c-14 -28 -12 -64 5 -87 13 -18 14 -17 6 11 -4 17 -4 45
0 63 8 36 4 41 -11 13z"/>
<path d="M10715 2585 c0 -57 8 -71 19 -32 9 34 7 51 -6 70 -11 15 -13 9 -13
-38z"/>
<path d="M10820 2621 c-14 -26 -13 -63 3 -84 10 -15 12 -8 12 43 0 33 -1 60
-2 60 -1 0 -7 -9 -13 -19z"/>
<path d="M10879 2584 c2 -38 6 -52 12 -43 13 20 11 62 -3 82 -11 15 -12 8 -9
-39z"/>
<path d="M10934 2625 c-7 -18 10 -42 38 -51 15 -4 19 -12 15 -31 -4 -22 -3
-23 11 -9 12 12 13 18 3 30 -7 8 -9 25 -6 39 4 14 3 27 -2 30 -5 3 -9 -4 -9
-16 1 -16 -5 -22 -19 -22 -14 0 -20 6 -19 23 1 26 -4 28 -12 7z"/>
<path d="M12050 2580 c0 -33 4 -60 10 -60 6 0 10 27 10 60 0 33 -4 60 -10 60
-6 0 -10 -27 -10 -60z"/>
<path d="M12142 2632 c-19 -13 -26 -74 -10 -95 12 -15 13 -12 10 28 -3 26 1
52 8 60 14 17 11 19 -8 7z"/>
<path d="M4237 2609 c4 -13 8 -18 11 -10 2 7 -1 18 -6 23 -8 8 -9 4 -5 -13z"/>
<path d="M5157 2609 c4 -13 8 -18 11 -10 2 7 -1 18 -6 23 -8 8 -9 4 -5 -13z"/>
<path d="M5954 2601 c1 -16 4 -27 9 -24 10 6 9 41 -2 47 -4 3 -8 -8 -7 -23z"/>
<path d="M7247 2623 c-9 -9 -9 -51 1 -56 4 -3 7 10 7 29 0 19 0 34 -1 34 0 0
-4 -3 -7 -7z"/>
<path d="M7312 2600 c0 -19 2 -27 5 -17 2 9 2 25 0 35 -3 9 -5 1 -5 -18z"/>
<path d="M9786 2622 c-9 -14 10 -42 28 -42 8 0 8 2 0 8 -7 4 -13 16 -16 27 -2
15 -6 17 -12 7z"/>
<path d="M9897 2623 c-9 -9 -9 -75 1 -90 4 -6 7 13 7 43 0 30 0 54 -1 54 0 0
-4 -3 -7 -7z"/>
<path d="M10057 2623 c-14 -14 -7 -81 11 -94 15 -13 16 -12 3 3 -8 11 -12 34
-9 58 2 22 3 40 2 40 0 0 -4 -3 -7 -7z"/>
<path d="M1167 2608 c-2 -7 -1 -22 3 -33 6 -16 8 -13 7 13 0 35 -2 39 -10 20z"/>
<path d="M1207 2599 c4 -13 8 -18 11 -10 2 7 -1 18 -6 23 -8 8 -9 4 -5 -13z"/>
<path d="M4202 2600 c0 -14 2 -19 5 -12 2 6 2 18 0 25 -3 6 -5 1 -5 -13z"/>
<path d="M681 2599 c-13 -5 -21 -12 -18 -15 3 -3 18 1 34 10 31 17 21 20 -16
5z"/>
<path d="M5847 2590 c-3 -11 -1 -20 4 -20 5 0 9 9 9 20 0 11 -2 20 -4 20 -2 0
-6 -9 -9 -20z"/>
<path d="M10390 2591 c-13 -25 -13 -33 3 -54 10 -15 12 -11 12 28 0 25 -1 45
-2 45 -1 0 -7 -9 -13 -19z"/>
<path d="M10448 2600 c6 -8 12 -23 12 -35 0 -12 -6 -27 -12 -35 -11 -12 -10
-12 5 -1 9 7 17 24 17 36 0 12 -8 29 -17 36 -15 11 -16 11 -5 -1z"/>
<path d="M11130 2545 c0 -36 4 -65 9 -65 12 0 17 42 12 93 -5 62 -21 42 -21
-28z"/>
<path d="M11195 2565 c0 -24 3 -41 7 -39 10 7 10 71 1 77 -5 3 -8 -14 -8 -38z"/>
<path d="M11303 2592 c0 -12 5 -22 9 -22 11 0 10 12 -2 30 -7 12 -9 10 -7 -8z"/>
<path d="M11350 2563 c0 -55 5 -54 14 5 4 26 2 42 -4 42 -5 0 -10 -21 -10 -47z"/>
<path d="M11470 2545 c0 -36 4 -65 9 -65 12 0 17 42 12 93 -5 62 -21 42 -21
-28z"/>
<path d="M11535 2565 c0 -24 3 -41 7 -39 10 7 10 71 1 77 -5 3 -8 -14 -8 -38z"/>
<path d="M11635 2570 c2 -54 15 -64 15 -12 0 22 -4 43 -9 46 -4 3 -7 -12 -6
-34z"/>
<path d="M11693 2565 c0 -27 2 -38 4 -22 2 15 2 37 0 50 -2 12 -4 0 -4 -28z"/>
<path d="M11739 2603 c-5 -27 -4 -83 2 -83 10 0 16 81 7 86 -4 3 -9 2 -9 -3z"/>
<path d="M8948 2575 c-5 -25 -4 -25 10 -11 12 11 13 19 5 27 -7 7 -12 3 -15
-16z"/>
<path d="M11247 2593 c-13 -12 -7 -51 10 -64 15 -13 15 -12 5 7 -6 12 -9 31
-7 43 4 22 2 25 -8 14z"/>
<path d="M7510 2576 c0 -8 4 -17 9 -20 5 -4 7 3 4 14 -6 23 -13 26 -13 6z"/>
<path d="M12185 2555 c0 -35 9 -38 18 -6 3 11 0 25 -7 30 -8 7 -11 0 -11 -24z"/>
<path d="M7449 2563 c-13 -16 -12 -17 4 -4 16 13 21 21 13 21 -2 0 -10 -8 -17
-17z"/>
<path d="M9840 2565 c10 -12 10 -18 -1 -32 -12 -17 -12 -17 5 -1 19 17 16 48
-5 48 -8 0 -8 -4 1 -15z"/>
<path d="M10924 2559 c-3 -6 0 -18 9 -26 13 -13 14 -12 10 11 -6 29 -9 31 -19
15z"/>
<path d="M11584 2549 c-3 -6 -2 -15 3 -20 5 -5 9 -1 9 11 0 23 -2 24 -12 9z"/>
<path d="M10571 2504 c0 -11 3 -14 6 -6 3 7 2 16 -1 19 -3 4 -6 -2 -5 -13z"/>
<path d="M1047 2303 c-9 -9 -9 -41 1 -46 4 -3 7 8 7 24 0 16 0 29 -1 29 0 0
-4 -3 -7 -7z"/>
<path d="M1079 2282 c-3 -20 -2 -29 4 -23 5 5 7 19 5 32 -3 20 -5 19 -9 -9z"/>
<path d="M1102 2250 c-23 -32 -42 -62 -42 -66 0 -7 40 47 74 99 34 51 10 27
-32 -33z"/>
<path d="M1857 2303 c-9 -9 -9 -41 1 -46 4 -3 7 8 7 24 0 16 0 29 -1 29 0 0
-4 -3 -7 -7z"/>
<path d="M1892 2285 c0 -16 2 -22 5 -12 2 9 2 23 0 30 -3 6 -5 -1 -5 -18z"/>
<path d="M1914 2253 c-51 -75 -56 -92 -9 -28 39 53 58 85 52 85 -2 0 -22 -26
-43 -57z"/>
<path d="M670 2281 c-14 -26 -13 -63 3 -84 10 -15 12 -8 12 43 0 33 -1 60 -2
60 -1 0 -7 -9 -13 -19z"/>
<path d="M725 2239 c0 -50 2 -57 13 -42 6 9 12 31 12 49 0 17 -6 36 -12 42
-10 8 -13 -3 -13 -49z"/>
<path d="M829 2273 c-12 -33 -1 -84 21 -91 13 -5 13 -3 1 11 -9 12 -12 32 -9
62 6 52 2 57 -13 18z"/>
<path d="M893 2271 c9 -24 9 -38 0 -62 -10 -26 -10 -29 3 -19 8 7 14 29 14 50
0 21 -6 43 -14 50 -13 10 -13 7 -3 -19z"/>
<path d="M954 2285 c-16 -13 -16 -14 -1 -9 15 5 17 -1 17 -45 0 -28 5 -51 10
-51 6 0 10 27 10 60 0 63 -4 69 -36 45z"/>
<path d="M1250 2256 c0 -24 3 -51 6 -60 12 -33 19 -14 16 44 -4 69 -22 82 -22
16z"/>
<path d="M1480 2274 c-13 -34 -13 -57 3 -77 10 -15 12 -8 12 43 0 33 -1 60 -3
60 -1 0 -7 -12 -12 -26z"/>
<path d="M1539 2277 c9 -24 7 -67 -5 -91 -3 -6 2 -2 10 8 20 25 21 80 1 96
-14 11 -14 10 -6 -13z"/>
<path d="M1659 2283 c-13 -17 -12 -17 5 -3 17 13 18 11 15 -43 -3 -34 0 -57 6
-57 6 0 9 24 7 60 -4 63 -11 71 -33 43z"/>
<path d="M1750 2275 c0 -14 3 -25 8 -25 4 0 7 11 7 25 0 14 -3 25 -7 25 -5 0
-8 -11 -8 -25z"/>
<path d="M2763 2279 c3 -9 1 -22 -3 -30 -5 -8 -4 -19 2 -26 6 -7 8 -22 5 -34
-4 -17 -3 -18 9 -8 12 10 12 15 1 33 -11 16 -11 25 -3 38 8 13 7 21 -3 30 -11
11 -13 10 -8 -3z"/>
<path d="M2820 2265 c0 -14 3 -25 8 -25 4 0 7 11 7 25 0 14 -3 25 -7 25 -5 0
-8 -11 -8 -25z"/>
<path d="M5838 2255 c3 -16 0 -25 -9 -25 -8 0 -5 -6 7 -14 16 -13 17 -18 7
-35 -11 -17 -10 -19 2 -15 17 7 20 40 5 49 -6 4 -7 13 -1 23 9 18 4 42 -8 42
-5 0 -6 -11 -3 -25z"/>
<path d="M5900 2261 c-19 -36 -5 -101 21 -101 6 0 3 7 -5 16 -18 18 -21 56 -6
85 6 10 8 19 6 19 -3 0 -10 -9 -16 -19z"/>
<path d="M5958 2235 c3 -27 -1 -52 -8 -60 -11 -13 -10 -14 2 -10 20 8 30 58
18 90 -13 35 -16 31 -12 -20z"/>
<path d="M7976 2267 c3 -10 9 -15 12 -12 3 3 0 11 -7 18 -10 9 -11 8 -5 -6z"/>
<path d="M8029 2263 c-13 -16 -12 -17 4 -4 16 13 21 21 13 21 -2 0 -10 -8 -17
-17z"/>
<path d="M1320 2251 c-13 -25 -13 -33 3 -55 11 -15 13 -11 12 28 0 25 -1 46
-2 46 -1 0 -7 -9 -13 -19z"/>
<path d="M3752 2258 c-15 -15 -15 -33 1 -46 9 -8 12 -2 12 24 0 19 0 34 0 34
-1 0 -6 -5 -13 -12z"/>
<path d="M3805 2215 c0 -29 3 -51 8 -48 4 2 7 24 7 48 0 24 -3 46 -7 48 -5 3
-8 -19 -8 -48z"/>
<path d="M3860 2245 c0 -14 4 -25 9 -25 4 0 6 11 3 25 -2 14 -6 25 -8 25 -2 0
-4 -11 -4 -25z"/>
<path d="M4020 2245 c0 -14 4 -25 9 -25 4 0 6 11 3 25 -2 14 -6 25 -8 25 -2 0
-4 -11 -4 -25z"/>
<path d="M4120 2251 c0 -11 4 -22 9 -25 4 -3 6 6 3 19 -5 30 -12 33 -12 6z"/>
<path d="M4162 2250 c0 -14 2 -19 5 -12 2 6 2 18 0 25 -3 6 -5 1 -5 -13z"/>
<path d="M4332 2213 c2 -37 8 -58 17 -61 8 -3 11 0 8 5 -3 5 -7 33 -8 61 -2
29 -6 52 -11 52 -5 0 -8 -26 -6 -57z"/>
<path d="M4615 2215 c0 -30 4 -50 9 -45 11 11 10 80 -1 91 -4 4 -8 -15 -8 -46z"/>
<path d="M4845 2233 c-11 -21 -21 -41 -23 -45 -2 -5 1 -8 7 -8 6 0 10 3 9 8
-3 12 25 62 34 62 5 0 9 -15 8 -32 -1 -18 -1 -42 0 -53 1 -18 2 -18 8 -3 11
27 2 108 -12 108 -7 0 -21 -17 -31 -37z"/>
<path d="M4996 2229 c2 -30 -2 -49 -13 -61 -20 -22 -10 -24 11 -2 17 17 21 70
7 92 -5 9 -7 -3 -5 -29z"/>
<path d="M5040 2251 c0 -11 4 -22 9 -25 4 -3 6 6 3 19 -5 30 -12 33 -12 6z"/>
<path d="M5078 2247 c-3 -19 -2 -25 4 -19 6 6 8 18 6 28 -3 14 -5 12 -10 -9z"/>
<path d="M6816 2229 c2 -30 -2 -49 -13 -61 -20 -22 -10 -24 11 -2 17 17 21 70
7 92 -5 9 -7 -3 -5 -29z"/>
<path d="M6916 2255 c4 -8 0 -23 -7 -33 -13 -15 -12 -16 4 -3 19 15 22 36 7
46 -6 3 -7 -1 -4 -10z"/>
<path d="M7030 2245 c0 -14 4 -25 9 -25 4 0 6 11 3 25 -2 14 -6 25 -8 25 -2 0
-4 -11 -4 -25z"/>
<path d="M7338 2260 c-8 -26 7 -104 22 -107 12 -4 12 -2 2 5 -8 5 -12 26 -11
55 3 45 -5 71 -13 47z"/>
<path d="M7625 2215 c0 -30 3 -48 7 -42 10 15 10 69 0 84 -4 6 -7 -13 -7 -42z"/>
<path d="M7680 2251 c-21 -41 -7 -101 25 -101 5 0 4 4 -4 9 -17 11 -22 68 -9
94 5 9 6 17 4 17 -3 0 -10 -9 -16 -19z"/>
<path d="M7895 2215 c0 -30 3 -48 7 -42 10 15 10 69 0 84 -4 6 -7 -13 -7 -42z"/>
<path d="M8947 2250 c4 -14 -5 -34 -26 -60 -24 -30 -28 -40 -16 -40 9 0 14 4
11 9 -3 4 6 19 19 31 25 23 33 64 16 74 -5 4 -7 -3 -4 -14z"/>
<path d="M9006 2254 c-14 -37 -4 -104 16 -104 6 0 5 6 -2 15 -8 10 -11 32 -8
60 6 47 4 55 -6 29z"/>
<path d="M9063 2241 c9 -24 9 -39 -1 -63 -10 -30 -10 -31 3 -14 19 25 19 80 1
96 -13 10 -13 7 -3 -19z"/>
<path d="M1388 2235 c2 -14 -2 -33 -9 -43 -13 -15 -12 -16 4 -3 18 14 23 56 8
65 -4 3 -6 -6 -3 -19z"/>
<path d="M4553 2244 c-3 -8 1 -22 9 -30 13 -13 14 -11 10 16 -5 34 -10 37 -19
14z"/>
<path d="M4934 2245 c-8 -19 2 -45 17 -45 8 0 8 4 -1 15 -7 8 -10 22 -6 30 3
8 3 15 0 15 -2 0 -7 -7 -10 -15z"/>
<path d="M6754 2245 c-8 -19 2 -45 17 -45 8 0 8 4 -1 15 -7 8 -10 22 -6 30 3
8 3 15 0 15 -2 0 -7 -7 -10 -15z"/>
<path d="M7564 2245 c-8 -19 2 -45 17 -45 8 0 8 4 -1 15 -7 8 -10 22 -6 30 3
8 3 15 0 15 -2 0 -7 -7 -10 -15z"/>
<path d="M7834 2245 c-8 -19 2 -45 17 -45 8 0 8 4 -1 15 -7 8 -10 22 -6 30 3
8 3 15 0 15 -2 0 -7 -7 -10 -15z"/>
<path d="M9815 2250 c-3 -5 -1 -10 4 -10 6 0 11 5 11 10 0 6 -2 10 -4 10 -3 0
-8 -4 -11 -10z"/>
<path d="M10585 2250 c-3 -5 -1 -10 4 -10 6 0 11 5 11 10 0 6 -2 10 -4 10 -3
0 -8 -4 -11 -10z"/>
<path d="M1807 2230 c3 -11 0 -27 -7 -35 -11 -13 -10 -14 4 -9 17 7 22 49 7
58 -5 4 -7 -3 -4 -14z"/>
<path d="M4180 2220 c-12 -16 -19 -30 -16 -30 2 0 14 14 26 30 12 17 19 30 16
30 -2 0 -14 -13 -26 -30z"/>
<path d="M4667 2228 c-8 -31 7 -78 25 -78 10 0 10 2 1 8 -6 4 -13 28 -15 52
-3 40 -4 42 -11 18z"/>
<path d="M5109 2233 c-13 -16 -12 -17 4 -4 16 13 21 21 13 21 -2 0 -10 -8 -17
-17z"/>
<path d="M7130 2241 c0 -10 19 -25 25 -20 1 2 -3 10 -11 17 -8 7 -14 8 -14 3z"/>
<path d="M1159 2212 c-3 -20 -2 -29 4 -23 5 5 7 19 5 32 -3 20 -5 19 -9 -9z"/>
<path d="M1937 2233 c-9 -9 -9 -41 1 -46 4 -3 7 8 7 24 0 16 0 29 -1 29 0 0
-4 -3 -7 -7z"/>
<path d="M2877 2220 c3 -11 -1 -28 -8 -38 -13 -15 -12 -16 4 -3 18 14 23 46 8
55 -5 4 -7 -3 -4 -14z"/>
<path d="M4402 2228 c-17 -17 -15 -53 4 -68 13 -12 14 -10 4 12 -9 19 -9 31
-1 47 13 24 11 27 -7 9z"/>
<path d="M4459 2222 c7 -12 9 -33 6 -45 -5 -17 -4 -19 4 -7 16 22 13 46 -6 61
-15 13 -15 12 -4 -9z"/>
<path d="M7189 2223 c-13 -16 -12 -17 4 -4 16 13 21 21 13 21 -2 0 -10 -8 -17
-17z"/>
<path d="M7469 2202 c5 -34 6 -35 9 -8 2 16 0 32 -5 37 -5 5 -7 -7 -4 -29z"/>
<path d="M7992 2213 c-26 -38 -34 -53 -29 -53 2 0 16 18 31 40 29 45 28 56 -2
13z"/>
<path d="M9787 2226 c-8 -19 7 -46 25 -46 7 0 7 4 0 13 -5 6 -12 21 -14 32 -3
19 -4 19 -11 1z"/>
<path d="M9900 2237 c0 -1 -4 -16 -9 -33 -5 -19 -5 -40 3 -58 10 -25 11 -21
11 33 0 34 -1 61 -2 61 -2 0 -3 -1 -3 -3z"/>
<path d="M9948 2228 c15 -15 15 -63 0 -91 -10 -20 -10 -21 5 -8 26 21 21 111
-6 111 -7 0 -7 -4 1 -12z"/>
<path d="M10056 2224 c-14 -37 -4 -104 16 -104 6 0 5 6 -2 15 -8 10 -11 32 -8
60 6 47 4 55 -6 29z"/>
<path d="M10118 2195 c3 -30 0 -51 -9 -62 -13 -16 -12 -17 4 -4 18 14 25 95 8
105 -5 3 -6 -14 -3 -39z"/>
<path d="M10167 2233 c-10 -9 -9 -51 1 -57 5 -3 8 11 8 29 -1 19 -1 35 -2 35
0 0 -4 -3 -7 -7z"/>
<path d="M10219 2194 c2 -27 -2 -51 -10 -62 -11 -13 -9 -13 9 2 25 21 30 77 9
94 -9 8 -11 1 -8 -34z"/>
<path d="M10322 2183 c2 -31 8 -58 13 -60 6 -2 9 20 7 57 -2 33 -8 60 -13 60
-6 0 -9 -25 -7 -57z"/>
<path d="M10557 2233 c-16 -16 -5 -41 24 -53 25 -11 30 -18 26 -38 -4 -21 -3
-22 10 -10 16 16 8 48 -12 48 -20 0 -47 31 -41 46 6 15 3 18 -7 7z"/>
<path d="M10660 2221 c-14 -26 -13 -63 3 -84 10 -15 12 -8 12 43 0 33 -1 60
-2 60 -1 0 -7 -9 -13 -19z"/>
<path d="M10718 2195 c3 -26 -1 -52 -8 -60 -17 -20 -6 -19 14 1 19 19 21 64 3
87 -10 15 -12 11 -9 -28z"/>
<path d="M10868 2215 c3 -17 -2 -33 -15 -48 -32 -35 -36 -47 -17 -47 10 0 14
3 11 6 -4 4 5 20 19 37 25 30 29 67 8 74 -7 2 -10 -6 -6 -22z"/>
<path d="M10930 2221 c-14 -28 -13 -64 4 -87 14 -17 14 -16 7 16 -4 19 -4 47
0 63 9 32 4 35 -11 8z"/>
<path d="M10988 2195 c3 -26 -1 -52 -8 -60 -17 -20 -6 -19 14 1 19 19 21 64 3
87 -10 15 -12 11 -9 -28z"/>
<path d="M12029 2223 c-13 -16 -12 -17 4 -4 16 12 17 9 17 -43 0 -31 5 -56 10
-56 6 0 10 27 10 60 0 64 -14 78 -41 43z"/>
<path d="M12132 2228 c-17 -17 -15 -83 2 -98 13 -10 13 -7 3 19 -8 23 -9 39 0
61 13 34 12 35 -5 18z"/>
<path d="M12188 2195 c3 -28 0 -50 -8 -60 -11 -13 -10 -14 3 -9 21 8 30 54 18
87 -15 39 -19 33 -13 -18z"/>
<path d="M1120 2211 c0 -11 4 -22 9 -25 4 -3 6 6 3 19 -5 30 -12 33 -12 6z"/>
<path d="M1968 2207 c-3 -19 -2 -25 4 -19 6 6 8 18 6 28 -3 14 -5 12 -10 -9z"/>
<path d="M7407 2223 c-13 -13 -7 -51 11 -64 15 -13 16 -12 3 3 -7 10 -11 29
-9 43 6 27 5 29 -5 18z"/>
<path d="M3908 2209 c16 -17 15 -24 -4 -43 -8 -9 -11 -16 -6 -16 31 0 41 59
12 68 -12 4 -13 2 -2 -9z"/>
<path d="M4075 2201 c4 -13 1 -29 -7 -39 -12 -15 -11 -16 5 -3 19 15 23 46 6
57 -8 4 -9 -1 -4 -15z"/>
<path d="M4728 2190 c2 -16 6 -30 8 -30 2 0 4 14 4 30 0 17 -4 30 -8 30 -5 0
-7 -13 -4 -30z"/>
<path d="M7078 2208 c7 -9 9 -24 6 -34 -5 -15 -4 -16 5 -8 16 15 11 46 -9 52
-12 4 -13 3 -2 -10z"/>
<path d="M7737 2200 c3 -11 -1 -28 -8 -38 -13 -15 -12 -16 4 -3 18 14 23 46 8
55 -5 4 -7 -3 -4 -14z"/>
<path d="M4237 2186 c4 -19 1 -26 -10 -26 -9 0 -17 8 -20 18 -3 13 -4 12 -3
-3 1 -13 8 -20 21 -20 22 0 33 31 17 47 -6 6 -8 0 -5 -16z"/>
<path d="M8050 2201 c0 -6 4 -13 10 -16 6 -3 7 1 4 9 -7 18 -14 21 -14 7z"/>
<path d="M10390 2191 c-13 -25 -13 -33 3 -55 11 -15 13 -11 12 28 0 25 -1 46
-2 46 -1 0 -7 -9 -13 -19z"/>
<path d="M10448 2200 c6 -8 12 -23 12 -35 0 -12 -6 -27 -12 -35 -11 -12 -10
-12 5 -1 9 7 17 24 17 36 0 12 -8 29 -17 36 -15 11 -16 11 -5 -1z"/>
<path d="M11130 2145 c0 -36 4 -65 9 -65 12 0 17 42 12 93 -5 62 -21 42 -21
-28z"/>
<path d="M11198 2180 c2 -17 -2 -37 -9 -47 -12 -14 -12 -16 1 -11 17 5 26 66
12 80 -5 5 -7 -4 -4 -22z"/>
<path d="M11303 2190 c1 -11 5 -20 9 -20 11 0 10 28 -1 35 -6 3 -9 -4 -8 -15z"/>
<path d="M11350 2163 c0 -55 5 -54 14 5 4 26 2 42 -4 42 -5 0 -10 -21 -10 -47z"/>
<path d="M11470 2145 c0 -36 4 -65 9 -65 12 0 17 42 12 93 -5 62 -21 42 -21
-28z"/>
<path d="M11538 2181 c2 -18 -1 -38 -9 -48 -12 -14 -12 -16 0 -11 21 6 32 53
16 74 -10 15 -11 13 -7 -15z"/>
<path d="M11635 2178 c2 -18 0 -37 -5 -43 -7 -8 -5 -12 5 -12 17 0 22 72 5 82
-5 3 -7 -8 -5 -27z"/>
<path d="M11693 2165 c0 -27 2 -38 4 -22 2 15 2 37 0 50 -2 12 -4 0 -4 -28z"/>
<path d="M11736 2202 c-8 -13 -4 -82 5 -82 9 0 17 80 8 86 -4 2 -10 0 -13 -4z"/>
<path d="M5161 2184 c0 -11 3 -14 6 -6 3 7 2 16 -1 19 -3 4 -6 -2 -5 -13z"/>
<path d="M6920 2183 c0 -12 -6 -24 -12 -26 -8 -4 -9 -6 -2 -6 20 -2 39 28 26
41 -9 9 -12 7 -12 -9z"/>
<path d="M8016 2191 c-10 -15 5 -41 22 -41 13 0 13 2 -3 13 -10 8 -15 19 -11
25 4 7 5 12 2 12 -3 0 -7 -4 -10 -9z"/>
<path d="M11247 2193 c-13 -13 -7 -51 11 -64 15 -13 16 -12 4 2 -7 10 -11 29
-8 43 5 27 4 30 -7 19z"/>
<path d="M7200 2183 c0 -15 18 -35 27 -32 5 2 1 12 -9 22 -10 9 -18 14 -18 10z"/>
<path d="M5120 2171 c0 -10 19 -25 25 -20 1 2 -3 10 -11 17 -8 7 -14 8 -14 3z"/>
<path d="M7149 2163 c-13 -16 -12 -17 4 -4 16 13 21 21 13 21 -2 0 -10 -8 -17
-17z"/>
<path d="M9840 2165 c10 -12 10 -18 -1 -32 -12 -17 -12 -17 5 -1 19 17 16 48
-5 48 -8 0 -8 -4 1 -15z"/>
<path d="M11584 2149 c-3 -6 -2 -15 3 -20 5 -5 9 -1 9 11 0 23 -2 24 -12 9z"/>
<path d="M9797 2119 c7 -7 15 -10 18 -7 3 3 -2 9 -12 12 -14 6 -15 5 -6 -5z"/>
<path d="M10571 2104 c0 -11 3 -14 6 -6 3 7 2 16 -1 19 -3 4 -6 -2 -5 -13z"/>
<path d="M1047 1883 c-9 -9 -9 -41 1 -46 4 -3 7 8 7 24 0 16 0 29 -1 29 0 0
-4 -3 -7 -7z"/>
<path d="M1079 1862 c-3 -20 -2 -29 4 -23 5 5 7 19 5 32 -3 20 -5 19 -9 -9z"/>
<path d="M1101 1831 c-22 -33 -41 -63 -41 -67 0 -7 40 45 74 99 34 51 9 27
-33 -32z"/>
<path d="M1532 1872 c17 -25 15 -77 -4 -99 -7 -9 -7 -13 0 -13 35 0 42 88 10
116 l-22 19 16 -23z"/>
<path d="M1854 1875 c-9 -23 4 -47 23 -43 11 2 19 14 21 31 2 25 2 25 -4 2 -3
-14 -12 -25 -21 -25 -11 0 -14 7 -11 25 6 28 1 33 -8 10z"/>
<path d="M1914 1833 c-51 -75 -56 -92 -9 -28 39 53 58 85 52 85 -2 0 -22 -26
-43 -57z"/>
<path d="M2763 1878 c3 -10 0 -24 -8 -32 -13 -12 -13 -15 0 -20 21 -8 19 -44
-2 -49 -15 -4 -15 -5 -2 -6 9 0 22 6 29 15 11 12 10 18 -3 31 -12 12 -13 20
-4 34 9 14 8 21 -2 31 -12 11 -13 10 -8 -4z"/>
<path d="M2819 1863 c-14 -37 1 -87 26 -91 19 -4 19 -3 1 10 -14 11 -18 24
-15 61 2 26 3 47 1 47 -1 0 -7 -12 -13 -27z"/>
<path d="M2883 1861 c9 -24 9 -39 -1 -63 -10 -30 -10 -31 3 -14 19 25 19 80 1
96 -13 10 -13 7 -3 -19z"/>
<path d="M4300 1860 c-12 -16 -19 -30 -16 -30 2 0 14 14 26 30 12 17 19 30 16
30 -2 0 -14 -13 -26 -30z"/>
<path d="M4777 1883 c-9 -9 -9 -53 1 -53 4 0 7 14 7 30 0 17 0 30 -1 30 0 0
-4 -3 -7 -7z"/>
<path d="M4955 1859 c-11 -23 -11 -28 -2 -16 20 24 27 21 27 -13 0 -26 -4 -30
-26 -30 -16 0 -23 4 -18 12 4 7 3 8 -4 4 -22 -13 -12 -26 18 -26 21 0 30 -5
30 -17 0 -9 3 -13 7 -10 9 10 4 110 -6 120 -6 6 -16 -5 -26 -24z"/>
<path d="M5220 1860 c-12 -16 -19 -30 -16 -30 2 0 14 14 26 30 12 17 19 30 16
30 -2 0 -14 -13 -26 -30z"/>
<path d="M670 1861 c-19 -36 -5 -101 22 -101 7 0 6 5 -2 15 -7 8 -11 34 -8 60
2 25 2 45 1 45 -1 0 -7 -9 -13 -19z"/>
<path d="M729 1834 c2 -26 -2 -51 -9 -59 -8 -10 -9 -15 -2 -15 28 0 44 88 19
108 -9 8 -11 1 -8 -34z"/>
<path d="M853 1873 c-7 -2 -13 -9 -13 -15 0 -6 6 -6 15 2 13 11 15 6 15 -38 0
-31 -5 -52 -12 -55 -7 -3 -4 -6 7 -6 18 -1 20 4 17 59 -4 60 -6 63 -29 53z"/>
<path d="M951 1866 c-7 -8 -11 -34 -9 -58 2 -34 7 -43 23 -46 18 -2 18 -2 3 8
-21 13 -25 79 -6 98 7 7 9 12 6 12 -3 0 -11 -6 -17 -14z"/>
<path d="M1250 1836 c0 -24 3 -51 6 -60 12 -33 19 -14 16 44 -4 69 -22 82 -22
16z"/>
<path d="M1480 1861 c-19 -36 -5 -101 22 -101 7 0 6 5 -2 15 -7 8 -11 34 -8
60 2 25 2 45 1 45 -1 0 -7 -9 -13 -19z"/>
<path d="M1668 1858 c-30 -46 -39 -68 -28 -68 5 0 10 4 10 10 0 5 9 24 21 42
l20 33 -1 -40 c-3 -66 -1 -82 9 -65 9 18 2 110 -9 110 -4 0 -14 -10 -22 -22z"/>
<path d="M1750 1861 c-33 -63 18 -131 64 -85 20 19 21 78 1 94 -12 10 -13 7
-6 -17 11 -40 -1 -78 -24 -78 -17 0 -20 7 -20 53 0 28 -1 52 -2 52 -1 0 -7 -9
-13 -19z"/>
<path d="M3739 1864 c-15 -18 -2 -48 22 -50 11 -1 11 0 1 3 -9 3 -12 15 -10
34 5 34 5 34 -13 13z"/>
<path d="M3795 1828 c0 -51 -1 -53 -30 -59 -29 -6 -29 -7 -4 -8 15 0 32 5 38
12 18 23 23 71 9 90 -11 15 -13 11 -13 -35z"/>
<path d="M3900 1858 c0 -22 -5 -28 -22 -29 -22 -1 -22 -1 2 -8 37 -10 33 -44
-5 -52 -22 -5 -24 -7 -8 -8 12 0 28 2 37 5 18 7 22 39 6 49 -6 4 -7 13 -1 24
6 10 6 23 0 32 -6 10 -9 7 -9 -13z"/>
<path d="M4010 1861 c-23 -45 -4 -101 35 -101 40 0 60 65 33 103 -11 15 -12 8
-10 -39 4 -53 3 -56 -20 -52 -21 3 -23 8 -23 56 0 28 -1 52 -2 52 -1 0 -7 -9
-13 -19z"/>
<path d="M4120 1861 c-26 -50 -1 -108 42 -98 36 9 50 66 26 100 -11 15 -13 9
-13 -35 0 -47 -2 -53 -22 -56 -14 -2 -23 2 -24 10 0 7 -2 23 -5 36 -2 13 1 32
6 43 6 10 8 19 6 19 -3 0 -10 -9 -16 -19z"/>
<path d="M4224 1855 c1 -29 41 -27 42 3 1 18 1 19 -3 2 -5 -25 -30 -26 -36 -2
-3 13 -4 12 -3 -3z"/>
<path d="M4429 1868 c-2 -23 2 -73 7 -90 14 -47 22 5 15 95 -1 12 -21 8 -22
-5z"/>
<path d="M4715 1825 c0 -30 4 -50 9 -45 11 11 10 80 -1 91 -4 4 -8 -15 -8 -46z"/>
<path d="M5037 1873 c-13 -12 -7 -51 9 -57 25 -9 31 -6 11 5 -13 8 -17 18 -13
35 7 25 4 29 -7 17z"/>
<path d="M5095 1835 c3 -45 -5 -59 -40 -68 -19 -4 -18 -5 2 -6 12 0 29 6 37
15 17 16 22 89 7 98 -5 3 -7 -14 -6 -39z"/>
<path d="M5144 1855 c1 -29 41 -27 42 3 1 18 1 19 -3 2 -5 -25 -30 -26 -36 -2
-3 13 -4 12 -3 -3z"/>
<path d="M5847 1857 c3 -15 -4 -34 -21 -54 -33 -40 -33 -43 7 -42 23 1 26 3
10 6 -28 5 -29 15 -3 38 20 18 28 75 11 75 -4 0 -6 -10 -4 -23z"/>
<path d="M5904 1866 c-3 -8 -4 -31 -2 -51 6 -73 70 -74 76 -2 2 20 -2 45 -7
54 -8 14 -9 11 -5 -14 10 -51 -3 -85 -29 -81 -20 3 -22 9 -22 56 1 54 -2 62
-11 38z"/>
<path d="M7167 1859 c4 -13 8 -18 11 -10 2 7 -1 18 -6 23 -8 8 -9 4 -5 -13z"/>
<path d="M7219 1863 c-29 -35 -41 -53 -36 -53 2 0 17 16 31 35 28 36 31 49 5
18z"/>
<path d="M7600 1873 c24 -9 30 -25 25 -73 -3 -31 -1 -40 5 -30 14 21 12 84 -2
98 -7 7 -19 12 -27 11 -14 0 -14 -1 -1 -6z"/>
<path d="M7944 1850 c1 -16 7 -25 19 -26 11 -1 12 0 3 3 -8 2 -17 14 -19 26
-3 18 -4 18 -3 -3z"/>
<path d="M7977 1859 c4 -13 8 -18 11 -10 2 7 -1 18 -6 23 -8 8 -9 4 -5 -13z"/>
<path d="M8029 1863 c-13 -16 -12 -17 4 -4 16 13 21 21 13 21 -2 0 -10 -8 -17
-17z"/>
<path d="M4656 1857 c-10 -21 9 -48 33 -46 14 1 14 2 -1 6 -9 2 -18 16 -20 31
-4 23 -6 24 -12 9z"/>
<path d="M6754 1846 c-8 -32 2 -46 29 -45 22 0 22 0 -2 10 -18 7 -22 14 -17
34 4 14 4 25 1 25 -2 0 -7 -11 -11 -24z"/>
<path d="M6816 1826 c3 -46 -5 -60 -41 -69 -19 -4 -18 -5 2 -6 12 0 29 6 37
15 17 16 22 89 7 98 -4 3 -7 -14 -5 -38z"/>
<path d="M6883 1863 c-7 -2 -13 -9 -13 -14 0 -4 7 -6 15 -3 12 5 15 -3 15 -39
0 -35 -4 -47 -17 -50 -10 -3 -2 -5 17 -5 19 0 29 2 23 5 -8 3 -13 25 -13 59 0
53 -3 57 -27 47z"/>
<path d="M7085 1817 c0 -46 -2 -52 -22 -55 -25 -4 -39 30 -30 74 3 16 1 22 -5
16 -15 -15 -5 -84 15 -96 28 -18 52 4 55 54 2 23 -1 47 -5 51 -5 5 -9 -14 -8
-44z"/>
<path d="M7134 1845 c1 -12 9 -21 21 -22 14 -1 15 0 3 3 -9 3 -19 13 -21 22
-3 12 -4 11 -3 -3z"/>
<path d="M7338 1859 c-8 -23 8 -103 20 -105 7 -1 8 0 2 3 -12 6 -13 80 -1 85
5 2 3 8 -4 15 -9 8 -15 9 -17 2z"/>
<path d="M7564 1846 c-7 -30 1 -46 24 -46 15 1 15 2 -1 11 -13 8 -17 18 -13
35 4 13 4 24 1 24 -2 0 -7 -11 -11 -24z"/>
<path d="M7727 1854 c4 -10 0 -22 -11 -29 -14 -11 -15 -13 -1 -19 27 -10 18
-44 -12 -49 l-28 -4 26 -2 c34 -1 56 23 40 43 -7 8 -9 25 -6 39 4 14 2 28 -4
31 -7 5 -8 1 -4 -10z"/>
<path d="M7852 1831 c-25 -44 -27 -51 -10 -51 6 0 9 3 5 6 -3 4 1 20 9 36 17
33 28 30 30 -7 0 -15 -5 -25 -13 -25 -9 0 -8 -5 5 -18 22 -23 28 -8 24 53 -5
56 -21 58 -50 6z"/>
<path d="M8913 1863 c-7 -2 -13 -9 -13 -14 0 -4 7 -6 15 -3 12 5 15 -3 15 -39
0 -27 -5 -47 -12 -50 -7 -3 1 -5 17 -5 17 0 24 2 18 5 -8 3 -13 25 -13 59 0
53 -3 57 -27 47z"/>
<path d="M9005 1860 c-9 -14 -9 -61 -1 -88 8 -24 44 -30 64 -10 22 22 13 108
-11 108 -7 0 -7 -4 1 -12 14 -14 16 -67 3 -86 -5 -8 -17 -12 -27 -10 -16 3
-19 12 -19 56 1 55 0 58 -10 42z"/>
<path d="M9816 1851 c-3 -5 3 -11 15 -14 16 -4 18 -3 8 9 -13 16 -16 17 -23 5z"/>
<path d="M10586 1851 c-3 -5 3 -11 15 -14 16 -4 18 -3 8 9 -13 16 -16 17 -23
5z"/>
<path d="M1319 1829 c-12 -24 2 -69 22 -69 8 0 8 4 -1 15 -7 8 -10 28 -8 45 5
36 3 37 -13 9z"/>
<path d="M1378 1839 c17 -18 15 -44 -4 -63 -8 -9 -11 -16 -6 -16 32 0 43 79
12 88 -12 4 -13 2 -2 -9z"/>
<path d="M4500 1834 c-20 -23 -1 -69 28 -70 18 -1 18 -1 3 3 -25 5 -35 36 -21
63 13 24 8 26 -10 4z"/>
<path d="M4559 1832 c7 -12 9 -33 6 -45 -5 -17 -4 -19 4 -7 16 22 13 46 -6 61
-15 13 -15 12 -4 -9z"/>
<path d="M9943 1833 c31 -36 18 -109 -19 -101 -16 3 -19 12 -19 56 1 32 -3 48
-9 42 -10 -10 -11 -59 -1 -90 7 -22 44 -27 63 -8 7 7 12 31 12 55 0 34 -5 45
-22 54 -22 12 -22 11 -5 -8z"/>
<path d="M10088 1840 c30 -13 28 -35 -9 -81 l-31 -39 29 1 c21 0 24 2 10 8
-16 6 -16 9 8 31 38 35 29 91 -14 89 -10 0 -7 -4 7 -9z"/>
<path d="M10666 1828 c-34 -48 -10 -116 36 -105 39 10 51 71 21 104 -10 10
-14 13 -10 7 5 -7 7 -32 5 -56 -2 -35 -7 -43 -23 -43 -16 0 -21 8 -23 43 -2
24 2 50 9 58 6 8 9 14 6 14 -3 0 -13 -10 -21 -22z"/>
<path d="M10864 1842 c-11 -8 -54 -75 -54 -86 0 -3 7 -6 16 -6 8 0 13 4 9 9
-6 11 15 61 27 61 4 0 8 -13 8 -30 0 -17 -5 -30 -12 -30 -9 0 -10 -3 -2 -8 6
-4 14 -14 17 -22 4 -12 6 -11 6 3 1 9 7 17 14 17 9 0 9 2 0 8 -6 4 -13 26 -15
49 -2 27 -7 40 -14 35z"/>
<path d="M10934 1829 c-22 -24 -9 -53 25 -55 19 -2 19 -1 1 3 -25 5 -28 51 -4
60 20 8 34 -13 34 -52 0 -37 -9 -51 -35 -58 -19 -4 -19 -5 1 -6 29 -1 46 21
47 63 1 35 -16 66 -38 66 -6 0 -20 -9 -31 -21z"/>
<path d="M12077 1843 c-12 -12 -7 -53 6 -53 9 0 12 10 9 30 -5 32 -5 33 -15
23z"/>
<path d="M7407 1833 c-11 -11 -8 -58 5 -71 37 -37 96 19 66 61 -11 15 -13 12
-13 -20 0 -34 -3 -38 -25 -38 -22 0 -25 4 -24 38 1 39 1 41 -9 30z"/>
<path d="M7980 1795 c-17 -25 -29 -45 -26 -45 3 0 19 20 36 45 17 25 29 45 26
45 -3 0 -19 -20 -36 -45z"/>
<path d="M9785 1827 c-8 -20 1 -33 37 -51 35 -17 29 -40 -12 -46 -28 -4 -31
-7 -16 -13 23 -9 66 16 66 39 0 8 -13 23 -30 32 -16 9 -31 26 -33 37 -3 19 -4
19 -12 2z"/>
<path d="M10180 1830 c-13 -8 -12 -10 3 -10 14 0 17 -9 17 -44 0 -26 -5 -46
-12 -49 -7 -3 1 -5 17 -5 17 0 24 2 18 5 -8 3 -13 25 -13 59 0 55 -4 61 -30
44z"/>
<path d="M10320 1796 c0 -56 8 -76 29 -75 10 0 11 2 4 6 -16 6 -17 83 -2 83 6
0 4 7 -5 15 -22 23 -26 19 -26 -29z"/>
<path d="M10557 1833 c-16 -16 -5 -41 23 -53 43 -18 41 -50 -2 -50 -18 0 -28
-4 -22 -8 6 -4 14 -14 17 -22 4 -12 6 -11 6 3 1 9 8 17 16 17 19 0 36 32 26
49 -5 7 -19 18 -32 25 -13 7 -23 20 -23 29 2 19 1 20 -9 10z"/>
<path d="M998 1795 c-3 -27 -1 -32 9 -23 15 12 17 44 4 52 -5 3 -11 -10 -13
-29z"/>
<path d="M1934 1804 c-8 -29 7 -49 30 -41 10 4 15 17 15 34 l-2 28 -4 -27 c-3
-17 -11 -28 -20 -28 -12 0 -14 7 -9 30 7 37 -1 40 -10 4z"/>
<path d="M4823 1817 c10 -27 -3 -47 -32 -48 -24 -2 -24 -2 -3 -6 40 -8 73 43
40 63 -8 5 -9 2 -5 -9z"/>
<path d="M5243 1819 c9 -5 17 -18 18 -27 0 -11 2 -12 6 -4 6 15 -14 42 -31 42
-6 0 -3 -5 7 -11z"/>
<path d="M1159 1792 c-3 -20 -2 -29 4 -23 5 5 7 19 5 32 -3 20 -5 19 -9 -9z"/>
<path d="M4255 1794 c-9 -15 -12 -23 -6 -20 11 7 35 46 28 46 -3 0 -12 -12
-22 -26z"/>
<path d="M4304 1790 c1 -16 7 -25 19 -26 11 -1 12 0 3 3 -8 2 -17 14 -19 26
-3 18 -4 18 -3 -3z"/>
<path d="M7234 1804 c9 -8 16 -20 16 -26 0 -6 3 -9 6 -6 8 9 -14 48 -27 48 -6
0 -3 -7 5 -16z"/>
<path d="M8050 1800 c6 -11 13 -20 16 -20 2 0 0 9 -6 20 -6 11 -13 20 -16 20
-2 0 0 -9 6 -20z"/>
<path d="M10445 1799 c16 -17 17 -25 8 -50 -10 -26 -10 -29 3 -19 26 23 12 90
-20 90 -5 0 -1 -9 9 -21z"/>
<path d="M11139 1806 c20 -23 10 -71 -14 -71 -16 0 -20 7 -20 38 0 23 -5 37
-12 37 -9 0 -13 -20 -13 -65 0 -37 4 -65 10 -65 6 0 10 11 10 24 0 19 4 22 25
18 34 -6 53 39 30 74 -8 13 -18 24 -21 24 -4 0 -1 -6 5 -14z"/>
<path d="M11246 1803 c15 -16 15 -17 -2 -24 -17 -7 -17 -8 4 -8 12 -1 22 5 22
12 0 15 -20 37 -33 37 -5 0 -1 -8 9 -17z"/>
<path d="M11479 1806 c20 -23 10 -71 -14 -71 -17 0 -20 6 -19 38 1 25 -3 37
-12 37 -10 0 -14 -17 -14 -65 0 -37 4 -65 10 -65 6 0 10 11 10 24 0 19 4 22
25 19 19 -4 27 0 36 21 13 29 0 76 -22 76 -8 0 -8 -4 0 -14z"/>
<path d="M11584 1777 c1 -32 -3 -42 -16 -45 -21 -4 -25 24 -5 31 7 4 8 6 1 6
-16 1 -37 -26 -29 -39 3 -5 20 -9 36 -8 27 2 29 5 29 45 0 23 -4 44 -8 47 -5
3 -9 -14 -8 -37z"/>
<path d="M1120 1791 c0 -11 4 -22 9 -25 4 -3 6 6 3 19 -5 30 -12 33 -12 6z"/>
<path d="M4341 1794 c0 -11 3 -14 6 -6 3 7 2 16 -1 19 -3 4 -6 -2 -5 -13z"/>
<path d="M10389 1789 c-14 -27 3 -69 28 -69 15 0 15 1 -1 13 -14 10 -17 23
-14 45 5 38 3 40 -13 11z"/>
<path d="M11300 1765 c0 -25 4 -45 9 -45 5 0 11 20 13 45 2 31 -1 45 -9 45 -9
0 -13 -16 -13 -45z"/>
<path d="M11643 1765 c0 -27 2 -38 4 -22 2 15 2 37 0 50 -2 12 -4 0 -4 -28z"/>
<path d="M11690 1763 c0 -25 2 -44 4 -42 8 10 13 89 5 89 -5 0 -9 -21 -9 -47z"/>
<path d="M7155 1774 c-9 -15 -12 -23 -6 -20 11 7 35 46 28 46 -3 0 -12 -12
-22 -26z"/>
<path d="M11197 1793 c-19 -18 1 -73 26 -73 5 0 1 7 -8 16 -12 12 -13 19 -4
30 9 11 9 14 0 14 -7 0 -9 5 -6 10 7 11 2 13 -8 3z"/>
<path d="M12118 1788 c17 -17 15 -45 -5 -57 -10 -6 -13 -11 -6 -11 14 0 43 28
43 41 0 12 -25 39 -36 39 -5 0 -3 -5 4 -12z"/>
<path d="M5159 1773 c-13 -16 -12 -17 4 -4 16 13 21 21 13 21 -2 0 -10 -8 -17
-17z"/>
<path d="M5220 1778 c0 -12 7 -18 23 -17 15 0 17 2 7 6 -8 3 -18 11 -22 17 -5
7 -8 4 -8 -6z"/>
<path d="M7200 1783 c0 -15 18 -35 27 -32 5 2 1 12 -9 22 -10 9 -18 14 -18 10z"/>
<path d="M8010 1783 c0 -15 18 -35 27 -32 5 2 1 12 -9 22 -10 9 -18 14 -18 10z"/>
<path d="M7578 1753 c6 -2 18 -2 25 0 6 3 1 5 -13 5 -14 0 -19 -2 -12 -5z"/>
<path d="M4234 1506 c-10 -26 1 -51 21 -51 23 0 32 30 15 50 -16 19 -29 19
-36 1z m34 -24 c2 -15 -2 -22 -12 -22 -11 0 -16 9 -16 26 0 31 23 28 28 -4z"/>
<path d="M5154 1506 c-8 -22 -1 -49 14 -52 7 -1 8 0 2 3 -5 2 -10 16 -10 30 0
31 22 26 31 -8 6 -21 7 -21 8 -3 2 35 -34 59 -45 30z"/>
<path d="M5907 1502 c-20 -22 -22 -71 -4 -97 10 -13 21 -16 40 -11 35 8 47 64
23 101 -20 30 -37 32 -59 7z m48 -47 c0 -44 -3 -50 -22 -53 -18 -3 -23 3 -28
31 -8 41 9 80 33 75 13 -3 17 -14 17 -53z"/>
<path d="M1040 1495 c-17 -20 -8 -50 15 -50 15 0 20 7 21 30 2 29 2 29 -3 3
-2 -16 -9 -28 -14 -28 -16 0 -22 29 -9 45 7 8 10 15 7 15 -2 0 -10 -7 -17 -15z"/>
<path d="M1850 1495 c-14 -17 -4 -55 15 -55 21 0 35 32 24 53 -12 21 -23 22
-39 2z m33 -8 c3 -8 1 -20 -4 -28 -11 -19 -34 3 -26 25 8 20 23 21 30 3z"/>
<path d="M3756 1494 c-29 -29 -12 -64 31 -64 39 0 22 -32 -22 -43 -16 -4 -15
-5 6 -6 34 -1 51 19 52 63 2 57 -34 83 -67 50z m48 -10 c12 -31 6 -44 -19 -44
-20 0 -25 5 -25 23 0 38 32 53 44 21z"/>
<path d="M3866 1494 c-19 -18 -21 -85 -4 -102 31 -31 71 -2 71 53 0 57 -34 82
-67 49z m50 -18 c10 -41 1 -81 -20 -84 -23 -5 -36 14 -36 54 0 51 44 76 56 30z"/>
<path d="M4026 1488 c-34 -49 -10 -116 37 -104 35 8 47 64 23 101 -20 31 -40
32 -60 3z m52 -41 c2 -37 -1 -49 -14 -54 -23 -9 -42 20 -38 58 5 40 12 51 32
47 13 -2 18 -16 20 -51z"/>
<path d="M4148 1496 c-22 -16 -23 -27 -3 -20 12 5 15 -3 15 -39 0 -35 -4 -47
-17 -50 -10 -3 0 -5 22 -5 22 0 32 2 23 5 -13 3 -18 18 -20 63 -3 54 -4 57
-20 46z"/>
<path d="M4318 1493 c-23 -27 -80 -113 -74 -113 2 0 25 29 50 65 44 64 54 82
24 48z"/>
<path d="M4702 1503 c19 -5 33 -37 23 -53 -9 -14 -45 -12 -46 3 -1 6 -1 21 0
32 1 19 0 19 -10 -2 -17 -32 -5 -53 31 -53 45 0 34 -31 -15 -43 -19 -4 -18 -5
2 -6 32 -2 53 25 53 68 0 40 -14 62 -39 60 -13 -1 -13 -2 1 -6z"/>
<path d="M4808 1500 c30 -13 28 -39 -9 -83 l-30 -37 43 1 c30 2 34 3 16 6 -33
5 -35 14 -8 38 36 33 22 87 -23 84 -7 0 -2 -4 11 -9z"/>
<path d="M4972 1503 c19 -5 33 -37 23 -53 -9 -15 -42 -12 -49 5 -3 8 -3 23 1
33 5 13 3 14 -6 6 -7 -7 -11 -22 -9 -35 2 -19 10 -25 36 -27 17 -2 32 -7 32
-11 0 -12 -22 -28 -45 -34 -19 -4 -18 -5 2 -6 32 -2 53 25 53 68 0 40 -14 62
-39 60 -13 -1 -13 -2 1 -6z"/>
<path d="M5050 1496 c-6 -8 -10 -25 -8 -38 2 -18 10 -24 36 -26 28 -3 31 -6
22 -22 -5 -10 -20 -21 -32 -23 -23 -4 -23 -4 -1 -6 45 -2 69 60 43 110 -13 22
-43 25 -60 5z m55 -16 c8 -25 -1 -40 -25 -40 -10 0 -22 5 -25 10 -11 17 6 50
25 50 10 0 21 -9 25 -20z"/>
<path d="M5212 1458 c-45 -62 -55 -78 -48 -78 2 0 25 29 50 65 54 78 53 87 -2
13z"/>
<path d="M5805 1500 c-3 -5 -2 -10 3 -10 6 0 12 -20 14 -45 2 -33 -1 -46 -12
-49 -8 -2 1 -4 20 -4 19 0 29 2 23 5 -8 3 -13 25 -13 59 0 40 -4 54 -14 54 -8
0 -18 -4 -21 -10z"/>
<path d="M664 1474 c-24 -36 -9 -98 24 -102 13 -2 30 2 38 8 19 16 18 81 -2
106 -15 19 -16 19 -9 -1 15 -43 17 -56 11 -80 -5 -20 -12 -26 -29 -23 -18 2
-23 10 -25 44 -2 28 2 47 13 58 9 9 12 16 6 16 -6 0 -18 -12 -27 -26z"/>
<path d="M837 1450 l-28 -50 30 0 c21 0 31 -5 31 -15 0 -21 20 -19 21 3 1 20
-1 59 -5 86 -5 35 -20 27 -49 -24z m33 -5 c0 -29 -4 -35 -21 -35 -11 0 -19 3
-17 8 21 42 32 62 35 62 1 0 3 -16 3 -35z"/>
<path d="M958 1489 c-10 -6 -18 -15 -18 -21 0 -7 5 -6 15 2 13 11 15 6 15 -38
0 -40 -4 -52 -17 -55 -10 -3 -2 -5 17 -6 19 0 30 3 23 7 -6 4 -13 33 -15 64
-3 51 -5 56 -20 47z"/>
<path d="M1091 1439 c-23 -33 -41 -63 -38 -65 4 -4 16 12 71 99 34 51 10 27
-33 -34z"/>
<path d="M1251 1488 c-1 -10 -7 -18 -13 -18 -10 0 -10 -2 -1 -8 6 -4 13 -25
15 -46 2 -22 9 -41 16 -42 7 -1 8 0 2 3 -15 7 -13 83 3 83 8 0 9 3 1 8 -6 4
-14 14 -17 22 -4 12 -6 11 -6 -2z"/>
<path d="M1480 1485 c-14 -16 -17 -85 -6 -104 9 -15 49 -14 64 1 7 7 12 31 12
55 0 32 -5 45 -19 53 -26 14 -36 13 -51 -5z m48 -7 c14 -14 16 -67 3 -86 -15
-24 -46 -10 -49 22 -7 61 16 94 46 64z"/>
<path d="M1640 1486 c-8 -10 -8 -20 -2 -32 7 -12 6 -23 -1 -35 -16 -26 -1 -49
33 -49 34 0 49 23 33 49 -7 12 -8 23 -1 35 7 12 7 21 -1 29 -8 8 -11 5 -11 -9
0 -26 -8 -34 -26 -27 -20 7 -17 41 4 46 14 4 14 5 1 6 -9 0 -22 -6 -29 -13z
m50 -71 c15 -18 5 -35 -20 -35 -10 0 -22 5 -25 10 -7 11 12 40 25 40 4 0 13
-7 20 -15z"/>
<path d="M1749 1484 c-13 -16 -16 -85 -4 -104 9 -14 48 -13 63 2 7 7 12 31 12
55 0 32 -5 45 -19 53 -27 14 -36 13 -52 -6z m55 -25 c14 -41 0 -81 -27 -77
-24 3 -34 40 -22 85 8 32 36 27 49 -8z"/>
<path d="M1901 1439 c-23 -34 -40 -63 -38 -65 2 -2 22 24 46 57 23 34 40 63
38 65 -2 2 -22 -24 -46 -57z"/>
<path d="M2726 1492 c-3 -5 5 -8 17 -8 32 1 33 -35 3 -72 -15 -16 -26 -33 -26
-36 0 -3 17 -5 38 -5 30 2 32 3 10 6 l-28 4 24 36 c24 34 24 60 2 75 -15 10
-34 10 -40 0z"/>
<path d="M2836 1484 c-19 -18 -21 -85 -4 -102 32 -32 70 -3 70 53 0 58 -33 82
-66 49z m50 -18 c10 -41 1 -81 -20 -84 -23 -5 -36 14 -36 54 0 51 44 76 56 30z"/>
<path d="M4438 1489 c-8 -25 8 -103 22 -107 12 -4 13 -2 3 9 -15 15 -17 76 -4
81 5 2 3 8 -4 15 -9 8 -15 9 -17 2z"/>
<path d="M7310 1483 c5 -2 10 -16 10 -29 0 -31 -27 -32 -33 -1 -5 19 -5 19 -4
-3 2 -18 8 -25 22 -25 15 0 20 7 20 29 0 16 -6 30 -13 32 -7 1 -8 0 -2 -3z"/>
<path d="M4516 1464 c-36 -35 -9 -92 39 -80 33 8 44 50 20 76 -22 24 -38 25
-59 4z m53 -16 c11 -29 -4 -58 -29 -58 -23 0 -35 33 -20 60 14 27 39 26 49 -2z"/>
<path d="M6914 1455 c-20 -30 -5 -56 30 -54 20 2 19 2 -2 6 -18 4 -23 10 -20
31 2 19 9 27 23 27 17 0 20 -7 20 -50 0 -47 -2 -50 -30 -56 -29 -6 -29 -7 -4
-8 47 -2 74 60 45 104 -21 32 -41 32 -62 0z"/>
<path d="M7192 1467 c-33 -39 -20 -117 20 -116 l23 0 -22 9 c-19 8 -23 17 -23
55 0 32 5 47 16 52 25 9 39 -14 38 -63 -1 -30 2 -41 7 -33 33 52 -22 141 -59
96z"/>
<path d="M8957 1462 c-20 -22 -22 -71 -4 -97 10 -13 21 -16 40 -11 32 8 44 53
25 93 -16 34 -39 40 -61 15z m48 -47 c0 -44 -3 -50 -22 -53 -14 -2 -24 2 -24
10 -1 7 -3 24 -4 38 -4 34 13 62 33 58 13 -3 17 -14 17 -53z"/>
<path d="M1321 1456 c-19 -23 -21 -55 -5 -71 32 -31 74 -11 74 35 0 45 -43 67
-69 36z m54 -16 c10 -33 -4 -62 -28 -58 -22 3 -34 35 -23 64 8 21 44 17 51 -6z"/>
<path d="M7030 1455 c-11 -13 -10 -14 4 -9 13 5 16 -1 16 -39 0 -27 -5 -47
-12 -50 -7 -3 3 -6 22 -6 19 0 30 3 23 7 -6 4 -13 31 -14 60 -3 54 -15 66 -39
37z"/>
<path d="M9962 1444 c-31 -22 -28 -49 8 -64 39 -16 36 -42 -5 -51 -17 -4 -25
-7 -18 -8 6 0 14 -9 16 -18 4 -17 5 -17 6 0 0 9 8 17 16 17 19 0 36 32 26 49
-5 7 -19 18 -32 25 -33 16 -31 41 3 41 21 -1 24 2 16 12 -13 16 -9 16 -36 -3z"/>
<path d="M4312 1434 c-14 -26 -3 -54 22 -53 14 0 16 2 6 6 -20 8 -29 23 -23
40 8 20 23 16 33 -9 5 -14 9 -17 9 -7 1 16 -17 39 -31 39 -4 0 -11 -7 -16 -16z"/>
<path d="M5230 1431 c-14 -27 -2 -51 24 -50 21 0 21 0 -1 9 -25 10 -27 17 -13
40 10 16 12 15 28 -15 8 -15 11 -16 12 -4 0 16 -18 39 -32 39 -4 0 -12 -9 -18
-19z"/>
<path d="M6783 1433 c-18 -9 -33 -20 -33 -25 0 -4 18 -17 40 -28 22 -11 40
-16 40 -11 0 5 -13 14 -30 21 -31 13 -40 30 -17 30 7 0 22 7 33 15 25 19 7 18
-33 -2z"/>
<path d="M7331 1403 c-25 -36 -26 -41 -6 -18 26 30 49 65 42 65 -2 0 -18 -21
-36 -47z"/>
<path d="M10057 1432 c-21 -23 -22 -85 -2 -102 8 -7 25 -10 39 -6 34 8 46 65
22 101 -20 30 -37 32 -59 7z m48 -47 c0 -43 -3 -50 -21 -53 -18 -3 -23 3 -27
30 -6 44 8 80 31 76 13 -3 17 -14 17 -53z"/>
<path d="M10217 1443 c-4 -3 -7 -17 -7 -29 0 -17 7 -23 28 -26 21 -2 27 -8 27
-28 0 -19 -6 -26 -30 -31 -22 -5 -24 -7 -8 -8 38 -2 53 10 53 40 0 25 -5 30
-30 36 -40 7 -42 40 -2 46 l27 4 -26 2 c-14 0 -29 -2 -32 -6z"/>
<path d="M10327 1432 c-21 -23 -22 -85 -2 -102 8 -7 25 -10 39 -6 34 8 46 65
22 101 -20 30 -37 32 -59 7z m48 -47 c0 -44 -3 -50 -22 -53 -18 -3 -23 3 -28
31 -8 41 9 80 33 75 13 -3 17 -14 17 -53z"/>
<path d="M12082 1437 c-33 -40 -20 -117 21 -117 34 0 47 19 47 65 0 23 -5 46
-12 53 -16 16 -43 15 -56 -1z m52 -28 c14 -41 0 -81 -27 -77 -24 3 -34 40 -22
85 8 32 36 27 49 -8z"/>
<path d="M1133 1434 c21 -7 24 -54 3 -54 -8 0 -17 9 -19 20 -4 17 -4 16 -3 -2
1 -16 7 -23 21 -23 16 0 20 7 20 30 0 22 -5 30 -20 32 -16 1 -16 1 -2 -3z"/>
<path d="M1950 1433 c5 -2 10 -16 10 -29 0 -31 -27 -32 -33 -1 -5 19 -5 19 -4
-3 2 -18 8 -25 22 -25 15 0 20 7 20 29 0 16 -6 30 -13 32 -7 1 -8 0 -2 -3z"/>
<path d="M9780 1421 c0 -5 17 -15 37 -24 l37 -14 -37 -12 c-20 -7 -37 -17 -37
-22 0 -5 18 0 40 11 22 11 40 22 40 25 0 3 -18 14 -40 25 -22 11 -40 16 -40
11z"/>
<path d="M7364 1406 c-10 -26 0 -51 21 -51 16 0 20 7 20 30 0 33 -30 49 -41
21z m36 -21 c0 -16 -6 -25 -15 -25 -9 0 -15 9 -15 25 0 16 6 25 15 25 9 0 15
-9 15 -25z"/>
<path d="M10524 1407 c25 -18 18 -72 -9 -72 -16 0 -20 7 -20 38 0 23 -5 37
-12 37 -9 0 -13 -20 -13 -65 0 -37 4 -65 10 -65 6 0 10 10 10 23 0 18 5 23 27
22 23 0 29 5 33 30 6 30 -12 65 -33 65 -6 0 -3 -6 7 -13z"/>
<path d="M10598 1409 c-22 -12 -24 -62 -4 -79 8 -6 25 -10 38 -7 21 4 21 4 -3
6 -22 1 -39 17 -39 37 0 2 16 4 35 4 36 0 46 15 23 38 -14 14 -27 15 -50 1z
m46 -14 c4 -11 -2 -15 -26 -15 -26 0 -29 2 -18 15 7 8 18 15 25 15 7 0 15 -7
19 -15z"/>
<path d="M10708 1413 c-14 -3 -18 -15 -18 -49 0 -24 5 -44 10 -44 6 0 10 18
10 40 0 27 6 42 18 49 18 11 10 12 -20 4z"/>
<path d="M10864 1407 c25 -18 18 -72 -9 -72 -16 0 -20 7 -20 38 0 23 -5 37
-12 37 -9 0 -13 -20 -13 -65 0 -37 4 -65 10 -65 6 0 10 11 10 24 0 19 4 22 25
19 19 -4 27 0 36 21 15 32 -1 76 -28 76 -16 0 -15 -1 1 -13z"/>
<path d="M10936 1412 c-3 -5 5 -8 17 -8 13 1 23 -6 25 -16 2 -12 -3 -18 -16
-18 -23 0 -46 -25 -37 -40 3 -5 20 -9 36 -8 29 2 30 4 27 48 -3 37 -7 46 -25
48 -11 2 -24 -1 -27 -6z m42 -64 c-7 -19 -38 -22 -38 -4 0 10 9 16 21 16 12 0
19 -5 17 -12z"/>
<path d="M11033 1370 c0 -30 2 -43 4 -27 2 15 2 39 0 55 -2 15 -4 2 -4 -28z"/>
<path d="M11081 1370 l2 -55 7 45 c4 25 4 49 -1 55 -5 5 -8 -13 -8 -45z"/>
<path d="M4885 1390 c-3 -5 -1 -10 4 -10 6 0 11 5 11 10 0 6 -2 10 -4 10 -3 0
-8 -4 -11 -10z"/>
<path d="M770 1380 c0 -5 5 -10 11 -10 5 0 7 5 4 10 -3 6 -8 10 -11 10 -2 0
-4 -4 -4 -10z"/>
<path d="M1580 1380 c0 -5 5 -10 11 -10 5 0 7 5 4 10 -3 6 -8 10 -11 10 -2 0
-4 -4 -4 -10z"/>
<path d="M7130 1360 c0 -5 5 -10 11 -10 5 0 7 5 4 10 -3 6 -8 10 -11 10 -2 0
-4 -4 -4 -10z"/>
<path d="M9798 1323 c12 -2 32 -2 45 0 12 2 2 4 -23 4 -25 0 -35 -2 -22 -4z"/>
<path d="M4280 1125 c-14 -17 -4 -55 14 -55 25 0 39 27 26 49 -13 25 -23 26
-40 6z m34 -12 c9 -22 -10 -41 -25 -26 -13 13 -5 43 10 43 5 0 12 -8 15 -17z"/>
<path d="M4335 1074 c-25 -37 -44 -68 -42 -70 2 -3 22 22 43 53 52 77 56 83
50 83 -2 0 -25 -30 -51 -66z"/>
<path d="M1044 1105 c-8 -31 7 -50 31 -41 22 8 16 60 -7 64 -12 2 -19 -5 -24
-23z m36 -10 c0 -16 -6 -25 -15 -25 -15 0 -21 31 -8 43 13 14 23 6 23 -18z"/>
<path d="M1861 1116 c-18 -21 -9 -51 14 -51 15 0 20 7 20 29 0 33 -16 44 -34
22z m29 -21 c0 -16 -6 -25 -15 -25 -15 0 -21 31 -8 43 13 14 23 6 23 -18z"/>
<path d="M2735 1115 c-17 -14 -17 -16 -2 -11 15 5 17 -2 17 -44 0 -38 -4 -50
-17 -53 -10 -3 0 -5 22 -5 22 0 32 2 23 5 -13 3 -18 18 -20 64 -3 59 -3 60
-23 44z"/>
<path d="M2831 1117 c-18 -22 -24 -73 -12 -96 15 -27 57 -28 71 -2 33 62 -18
146 -59 98z m48 -14 c11 -21 7 -71 -8 -86 -21 -21 -41 1 -41 46 0 24 3 47 7
50 12 12 32 7 42 -10z"/>
<path d="M3910 1116 c-6 -8 -10 -25 -8 -38 2 -18 10 -24 36 -26 28 -3 31 -6
22 -23 -6 -10 -21 -20 -33 -20 -18 -1 -19 -2 -4 -6 28 -7 57 25 57 63 0 52
-42 82 -70 50z m48 -29 c3 -22 -1 -27 -18 -27 -23 0 -35 22 -26 46 10 25 41
12 44 -19z"/>
<path d="M4014 1104 c-24 -37 -9 -98 25 -102 31 -5 51 21 51 64 0 34 -21 64
-45 64 -8 0 -22 -12 -31 -26z m54 -1 c11 -21 7 -72 -7 -86 -21 -21 -41 1 -41
46 0 24 3 47 7 50 12 13 32 7 41 -10z"/>
<path d="M4181 1116 c-13 -16 -17 -87 -7 -105 9 -15 49 -14 64 1 16 16 16 90
0 106 -16 16 -43 15 -57 -2z m53 -12 c9 -22 7 -67 -3 -82 -5 -8 -17 -12 -27
-10 -21 3 -30 43 -20 84 7 27 40 33 50 8z"/>
<path d="M5852 1118 c-11 -14 -15 -38 -13 -80 1 -21 7 -29 26 -34 15 -4 32 -1
40 6 18 15 20 91 3 108 -16 16 -43 15 -56 0z m52 -14 c16 -42 3 -94 -24 -94
-20 0 -30 19 -30 55 0 36 10 55 30 55 10 0 21 -7 24 -16z"/>
<path d="M677 1102 c-34 -37 -15 -112 28 -112 27 0 45 25 45 65 0 59 -40 84
-73 47z m48 -47 c0 -43 -3 -50 -20 -50 -16 0 -21 8 -23 39 -4 49 3 68 25 64
14 -3 18 -14 18 -53z"/>
<path d="M839 1104 c-10 -12 -10 -20 -1 -34 9 -14 8 -21 -3 -30 -19 -16 -2
-50 25 -50 46 0 66 30 38 58 -8 8 -8 15 2 27 10 12 10 18 0 30 -16 20 -44 19
-61 -1z m51 -14 c0 -13 -7 -20 -20 -20 -13 0 -20 7 -20 20 0 13 7 20 20 20 13
0 20 -7 20 -20z m0 -55 c15 -18 5 -35 -20 -35 -10 0 -22 5 -25 10 -7 11 12 40
25 40 4 0 13 -7 20 -15z"/>
<path d="M955 1100 c-17 -18 -17 -20 -2 -14 14 5 17 -1 17 -39 0 -35 -4 -47
-17 -50 -10 -3 0 -5 22 -5 22 0 34 2 28 5 -9 3 -13 26 -13 64 0 63 -6 71 -35
39z"/>
<path d="M1096 1055 c-25 -36 -42 -65 -38 -65 6 0 18 15 75 102 38 57 7 26
-37 -37z"/>
<path d="M1255 1110 c-9 -15 -8 -72 1 -102 3 -10 13 -18 22 -17 11 0 12 3 5 6
-8 2 -13 22 -13 44 0 24 5 39 13 39 8 0 9 3 1 8 -6 4 -13 14 -16 22 -4 12 -6
12 -13 0z"/>
<path d="M1495 1100 c-17 -18 -17 -20 -2 -14 14 5 17 -1 17 -39 0 -27 -5 -47
-12 -50 -7 -3 3 -5 22 -5 19 0 29 2 23 5 -9 3 -13 26 -13 64 0 63 -6 71 -35
39z"/>
<path d="M1647 1113 c-4 -3 -7 -17 -7 -29 0 -17 7 -23 28 -26 21 -2 27 -8 27
-28 0 -21 -5 -25 -27 -25 -16 1 -28 -3 -28 -7 0 -4 14 -8 30 -8 23 0 33 6 42
25 13 29 -3 55 -33 55 -32 0 -24 38 9 43 26 4 26 4 -4 6 -17 0 -34 -2 -37 -6z"/>
<path d="M1756 1098 c-31 -44 -13 -108 29 -108 27 0 45 25 45 65 0 61 -44 86
-74 43z m49 -43 c0 -43 -3 -50 -20 -50 -16 0 -21 8 -23 39 -4 49 3 68 25 64
14 -3 18 -14 18 -53z"/>
<path d="M1911 1061 c-22 -33 -41 -63 -41 -68 0 -8 64 77 81 110 20 35 1 15
-40 -42z"/>
<path d="M3773 1083 c-18 -9 -33 -20 -33 -25 0 -4 18 -17 40 -28 22 -11 40
-16 40 -10 0 5 -15 16 -32 23 l-33 14 33 17 c54 28 40 36 -15 9z"/>
<path d="M1325 1070 c-15 -16 -17 -26 -9 -48 18 -51 84 -37 84 17 0 50 -42 67
-75 31z m60 -10 c10 -33 -4 -62 -28 -58 -22 3 -34 35 -23 64 8 21 44 17 51 -6z"/>
<path d="M4354 1045 c-8 -31 7 -50 31 -41 22 8 16 60 -7 64 -12 2 -19 -5 -24
-23z m36 -10 c0 -26 -14 -33 -25 -15 -9 14 1 40 15 40 5 0 10 -11 10 -25z"/>
<path d="M1124 1046 c-10 -26 0 -51 21 -51 16 0 20 7 20 30 0 33 -30 49 -41
21z m36 -21 c0 -16 -6 -25 -15 -25 -9 0 -15 9 -15 25 0 16 6 25 15 25 9 0 15
-9 15 -25z"/>
<path d="M1953 1054 c21 -7 24 -54 3 -54 -8 0 -17 9 -19 20 -4 17 -4 16 -3 -2
1 -16 7 -23 21 -23 16 0 20 7 20 30 0 22 -5 30 -20 32 -16 1 -16 1 -2 -3z"/>
<path d="M4120 1010 c0 -5 5 -10 10 -10 6 0 10 5 10 10 0 6 -4 10 -10 10 -5 0
-10 -4 -10 -10z"/>
<path d="M780 1000 c0 -5 5 -10 10 -10 6 0 10 5 10 10 0 6 -4 10 -10 10 -5 0
-10 -4 -10 -10z"/>
<path d="M1590 1000 c0 -5 5 -10 11 -10 5 0 7 5 4 10 -3 6 -8 10 -11 10 -2 0
-4 -4 -4 -10z"/>
<path d="M1202 734 c-13 -24 -3 -54 19 -54 24 0 32 16 25 46 -7 28 -31 32 -44
8z m33 -19 c0 -10 -6 -20 -12 -22 -8 -3 -13 5 -13 22 0 17 5 25 13 23 6 -3 12
-13 12 -23z"/>
<path d="M1264 692 c-48 -68 -57 -82 -50 -82 7 0 98 131 94 136 -2 2 -22 -22
-44 -54z"/>
<path d="M848 729 c-10 -6 -18 -15 -18 -21 0 -7 5 -6 15 2 13 11 15 6 15 -38
0 -40 -4 -52 -17 -55 -10 -3 0 -5 22 -5 22 0 32 2 23 5 -13 3 -18 18 -20 63
-3 53 -5 58 -20 49z"/>
<path d="M990 710 c0 -25 4 -30 24 -30 26 0 39 -21 29 -46 -4 -11 -15 -15 -34
-12 -16 3 -29 1 -29 -4 0 -16 63 -4 74 15 14 22 -3 51 -33 55 -32 5 -28 40 7
45 25 4 25 4 -5 6 -30 1 -33 -2 -33 -29z"/>
<path d="M1101 726 c-18 -21 -10 -97 12 -110 28 -18 52 4 55 53 2 23 -2 49 -9
57 -15 18 -43 18 -58 0z m53 -12 c16 -42 3 -94 -24 -94 -20 0 -30 19 -30 59 0
44 41 70 54 35z"/>
<path d="M2771 726 c-18 -21 -10 -97 12 -110 22 -14 48 1 60 37 18 54 -40 112
-72 73z m54 -51 c0 -41 -3 -50 -19 -53 -10 -2 -22 2 -27 10 -21 33 -1 102 29
96 13 -3 17 -14 17 -53z"/>
<path d="M698 696 c-21 -11 -38 -23 -38 -26 0 -9 82 -52 87 -46 3 3 -8 13 -26
23 -37 22 -38 27 -6 41 14 6 25 16 25 22 0 5 -1 10 -2 9 -2 -1 -20 -11 -40
-23z"/>
<path d="M1280 665 c-16 -19 -3 -55 20 -55 21 0 33 25 25 51 -8 23 -28 25 -45
4z m34 -12 c9 -22 -12 -43 -23 -24 -10 15 -4 41 9 41 4 0 11 -8 14 -17z"/>
<path d="M930 620 c0 -5 5 -10 10 -10 6 0 10 5 10 10 0 6 -4 10 -10 10 -5 0
-10 -4 -10 -10z"/>
</g>
</svg>
